<?xml version="1.0" encoding="UTF-8"?>
<svg xmlns="http://www.w3.org/2000/svg" xmlns:xlink="http://www.w3.org/1999/xlink" width="400pt" height="256pt" viewBox="0 0 400 256" version="1.1">
<g id="surface1">
<path style="fill:none;stroke-width:8.24;stroke-linecap:butt;stroke-linejoin:miter;stroke:rgb(0%,0%,0%);stroke-opacity:1;stroke-miterlimit:10;" d="M 161.690713 425.523848 C 151.941553 434.196886 139.988352 469.722085 138.500963 474.759299 C 136.04001 483.089775 130.110736 484.537877 127.676826 483.829397 C 121.767834 482.108803 44.896854 441.927879 40.982316 440.028219 C 36.770301 438.027348 35.58715 439.031676 32.267568 436.633745 C 29.38068 434.531662 32.67998 425.282497 31.963329 419.7003 C 31.611764 416.959807 25.959685 372.909493 28.549095 361.62053 C 29.921549 355.617915 42.307445 304.09353 51.366998 298.020846 C 72.197208 283.999175 128.630107 254.492161 153.996855 248.762039 C 162.400604 246.870164 161.001106 264.68337 166.720793 267.182513 C 172.90698 269.891864 175.192151 266.380607 179.512341 266.801023 C 185.826984 267.408292 183.426879 267.423863 189.051914 271.347751 C 192.330932 273.6289 193.96706 266.637528 196.630839 272.99049 C 200.49129 282.216297 212.268708 328.057274 215.540964 327.660214 C 222.538455 326.80381 216.183246 321.6576 224.789821 314.020032 C 234.079243 305.806338 231.53716 309.473305 237.419108 308.212055 C 241.421537 307.363436 300.112564 260.401349 308.671813 256.30618 C 313.377372 254.048388 306.217621 246.262896 306.501577 243.312194 C 306.907228 239.193669 307.502184 239.006817 312.011678 236.313037 C 323.789096 229.111457 331.158434 223.677184 342.949374 216.467818 C 345.221023 215.082 349.338387 211.220396 353.861402 209.017102 C 371.020465 200.663269 453.259568 163.767823 463.461706 158.777323 C 467.119331 156.98666 470.9595 155.110356 470.378066 151.139755 C 469.796632 147.169154 449.541095 105.376633 446.681251 99.140454 C 445.49134 96.547886 443.381951 93.488187 444.511015 90.872262 C 445.930795 87.540071 447.560163 88.046128 452.319808 85.928475 C 500.430089 64.479444 553.02282 43.318477 602.512316 23.442116 C 606.818984 21.713737 612.957845 18.44383 615.50669 19.269093 C 619.847162 20.732765 619.847162 22.531214 622.078246 27.552856 C 655.078004 102.122298 665.138164 117.778922 659.601019 120.153497 C 630.847081 132.439003 469.370698 200.453061 362.170499 244.690226 C 351.021841 249.291452 325.851159 260.821766 322.747924 262.799281 C 310.497245 270.639271 227.751078 332.58843 225.837754 336.341037 C 222.89678 342.211298 215.297573 377.339438 209.53056 380.936335 Z M 161.690713 425.523848 " transform="matrix(0.577774,0,0,0.501735,0.098822,0)"/>
<path style="fill:none;stroke-width:3.18;stroke-linecap:butt;stroke-linejoin:miter;stroke:rgb(0%,0%,0%);stroke-opacity:1;stroke-miterlimit:10;" d="M 637.580898 66.5426 C 640.467785 71.766665 640.359611 86.722595 642.408152 91.32382 C 651.690813 112.181153 651.27164 113.426832 648.763361 114.493445 C 585.758905 141.0809 568.11306 148.492688 562.440698 150.867263 C 555.030796 154.028173 556.261272 156.410533 552.150669 158.26348 C 541.509075 163.0827 501.572674 177.711639 474.333169 196.256681 " transform="matrix(0.577774,0,0,0.501735,0.098822,0)"/>
<path style=" stroke:none;fill-rule:nonzero;fill:rgb(100%,0%,0%);fill-opacity:1;" d="M 341.769531 85.378906 L 345.058594 91.675781 L 356.65625 83.398438 Z M 341.769531 85.378906 "/>
<path style=" stroke:none;fill-rule:nonzero;fill:rgb(0%,0%,0%);fill-opacity:1;" d="M 349.921875 64.683594 L 351.953125 68.824219 L 356.710938 67.0625 L 354.683594 62.925781 Z M 349.921875 64.683594 "/>
<path style=" stroke:none;fill-rule:nonzero;fill:rgb(100%,100%,100%);fill-opacity:1;" d="M 354.683594 62.925781 L 356.710938 67.0625 L 361.472656 65.300781 L 359.453125 61.167969 Z M 354.683594 62.925781 "/>
<path style=" stroke:none;fill-rule:nonzero;fill:rgb(0%,0%,0%);fill-opacity:1;" d="M 359.472656 61.167969 L 361.496094 65.300781 L 366.257812 63.539062 L 364.234375 59.40625 Z M 359.472656 61.167969 "/>
<path style=" stroke:none;fill-rule:nonzero;fill:rgb(100%,100%,100%);fill-opacity:1;" d="M 351.964844 68.78125 L 353.992188 72.917969 L 358.753906 71.160156 L 356.722656 67.027344 Z M 351.964844 68.78125 "/>
<path style=" stroke:none;fill-rule:nonzero;fill:rgb(100%,100%,100%);fill-opacity:1;" d="M 361.457031 65.265625 L 363.484375 69.398438 L 368.246094 67.640625 L 366.21875 63.503906 Z M 361.457031 65.265625 "/>
<path style=" stroke:none;fill-rule:nonzero;fill:rgb(0%,0%,0%);fill-opacity:1;" d="M 356.679688 66.988281 L 358.707031 71.121094 L 363.464844 69.363281 L 361.4375 65.226562 Z M 356.679688 66.988281 "/>
<path style=" stroke:none;fill-rule:nonzero;fill:rgb(0%,0%,0%);fill-opacity:1;" d="M 353.945312 72.882812 L 355.96875 77.015625 L 360.726562 75.261719 L 358.707031 71.121094 Z M 353.945312 72.882812 "/>
<path style=" stroke:none;fill-rule:nonzero;fill:rgb(100%,100%,100%);fill-opacity:1;" d="M 358.707031 71.121094 L 360.726562 75.261719 L 365.496094 73.5 L 363.464844 69.363281 Z M 358.707031 71.121094 "/>
<path style=" stroke:none;fill-rule:nonzero;fill:rgb(0%,0%,0%);fill-opacity:1;" d="M 363.464844 69.363281 L 365.496094 73.5 L 370.253906 71.738281 L 368.226562 67.605469 Z M 363.464844 69.363281 "/>
<path style=" stroke:none;fill-rule:nonzero;fill:rgb(100%,100%,100%);fill-opacity:1;" d="M 355.949219 76.980469 L 357.976562 81.117188 L 362.738281 79.355469 L 360.710938 75.21875 Z M 355.949219 76.980469 "/>
<path style=" stroke:none;fill-rule:nonzero;fill:rgb(100%,100%,100%);fill-opacity:1;" d="M 365.472656 73.464844 L 367.5 77.597656 L 372.261719 75.835938 L 370.238281 71.703125 Z M 365.472656 73.464844 "/>
<path style=" stroke:none;fill-rule:nonzero;fill:rgb(0%,0%,0%);fill-opacity:1;" d="M 360.695312 75.183594 L 362.722656 79.320312 L 367.480469 77.558594 L 365.453125 73.425781 Z M 360.695312 75.183594 "/>
<path style=" stroke:none;fill-rule:nonzero;fill:rgb(0%,0%,0%);fill-opacity:1;" d="M 357.742188 81.070312 L 359.769531 85.203125 L 364.53125 83.445312 L 362.5 79.308594 Z M 357.742188 81.070312 "/>
<path style=" stroke:none;fill-rule:nonzero;fill:rgb(100%,100%,100%);fill-opacity:1;" d="M 362.519531 79.308594 L 364.546875 83.445312 L 369.296875 81.683594 L 367.269531 77.546875 Z M 362.519531 79.308594 "/>
<path style=" stroke:none;fill-rule:nonzero;fill:rgb(0%,0%,0%);fill-opacity:1;" d="M 367.28125 77.546875 L 369.296875 81.683594 L 374.058594 79.925781 L 372.03125 75.792969 Z M 367.28125 77.546875 "/>
<path style="fill-rule:nonzero;fill:rgb(100%,100%,100%);fill-opacity:1;stroke-width:0.61;stroke-linecap:butt;stroke-linejoin:miter;stroke:rgb(0%,0%,0%);stroke-opacity:1;stroke-miterlimit:10;" d="M 691.972018 106.723524 C 691.972018 112.51593 687.266459 117.218367 681.472402 117.218367 C 675.671584 117.218367 670.972786 112.51593 670.972786 106.723524 C 670.972786 100.923332 675.671584 96.220895 681.472402 96.220895 C 687.266459 96.220895 691.972018 100.923332 691.972018 106.723524 Z M 691.972018 106.723524 " transform="matrix(0.577774,0,0,0.501735,0.098822,0)"/>
<path style=" stroke:none;fill-rule:nonzero;fill:rgb(0%,0%,0%);fill-opacity:1;" d="M 394.246094 55.375 L 393.746094 55.375 L 393.746094 52.617188 C 393.605469 52.734375 393.445312 52.832031 393.273438 52.914062 C 393.109375 53 392.933594 53.078125 392.753906 53.140625 L 392.753906 52.722656 C 393.019531 52.613281 393.261719 52.472656 393.480469 52.304688 C 393.664062 52.175781 393.816406 52.015625 393.925781 51.835938 L 394.246094 51.835938 Z M 394.246094 55.375 "/>
<path style="fill-rule:nonzero;fill:rgb(100%,100%,100%);fill-opacity:1;stroke-width:0.81;stroke-linecap:butt;stroke-linejoin:miter;stroke:rgb(0%,0%,0%);stroke-opacity:1;stroke-miterlimit:10;" d="M 664.029383 115.840335 C 664.029383 117.841206 662.406776 119.468374 660.398801 119.468374 C 658.397586 119.468374 656.768219 117.841206 656.768219 115.840335 C 656.768219 113.831678 658.397586 112.212295 660.398801 112.212295 C 662.406776 112.212295 664.029383 113.831678 664.029383 115.840335 Z M 664.029383 115.840335 " transform="matrix(0.577774,0,0,0.501735,0.098822,0)"/>
<path style="fill-rule:nonzero;fill:rgb(100%,100%,100%);fill-opacity:1;stroke-width:0.61;stroke-linecap:butt;stroke-linejoin:miter;stroke:rgb(0%,0%,0%);stroke-opacity:1;stroke-miterlimit:10;" d="M 648.817447 10.502629 C 648.817447 16.30282 644.11865 20.997472 638.317832 20.997472 C 632.523774 20.997472 627.818216 16.30282 627.818216 10.502629 C 627.818216 4.702437 632.523774 0 638.317832 0 C 644.11865 0 648.817447 4.702437 648.817447 10.502629 Z M 648.817447 10.502629 " transform="matrix(0.577774,0,0,0.501735,0.098822,0)"/>
<path style=" stroke:none;fill-rule:nonzero;fill:rgb(0%,0%,0%);fill-opacity:1;" d="M 370.058594 6.679688 L 370.058594 7.09375 L 367.378906 7.09375 C 367.371094 6.992188 367.390625 6.890625 367.4375 6.792969 C 367.511719 6.621094 367.625 6.464844 367.765625 6.328125 C 367.960938 6.128906 368.175781 5.949219 368.414062 5.789062 C 368.742188 5.570312 369.035156 5.320312 369.296875 5.042969 C 369.433594 4.902344 369.511719 4.726562 369.527344 4.539062 C 369.53125 4.375 369.457031 4.21875 369.320312 4.105469 C 368.988281 3.851562 368.492188 3.851562 368.164062 4.105469 C 368.019531 4.242188 367.941406 4.421875 367.949219 4.605469 L 367.4375 4.5625 C 367.449219 4.273438 367.589844 4 367.828125 3.804688 C 368.089844 3.621094 368.417969 3.527344 368.753906 3.542969 C 369.09375 3.523438 369.425781 3.625 369.679688 3.824219 C 369.914062 3.996094 370.050781 4.25 370.054688 4.515625 C 370.050781 4.65625 370.019531 4.796875 369.957031 4.925781 C 369.871094 5.085938 369.761719 5.230469 369.625 5.359375 C 369.382812 5.589844 369.128906 5.8125 368.855469 6.019531 C 368.558594 6.238281 368.367188 6.386719 368.28125 6.460938 C 368.199219 6.535156 368.128906 6.613281 368.066406 6.699219 Z M 370.058594 6.679688 "/>
<path style="fill-rule:nonzero;fill:rgb(100%,100%,100%);fill-opacity:1;stroke-width:0.81;stroke-linecap:butt;stroke-linejoin:miter;stroke:rgb(0%,0%,0%);stroke-opacity:1;stroke-miterlimit:10;" d="M 620.881573 19.61944 C 620.881573 21.628097 619.252206 23.247479 617.250991 23.247479 C 615.243016 23.247479 613.62041 21.628097 613.62041 19.61944 C 613.62041 17.618568 615.243016 15.9914 617.250991 15.9914 C 619.252206 15.9914 620.881573 17.618568 620.881573 19.61944 Z M 620.881573 19.61944 " transform="matrix(0.577774,0,0,0.501735,0.098822,0)"/>
<path style="fill-rule:nonzero;fill:rgb(100%,100%,100%);fill-opacity:1;stroke-width:0.61;stroke-linecap:butt;stroke-linejoin:miter;stroke:rgb(0%,0%,0%);stroke-opacity:1;stroke-miterlimit:10;" d="M 436.562708 84.801376 C 436.55696 90.59686 431.861882 95.297355 426.057383 95.301197 C 420.259487 95.297118 415.561357 90.600799 415.558336 84.799889 C 415.563001 78.997732 420.258079 74.297236 426.063661 74.300068 C 431.860474 74.297473 436.559687 79.000466 436.562708 84.801376 Z M 436.562708 84.801376 " transform="matrix(0.0925743,-0.495252,0.57031,0.0803908,158.472485,246.742998)"/>
<path style=" stroke:none;fill-rule:nonzero;fill:rgb(0%,0%,0%);fill-opacity:1;" d="M 244.796875 43.445312 L 245.300781 43.386719 C 245.332031 43.582031 245.433594 43.769531 245.589844 43.917969 C 245.726562 44.023438 245.90625 44.082031 246.09375 44.078125 C 246.308594 44.078125 246.515625 44 246.667969 43.867188 C 246.824219 43.734375 246.910156 43.554688 246.914062 43.363281 C 246.921875 43.175781 246.839844 42.996094 246.6875 42.863281 C 246.535156 42.730469 246.324219 42.660156 246.109375 42.667969 C 245.988281 42.667969 245.871094 42.6875 245.757812 42.71875 L 245.808594 42.335938 L 245.890625 42.335938 C 246.09375 42.339844 246.296875 42.289062 246.46875 42.191406 C 246.636719 42.09375 246.730469 41.925781 246.722656 41.75 C 246.730469 41.601562 246.664062 41.453125 246.535156 41.351562 C 246.261719 41.140625 245.851562 41.140625 245.578125 41.351562 C 245.433594 41.480469 245.34375 41.648438 245.324219 41.824219 L 244.828125 41.75 C 244.871094 41.488281 245.019531 41.253906 245.242188 41.078125 C 245.46875 40.914062 245.753906 40.828125 246.046875 40.835938 C 246.257812 40.832031 246.46875 40.875 246.65625 40.960938 C 247.007812 41.109375 247.234375 41.417969 247.234375 41.753906 C 247.238281 41.902344 247.191406 42.042969 247.097656 42.164062 C 246.992188 42.296875 246.84375 42.402344 246.675781 42.46875 C 246.90625 42.5 247.113281 42.605469 247.253906 42.769531 C 247.390625 42.933594 247.460938 43.132812 247.449219 43.335938 C 247.457031 43.632812 247.316406 43.917969 247.0625 44.117188 C 246.796875 44.332031 246.449219 44.449219 246.085938 44.4375 C 245.761719 44.445312 245.441406 44.347656 245.195312 44.164062 C 244.964844 43.976562 244.824219 43.71875 244.796875 43.445312 Z M 244.796875 43.445312 "/>
<path style="fill-rule:nonzero;fill:rgb(100%,100%,100%);fill-opacity:1;stroke-width:0.81;stroke-linecap:butt;stroke-linejoin:miter;stroke:rgb(0%,0%,0%);stroke-opacity:1;stroke-miterlimit:10;" d="M 448.351183 90.880047 C 448.351183 92.880919 446.721816 94.508087 444.720601 94.508087 C 442.712626 94.508087 441.09002 92.880919 441.09002 90.880047 C 441.09002 88.871391 442.712626 87.252008 444.720601 87.252008 C 446.721816 87.252008 448.351183 88.871391 448.351183 90.880047 Z M 448.351183 90.880047 " transform="matrix(0.577774,0,0,0.501735,0.098822,0)"/>
<path style="fill-rule:nonzero;fill:rgb(100%,100%,100%);fill-opacity:1;stroke-width:0.61;stroke-linecap:butt;stroke-linejoin:miter;stroke:rgb(0%,0%,0%);stroke-opacity:1;stroke-miterlimit:10;" d="M 502.242 144.132812 C 502.242 149.925218 497.536441 154.627655 491.742384 154.627655 C 485.941566 154.627655 481.242768 149.925218 481.242768 144.132812 C 481.242768 138.332621 485.941566 133.630184 491.742384 133.630184 C 497.536441 133.630184 502.242 138.332621 502.242 144.132812 Z M 502.242 144.132812 " transform="matrix(0.577774,0,0,0.501735,0.098822,0)"/>
<path style=" stroke:none;fill-rule:nonzero;fill:rgb(0%,0%,0%);fill-opacity:1;" d="M 284.363281 74.140625 L 284.363281 73.296875 L 282.628906 73.296875 L 282.628906 72.902344 L 284.480469 70.617188 L 284.890625 70.617188 L 284.890625 72.902344 L 285.4375 72.902344 L 285.4375 73.296875 L 284.890625 73.296875 L 284.890625 74.140625 Z M 284.363281 72.902344 L 284.363281 71.3125 L 283.09375 72.902344 Z M 284.363281 72.902344 "/>
<path style="fill-rule:nonzero;fill:rgb(100%,100%,100%);fill-opacity:1;stroke-width:0.81;stroke-linecap:butt;stroke-linejoin:miter;stroke:rgb(0%,0%,0%);stroke-opacity:1;stroke-miterlimit:10;" d="M 474.299365 153.249623 C 474.299365 155.25828 472.676758 156.877663 470.668783 156.877663 C 468.667568 156.877663 467.038201 155.25828 467.038201 153.249623 C 467.038201 151.248752 468.667568 149.621584 470.668783 149.621584 C 472.676758 149.621584 474.299365 151.248752 474.299365 153.249623 Z M 474.299365 153.249623 " transform="matrix(0.577774,0,0,0.501735,0.098822,0)"/>
<path style="fill-rule:nonzero;fill:rgb(100%,100%,100%);fill-opacity:1;stroke-width:0.61;stroke-linecap:butt;stroke-linejoin:miter;stroke:rgb(0%,0%,0%);stroke-opacity:1;stroke-miterlimit:10;" d="M 309.320855 220.703126 C 309.320855 226.495532 304.622058 231.197969 298.82124 231.197969 C 293.020422 231.197969 288.321624 226.495532 288.321624 220.703126 C 288.321624 214.902934 293.020422 210.200497 298.82124 210.200497 C 304.622058 210.200497 309.320855 214.902934 309.320855 220.703126 Z M 309.320855 220.703126 " transform="matrix(0.577774,0,0,0.501735,0.098822,0)"/>
<path style=" stroke:none;fill-rule:nonzero;fill:rgb(0%,0%,0%);fill-opacity:1;" d="M 171.28125 111.636719 L 171.808594 111.601562 C 171.828125 111.789062 171.921875 111.96875 172.078125 112.101562 C 172.21875 112.214844 172.398438 112.273438 172.585938 112.273438 C 172.820312 112.273438 173.042969 112.1875 173.199219 112.039062 C 173.371094 111.855469 173.453125 111.621094 173.429688 111.386719 C 173.445312 111.171875 173.355469 110.960938 173.1875 110.804688 C 173.023438 110.65625 172.796875 110.578125 172.5625 110.585938 C 172.410156 110.585938 172.257812 110.617188 172.125 110.683594 C 172 110.738281 171.898438 110.824219 171.824219 110.929688 L 171.355469 110.875 L 171.75 109.066406 L 173.765625 109.066406 L 173.765625 109.476562 L 172.148438 109.476562 L 171.929688 110.425781 C 172.152344 110.285156 172.421875 110.207031 172.699219 110.207031 C 173.035156 110.199219 173.355469 110.3125 173.59375 110.523438 C 173.835938 110.742188 173.96875 111.039062 173.957031 111.34375 C 173.964844 111.644531 173.851562 111.9375 173.640625 112.171875 C 173.136719 112.671875 172.269531 112.742188 171.667969 112.332031 C 171.441406 112.152344 171.304688 111.902344 171.28125 111.636719 Z M 171.28125 111.636719 "/>
<path style="fill-rule:nonzero;fill:rgb(100%,100%,100%);fill-opacity:1;stroke-width:0.81;stroke-linecap:butt;stroke-linejoin:miter;stroke:rgb(0%,0%,0%);stroke-opacity:1;stroke-miterlimit:10;" d="M 310.659506 240.766338 C 310.659506 242.774995 309.036899 244.402163 307.028924 244.402163 C 305.027709 244.402163 303.398342 242.774995 303.398342 240.766338 C 303.398342 238.765467 305.027709 237.138299 307.028924 237.138299 C 309.036899 237.138299 310.659506 238.765467 310.659506 240.766338 Z M 310.659506 240.766338 " transform="matrix(0.577774,0,0,0.501735,0.098822,0)"/>
<path style="fill-rule:nonzero;fill:rgb(100%,100%,100%);fill-opacity:1;stroke-width:0.61;stroke-linecap:butt;stroke-linejoin:miter;stroke:rgb(0%,0%,0%);stroke-opacity:1;stroke-miterlimit:10;" d="M 299.639304 248.691969 C 299.639304 254.492161 294.940506 259.186812 289.139688 259.186812 C 283.33887 259.186812 278.640072 254.492161 278.640072 248.691969 C 278.640072 242.891778 283.33887 238.189341 289.139688 238.189341 C 294.940506 238.189341 299.639304 242.891778 299.639304 248.691969 Z M 299.639304 248.691969 " transform="matrix(0.577774,0,0,0.501735,0.098822,0)"/>
<path style=" stroke:none;fill-rule:nonzero;fill:rgb(0%,0%,0%);fill-opacity:1;" d="M 168.277344 123.929688 L 167.785156 123.957031 C 167.757812 123.824219 167.691406 123.699219 167.59375 123.59375 C 167.460938 123.472656 167.269531 123.410156 167.074219 123.425781 C 166.925781 123.421875 166.773438 123.464844 166.652344 123.542969 C 166.488281 123.652344 166.359375 123.804688 166.285156 123.972656 C 166.179688 124.238281 166.132812 124.515625 166.144531 124.792969 C 166.355469 124.496094 166.726562 124.320312 167.128906 124.320312 C 167.449219 124.320312 167.757812 124.4375 167.976562 124.640625 C 168.21875 124.863281 168.34375 125.160156 168.328125 125.464844 C 168.328125 125.679688 168.273438 125.890625 168.160156 126.082031 C 168.0625 126.261719 167.90625 126.414062 167.710938 126.515625 C 167.511719 126.617188 167.289062 126.671875 167.058594 126.667969 C 166.667969 126.679688 166.292969 126.53125 166.042969 126.273438 C 165.738281 125.886719 165.597656 125.421875 165.648438 124.957031 C 165.59375 124.425781 165.746094 123.898438 166.082031 123.453125 C 166.332031 123.1875 166.710938 123.039062 167.105469 123.050781 C 167.390625 123.03125 167.675781 123.113281 167.894531 123.277344 C 168.113281 123.445312 168.242188 123.679688 168.261719 123.929688 Z M 166.242188 125.433594 C 166.242188 125.582031 166.28125 125.726562 166.351562 125.859375 C 166.417969 125.988281 166.523438 126.097656 166.660156 126.171875 C 166.78125 126.238281 166.925781 126.273438 167.070312 126.277344 C 167.28125 126.277344 167.480469 126.199219 167.613281 126.054688 C 167.777344 125.886719 167.859375 125.671875 167.84375 125.453125 C 167.855469 125.246094 167.777344 125.039062 167.617188 124.882812 C 167.472656 124.742188 167.261719 124.664062 167.039062 124.671875 C 166.824219 124.667969 166.613281 124.742188 166.464844 124.882812 C 166.300781 125.039062 166.21875 125.25 166.242188 125.464844 Z M 166.242188 125.433594 "/>
<path style="fill-rule:nonzero;fill:rgb(100%,100%,100%);fill-opacity:1;stroke-width:0.81;stroke-linecap:butt;stroke-linejoin:miter;stroke:rgb(0%,0%,0%);stroke-opacity:1;stroke-miterlimit:10;" d="M 313.51935 254.920363 C 313.51935 256.921234 311.896743 258.548402 309.888768 258.548402 C 307.887553 258.548402 306.258186 256.921234 306.258186 254.920363 C 306.258186 252.911706 307.887553 251.292323 309.888768 251.292323 C 311.896743 251.292323 313.51935 252.911706 313.51935 254.920363 Z M 313.51935 254.920363 " transform="matrix(0.577774,0,0,0.501735,0.098822,0)"/>
<path style="fill-rule:nonzero;fill:rgb(100%,100%,100%);fill-opacity:1;stroke-width:0.61;stroke-linecap:butt;stroke-linejoin:miter;stroke:rgb(0%,0%,0%);stroke-opacity:1;stroke-miterlimit:10;" d="M 207.522584 328.267482 C 207.522584 334.067674 202.817026 338.770111 197.022969 338.770111 C 191.222151 338.770111 186.523353 334.067674 186.523353 328.267482 C 186.523353 322.467291 191.222151 317.772639 197.022969 317.772639 C 202.817026 317.772639 207.522584 322.467291 207.522584 328.267482 Z M 207.522584 328.267482 " transform="matrix(0.577774,0,0,0.501735,0.098822,0)"/>
<path style=" stroke:none;fill-rule:nonzero;fill:rgb(0%,0%,0%);fill-opacity:1;" d="M 112.5 163.46875 L 112.5 163.0625 L 115.128906 163.0625 L 115.128906 163.398438 C 114.828125 163.691406 114.570312 164.007812 114.359375 164.351562 C 114.113281 164.742188 113.917969 165.152344 113.78125 165.578125 C 113.679688 165.894531 113.613281 166.21875 113.589844 166.546875 L 113.078125 166.546875 C 113.09375 166.207031 113.160156 165.867188 113.265625 165.542969 C 113.386719 165.148438 113.5625 164.769531 113.78125 164.410156 C 113.980469 164.078125 114.21875 163.769531 114.5 163.484375 Z M 112.5 163.46875 "/>
<path style="fill-rule:nonzero;fill:rgb(100%,100%,100%);fill-opacity:1;stroke-width:0.81;stroke-linecap:butt;stroke-linejoin:miter;stroke:rgb(0%,0%,0%);stroke-opacity:1;stroke-miterlimit:10;" d="M 223.397084 322.53736 C 223.397084 324.546017 221.774477 326.173185 219.773263 326.173185 C 217.765287 326.173185 216.142681 324.546017 216.142681 322.53736 C 216.142681 320.536489 217.765287 318.909321 219.773263 318.909321 C 221.774477 318.909321 223.397084 320.536489 223.397084 322.53736 Z M 223.397084 322.53736 " transform="matrix(0.577774,0,0,0.501735,0.098822,0)"/>
<path style="fill-rule:nonzero;fill:rgb(100%,100%,100%);fill-opacity:1;stroke-width:0.61;stroke-linecap:butt;stroke-linejoin:miter;stroke:rgb(0%,0%,0%);stroke-opacity:1;stroke-miterlimit:10;" d="M 220.510197 261.397892 C 220.510197 267.198083 215.811399 271.900521 210.010581 271.900521 C 204.209763 271.900521 199.510965 267.198083 199.510965 261.397892 C 199.510965 255.597701 204.209763 250.903049 210.010581 250.903049 C 215.811399 250.903049 220.510197 255.597701 220.510197 261.397892 Z M 220.510197 261.397892 " transform="matrix(0.577774,0,0,0.501735,0.098822,0)"/>
<path style=" stroke:none;fill-rule:nonzero;fill:rgb(0%,0%,0%);fill-opacity:1;" d="M 120.738281 131.066406 C 120.558594 131.015625 120.398438 130.917969 120.28125 130.789062 C 120.175781 130.660156 120.125 130.507812 120.132812 130.351562 C 120.125 130.105469 120.242188 129.871094 120.449219 129.703125 C 120.945312 129.351562 121.65625 129.351562 122.152344 129.703125 C 122.363281 129.871094 122.480469 130.109375 122.476562 130.355469 C 122.480469 130.507812 122.429688 130.65625 122.328125 130.78125 C 122.214844 130.914062 122.054688 131.011719 121.875 131.0625 C 122.105469 131.121094 122.308594 131.238281 122.453125 131.402344 C 122.582031 131.570312 122.652344 131.765625 122.644531 131.964844 C 122.65625 132.253906 122.523438 132.53125 122.28125 132.730469 C 121.71875 133.140625 120.898438 133.140625 120.339844 132.730469 C 120.097656 132.527344 119.96875 132.25 119.976562 131.960938 C 119.964844 131.753906 120.035156 131.550781 120.171875 131.382812 C 120.3125 131.222656 120.511719 131.113281 120.738281 131.066406 Z M 120.476562 131.960938 C 120.476562 132.085938 120.515625 132.210938 120.582031 132.324219 C 120.648438 132.4375 120.753906 132.527344 120.882812 132.589844 C 121.011719 132.652344 121.160156 132.683594 121.308594 132.683594 C 121.527344 132.6875 121.734375 132.613281 121.886719 132.484375 C 122.042969 132.351562 122.125 132.167969 122.117188 131.980469 C 122.121094 131.792969 122.035156 131.613281 121.882812 131.480469 C 121.726562 131.347656 121.519531 131.273438 121.304688 131.273438 C 121.085938 131.269531 120.875 131.34375 120.722656 131.476562 C 120.570312 131.609375 120.484375 131.792969 120.488281 131.980469 Z M 120.640625 130.335938 C 120.632812 130.488281 120.703125 130.632812 120.824219 130.742188 C 120.953125 130.851562 121.128906 130.910156 121.308594 130.902344 C 121.484375 130.90625 121.652344 130.851562 121.777344 130.746094 C 122.027344 130.53125 122.027344 130.175781 121.777344 129.960938 C 121.65625 129.851562 121.484375 129.792969 121.308594 129.796875 C 121.132812 129.792969 120.964844 129.847656 120.835938 129.953125 C 120.710938 130.050781 120.636719 130.191406 120.640625 130.335938 Z M 120.640625 130.335938 "/>
<path style="fill-rule:nonzero;fill:rgb(100%,100%,100%);fill-opacity:1;stroke-width:0.81;stroke-linecap:butt;stroke-linejoin:miter;stroke:rgb(0%,0%,0%);stroke-opacity:1;stroke-miterlimit:10;" d="M 199.118835 271.316609 C 199.118835 273.325266 197.496229 274.952433 195.488253 274.952433 C 193.487039 274.952433 191.857671 273.325266 191.857671 271.316609 C 191.857671 269.315737 193.487039 267.688569 195.488253 267.688569 C 197.496229 267.688569 199.118835 269.315737 199.118835 271.316609 Z M 199.118835 271.316609 " transform="matrix(0.577774,0,0,0.501735,0.098822,0)"/>
<path style="fill-rule:nonzero;fill:rgb(100%,100%,100%);fill-opacity:1;stroke-width:0.61;stroke-linecap:butt;stroke-linejoin:miter;stroke:rgb(0%,0%,0%);stroke-opacity:1;stroke-miterlimit:10;" d="M 190.573108 286.077901 C 190.573108 291.878093 185.867549 296.58053 180.066731 296.58053 C 174.272674 296.58053 169.567115 291.878093 169.567115 286.077901 C 169.567115 280.27771 174.272674 275.583058 180.066731 275.583058 C 185.867549 275.583058 190.573108 280.27771 190.573108 286.077901 Z M 190.573108 286.077901 " transform="matrix(0.577774,0,0,0.501735,0.098822,0)"/>
<path style=" stroke:none;fill-rule:nonzero;fill:rgb(0%,0%,0%);fill-opacity:1;" d="M 102.746094 144.542969 L 103.21875 144.507812 C 103.246094 144.671875 103.328125 144.820312 103.457031 144.9375 C 103.578125 145.023438 103.734375 145.070312 103.894531 145.066406 C 104.039062 145.070312 104.175781 145.039062 104.300781 144.976562 C 104.417969 144.914062 104.511719 144.832031 104.582031 144.730469 C 104.667969 144.601562 104.730469 144.464844 104.769531 144.320312 C 104.816406 144.144531 104.839844 143.96875 104.84375 143.792969 C 104.847656 143.761719 104.847656 143.730469 104.84375 143.703125 C 104.652344 143.964844 104.332031 144.136719 103.976562 144.164062 C 103.621094 144.195312 103.269531 144.078125 103.023438 143.851562 C 102.550781 143.359375 102.550781 142.644531 103.023438 142.152344 C 103.257812 141.933594 103.59375 141.816406 103.9375 141.824219 C 104.195312 141.8125 104.453125 141.871094 104.675781 141.992188 C 104.894531 142.109375 105.070312 142.285156 105.171875 142.492188 C 105.308594 142.8125 105.367188 143.15625 105.347656 143.496094 C 105.359375 143.863281 105.300781 144.226562 105.171875 144.574219 C 105.082031 144.816406 104.90625 145.03125 104.671875 145.183594 C 104.445312 145.324219 104.167969 145.398438 103.890625 145.394531 C 103.605469 145.402344 103.328125 145.320312 103.109375 145.160156 C 102.90625 145.003906 102.777344 144.78125 102.746094 144.542969 Z M 104.785156 142.996094 C 104.800781 142.777344 104.71875 142.566406 104.554688 142.402344 C 104.417969 142.261719 104.21875 142.179688 104.003906 142.179688 C 103.78125 142.183594 103.570312 142.269531 103.429688 142.417969 C 103.257812 142.585938 103.167969 142.804688 103.179688 143.03125 C 103.171875 143.230469 103.257812 143.429688 103.417969 143.578125 C 103.566406 143.714844 103.777344 143.792969 103.996094 143.785156 C 104.214844 143.796875 104.425781 143.71875 104.570312 143.578125 C 104.726562 143.414062 104.804688 143.203125 104.785156 142.996094 Z M 104.785156 142.996094 "/>
<path style="fill-rule:nonzero;fill:rgb(100%,100%,100%);fill-opacity:1;stroke-width:0.81;stroke-linecap:butt;stroke-linejoin:miter;stroke:rgb(0%,0%,0%);stroke-opacity:1;stroke-miterlimit:10;" d="M 191.188346 269.82958 C 191.188346 271.838237 189.56574 273.457619 187.557764 273.457619 C 185.55655 273.457619 183.927182 271.838237 183.927182 269.82958 C 183.927182 267.828708 185.55655 266.201541 187.557764 266.201541 C 189.56574 266.201541 191.188346 267.828708 191.188346 269.82958 Z M 191.188346 269.82958 " transform="matrix(0.577774,0,0,0.501735,0.098822,0)"/>
<path style="fill-rule:nonzero;fill:rgb(100%,100%,100%);fill-opacity:1;stroke-width:0.61;stroke-linecap:butt;stroke-linejoin:miter;stroke:rgb(0%,0%,0%);stroke-opacity:1;stroke-miterlimit:10;" d="M 192.168671 250.287995 C 192.168671 256.088186 187.469873 260.790624 181.669055 260.790624 C 175.868237 260.790624 171.169439 256.088186 171.169439 250.287995 C 171.169439 244.487803 175.868237 239.793152 181.669055 239.793152 C 187.469873 239.793152 192.168671 244.487803 192.168671 250.287995 Z M 192.168671 250.287995 " transform="matrix(0.577774,0,0,0.501735,0.098822,0)"/>
<path style=" stroke:none;fill-rule:nonzero;fill:rgb(0%,0%,0%);fill-opacity:1;" d="M 103.773438 127.410156 L 103.277344 127.410156 L 103.277344 124.652344 C 103.132812 124.765625 102.972656 124.867188 102.804688 124.953125 C 102.636719 125.039062 102.460938 125.113281 102.277344 125.171875 L 102.277344 124.757812 C 102.542969 124.652344 102.792969 124.511719 103.011719 124.34375 C 103.191406 124.210938 103.339844 124.050781 103.449219 123.875 L 103.773438 123.875 Z M 103.773438 127.410156 "/>
<path style=" stroke:none;fill-rule:nonzero;fill:rgb(0%,0%,0%);fill-opacity:1;" d="M 105.050781 125.675781 C 105.039062 125.335938 105.089844 124.996094 105.203125 124.671875 C 105.28125 124.441406 105.433594 124.238281 105.640625 124.082031 C 106.023438 123.847656 106.527344 123.8125 106.945312 123.992188 C 107.113281 124.070312 107.253906 124.183594 107.355469 124.320312 C 107.46875 124.476562 107.550781 124.644531 107.605469 124.820312 C 107.675781 125.09375 107.707031 125.375 107.699219 125.65625 C 107.710938 125.992188 107.664062 126.332031 107.554688 126.65625 C 107.472656 126.886719 107.320312 127.089844 107.113281 127.25 C 106.902344 127.390625 106.640625 127.464844 106.375 127.457031 C 106.015625 127.46875 105.671875 127.332031 105.449219 127.089844 C 105.144531 126.667969 105.003906 126.171875 105.050781 125.675781 Z M 105.566406 125.675781 C 105.523438 126.070312 105.601562 126.46875 105.796875 126.828125 C 105.917969 127.007812 106.136719 127.117188 106.375 127.117188 C 106.613281 127.117188 106.832031 127.007812 106.953125 126.828125 C 107.261719 126.082031 107.261719 125.261719 106.953125 124.515625 C 106.828125 124.339844 106.609375 124.234375 106.375 124.230469 C 106.144531 124.214844 105.921875 124.316406 105.796875 124.484375 C 105.59375 124.855469 105.515625 125.265625 105.566406 125.675781 Z M 105.566406 125.675781 "/>
<path style="fill-rule:nonzero;fill:rgb(100%,100%,100%);fill-opacity:1;stroke-width:0.81;stroke-linecap:butt;stroke-linejoin:miter;stroke:rgb(0%,0%,0%);stroke-opacity:1;stroke-miterlimit:10;" d="M 182.642619 266.676456 C 182.642619 268.685112 181.013252 270.31228 179.012037 270.31228 C 177.004062 270.31228 175.381455 268.685112 175.381455 266.676456 C 175.381455 264.675584 177.004062 263.048416 179.012037 263.048416 C 181.013252 263.048416 182.642619 264.675584 182.642619 266.676456 Z M 182.642619 266.676456 " transform="matrix(0.577774,0,0,0.501735,0.098822,0)"/>
<path style="fill-rule:nonzero;fill:rgb(100%,100%,100%);fill-opacity:1;stroke-width:0.61;stroke-linecap:butt;stroke-linejoin:miter;stroke:rgb(0%,0%,0%);stroke-opacity:1;stroke-miterlimit:10;" d="M 159.520477 274.679941 C 159.520477 280.480133 154.82168 285.18257 149.020862 285.18257 C 143.220044 285.18257 138.521246 280.480133 138.521246 274.679941 C 138.521246 268.87975 143.220044 264.177313 149.020862 264.177313 C 154.82168 264.177313 159.520477 268.87975 159.520477 274.679941 Z M 159.520477 274.679941 " transform="matrix(0.577774,0,0,0.501735,0.098822,0)"/>
<path style=" stroke:none;fill-rule:nonzero;fill:rgb(0%,0%,0%);fill-opacity:1;" d="M 84.910156 139.648438 L 84.414062 139.648438 L 84.414062 136.886719 C 84.269531 137.003906 84.109375 137.101562 83.941406 137.183594 C 83.773438 137.273438 83.597656 137.347656 83.414062 137.410156 L 83.414062 136.972656 C 83.679688 136.867188 83.929688 136.726562 84.148438 136.558594 C 84.328125 136.425781 84.480469 136.265625 84.59375 136.085938 L 84.910156 136.085938 Z M 84.910156 139.648438 "/>
<path style=" stroke:none;fill-rule:nonzero;fill:rgb(0%,0%,0%);fill-opacity:1;" d="M 87.644531 139.648438 L 87.144531 139.648438 L 87.144531 136.886719 C 87.003906 137.003906 86.84375 137.101562 86.671875 137.183594 C 86.503906 137.273438 86.328125 137.347656 86.148438 137.410156 L 86.148438 136.972656 C 86.414062 136.867188 86.660156 136.726562 86.878906 136.558594 C 87.0625 136.425781 87.214844 136.265625 87.324219 136.085938 L 87.644531 136.085938 Z M 87.644531 139.648438 "/>
<path style="fill-rule:nonzero;fill:rgb(100%,100%,100%);fill-opacity:1;stroke-width:0.81;stroke-linecap:butt;stroke-linejoin:miter;stroke:rgb(0%,0%,0%);stroke-opacity:1;stroke-miterlimit:10;" d="M 169.938963 266.653099 C 169.938963 268.65397 168.316356 270.281138 166.308381 270.281138 C 164.307166 270.281138 162.677799 268.65397 162.677799 266.653099 C 162.677799 264.644442 164.307166 263.017274 166.308381 263.017274 C 168.316356 263.017274 169.938963 264.644442 169.938963 266.653099 Z M 169.938963 266.653099 " transform="matrix(0.577774,0,0,0.501735,0.098822,0)"/>
<path style="fill-rule:nonzero;fill:rgb(100%,100%,100%);fill-opacity:1;stroke-width:0.61;stroke-linecap:butt;stroke-linejoin:miter;stroke:rgb(0%,0%,0%);stroke-opacity:1;stroke-miterlimit:10;" d="M 156.376677 232.326865 C 156.376677 238.127057 151.67788 242.829494 145.877062 242.829494 C 140.083004 242.829494 135.377446 238.127057 135.377446 232.326865 C 135.377446 226.534459 140.083004 221.832022 145.877062 221.832022 C 151.67788 221.832022 156.376677 226.534459 156.376677 232.326865 Z M 156.376677 232.326865 " transform="matrix(0.577774,0,0,0.501735,0.098822,0)"/>
<path style=" stroke:none;fill-rule:nonzero;fill:rgb(0%,0%,0%);fill-opacity:1;" d="M 83.097656 118.410156 L 82.597656 118.410156 L 82.597656 115.65625 C 82.453125 115.769531 82.296875 115.867188 82.125 115.949219 C 81.957031 116.039062 81.78125 116.117188 81.601562 116.175781 L 81.601562 115.753906 C 81.867188 115.652344 82.113281 115.511719 82.332031 115.34375 C 82.515625 115.210938 82.664062 115.050781 82.777344 114.871094 L 83.097656 114.871094 Z M 83.097656 118.410156 "/>
<path style=" stroke:none;fill-rule:nonzero;fill:rgb(0%,0%,0%);fill-opacity:1;" d="M 86.992188 117.976562 L 86.992188 118.410156 L 84.308594 118.410156 C 84.304688 118.308594 84.324219 118.203125 84.367188 118.109375 C 84.445312 117.9375 84.558594 117.78125 84.695312 117.640625 C 84.894531 117.449219 85.113281 117.269531 85.347656 117.109375 C 85.675781 116.886719 85.976562 116.636719 86.246094 116.363281 C 86.378906 116.21875 86.457031 116.042969 86.476562 115.859375 C 86.480469 115.695312 86.402344 115.539062 86.261719 115.429688 C 86.117188 115.304688 85.917969 115.242188 85.714844 115.25 C 85.5 115.238281 85.289062 115.308594 85.136719 115.4375 C 84.988281 115.574219 84.910156 115.753906 84.917969 115.941406 L 84.402344 115.894531 C 84.414062 115.605469 84.558594 115.335938 84.800781 115.136719 C 85.058594 114.953125 85.386719 114.863281 85.71875 114.878906 C 86.058594 114.863281 86.390625 114.960938 86.644531 115.15625 C 86.867188 115.335938 86.992188 115.589844 86.984375 115.855469 C 86.988281 116 86.953125 116.140625 86.886719 116.273438 C 86.804688 116.429688 86.695312 116.578125 86.558594 116.703125 C 86.316406 116.921875 86.058594 117.128906 85.789062 117.320312 C 85.488281 117.542969 85.296875 117.6875 85.210938 117.765625 C 85.132812 117.835938 85.0625 117.914062 85.003906 117.996094 Z M 86.992188 117.976562 "/>
<path style="fill-rule:nonzero;fill:rgb(100%,100%,100%);fill-opacity:1;stroke-width:0.81;stroke-linecap:butt;stroke-linejoin:miter;stroke:rgb(0%,0%,0%);stroke-opacity:1;stroke-miterlimit:10;" d="M 160.210085 248.131414 C 160.210085 250.132285 158.587479 251.759453 156.579503 251.759453 C 154.578289 251.759453 152.948921 250.132285 152.948921 248.131414 C 152.948921 246.122757 154.578289 244.503374 156.579503 244.503374 C 158.587479 244.503374 160.210085 246.122757 160.210085 248.131414 Z M 160.210085 248.131414 " transform="matrix(0.577774,0,0,0.501735,0.098822,0)"/>
<path style="fill-rule:nonzero;fill:rgb(100%,100%,100%);fill-opacity:1;stroke-width:0.61;stroke-linecap:butt;stroke-linejoin:miter;stroke:rgb(0%,0%,0%);stroke-opacity:1;stroke-miterlimit:10;" d="M 45.552658 288.530331 C 45.552658 294.330523 40.847099 299.03296 35.053042 299.03296 C 29.252224 299.03296 24.546665 294.330523 24.546665 288.530331 C 24.546665 282.73014 29.252224 278.027703 35.053042 278.027703 C 40.847099 278.027703 45.552658 282.73014 45.552658 288.530331 Z M 45.552658 288.530331 " transform="matrix(0.577774,0,0,0.501735,0.098822,0)"/>
<path style=" stroke:none;fill-rule:nonzero;fill:rgb(0%,0%,0%);fill-opacity:1;" d="M 19.054688 146.589844 L 18.585938 146.589844 L 18.585938 143.835938 C 18.441406 143.949219 18.285156 144.050781 18.113281 144.132812 C 17.949219 144.222656 17.773438 144.296875 17.59375 144.359375 L 17.59375 143.9375 C 17.859375 143.832031 18.105469 143.695312 18.320312 143.527344 C 18.503906 143.394531 18.652344 143.234375 18.765625 143.054688 L 19.085938 143.054688 Z M 19.054688 146.589844 "/>
<path style=" stroke:none;fill-rule:nonzero;fill:rgb(0%,0%,0%);fill-opacity:1;" d="M 20.320312 145.664062 L 20.816406 145.601562 C 20.851562 145.800781 20.953125 145.988281 21.105469 146.136719 C 21.242188 146.242188 21.425781 146.300781 21.609375 146.296875 C 21.828125 146.296875 22.035156 146.21875 22.1875 146.085938 C 22.339844 145.953125 22.429688 145.773438 22.429688 145.582031 C 22.441406 145.394531 22.359375 145.210938 22.203125 145.082031 C 22.050781 144.949219 21.84375 144.878906 21.625 144.886719 C 21.507812 144.886719 21.386719 144.90625 21.273438 144.9375 L 21.328125 144.554688 L 21.476562 144.554688 C 21.679688 144.558594 21.882812 144.507812 22.054688 144.410156 C 22.222656 144.3125 22.324219 144.144531 22.3125 143.96875 C 22.324219 143.816406 22.253906 143.671875 22.125 143.570312 C 21.851562 143.359375 21.4375 143.359375 21.164062 143.570312 C 21.019531 143.699219 20.933594 143.867188 20.917969 144.042969 L 20.414062 143.96875 C 20.457031 143.707031 20.605469 143.472656 20.828125 143.296875 C 21.054688 143.132812 21.34375 143.046875 21.636719 143.054688 C 21.851562 143.050781 22.0625 143.09375 22.25 143.179688 C 22.40625 143.253906 22.539062 143.363281 22.632812 143.496094 C 22.726562 143.632812 22.777344 143.792969 22.777344 143.953125 C 22.777344 144.097656 22.730469 144.242188 22.636719 144.363281 C 22.53125 144.496094 22.386719 144.601562 22.214844 144.664062 C 22.445312 144.699219 22.652344 144.804688 22.792969 144.960938 C 22.933594 145.128906 23.003906 145.328125 22.996094 145.53125 C 23 145.828125 22.859375 146.113281 22.609375 146.316406 C 22.34375 146.53125 21.988281 146.644531 21.625 146.636719 C 21.300781 146.644531 20.984375 146.546875 20.738281 146.359375 C 20.5 146.183594 20.351562 145.933594 20.320312 145.664062 Z M 20.320312 145.664062 "/>
<path style="fill-rule:nonzero;fill:rgb(100%,100%,100%);fill-opacity:1;stroke-width:0.81;stroke-linecap:butt;stroke-linejoin:miter;stroke:rgb(0%,0%,0%);stroke-opacity:1;stroke-miterlimit:10;" d="M 54.220081 298.931749 C 54.220081 300.93262 52.597474 302.559788 50.589499 302.559788 C 48.588284 302.559788 46.958917 300.93262 46.958917 298.931749 C 46.958917 296.923092 48.588284 295.303709 50.589499 295.303709 C 52.597474 295.303709 54.220081 296.923092 54.220081 298.931749 Z M 54.220081 298.931749 " transform="matrix(0.577774,0,0,0.501735,0.098822,0)"/>
<path style="fill-rule:nonzero;fill:rgb(100%,100%,100%);fill-opacity:1;stroke-width:0.61;stroke-linecap:butt;stroke-linejoin:miter;stroke:rgb(0%,0%,0%);stroke-opacity:1;stroke-miterlimit:10;" d="M 20.997214 359.681942 C 20.997214 365.482134 16.298416 370.176785 10.497598 370.176785 C 4.703541 370.176785 -0.00201771 365.482134 -0.00201771 359.681942 C -0.00201771 353.881751 4.703541 349.179314 10.497598 349.179314 C 16.298416 349.179314 20.997214 353.881751 20.997214 359.681942 Z M 20.997214 359.681942 " transform="matrix(0.577774,0,0,0.501735,0.098822,0)"/>
<path style=" stroke:none;fill-rule:nonzero;fill:rgb(0%,0%,0%);fill-opacity:1;" d="M 4.871094 182.296875 L 4.375 182.296875 L 4.375 179.535156 C 4.230469 179.652344 4.070312 179.753906 3.902344 179.835938 C 3.730469 179.921875 3.554688 179.996094 3.375 180.058594 L 3.375 179.621094 C 3.640625 179.515625 3.890625 179.375 4.109375 179.203125 C 4.289062 179.074219 4.4375 178.914062 4.546875 178.734375 L 4.871094 178.734375 Z M 4.871094 182.296875 "/>
<path style=" stroke:none;fill-rule:nonzero;fill:rgb(0%,0%,0%);fill-opacity:1;" d="M 7.742188 182.296875 L 7.742188 181.453125 L 6.007812 181.453125 L 6.007812 181.050781 L 7.859375 178.769531 L 8.269531 178.769531 L 8.269531 181.050781 L 8.847656 181.050781 L 8.847656 181.453125 L 8.269531 181.453125 L 8.269531 182.296875 Z M 7.742188 181.050781 L 7.742188 179.464844 L 6.453125 181.050781 Z M 7.742188 181.050781 "/>
<path style="fill-rule:nonzero;fill:rgb(100%,100%,100%);fill-opacity:1;stroke-width:0.81;stroke-linecap:butt;stroke-linejoin:miter;stroke:rgb(0%,0%,0%);stroke-opacity:1;stroke-miterlimit:10;" d="M 32.619132 360.919836 C 32.619132 362.928492 30.996526 364.547875 28.988551 364.547875 C 26.987336 364.547875 25.357969 362.928492 25.357969 360.919836 C 25.357969 358.918964 26.987336 357.291796 28.988551 357.291796 C 30.996526 357.291796 32.619132 358.918964 32.619132 360.919836 Z M 32.619132 360.919836 " transform="matrix(0.577774,0,0,0.501735,0.098822,0)"/>
<path style="fill-rule:nonzero;fill:rgb(100%,100%,100%);fill-opacity:1;stroke-width:0.61;stroke-linecap:butt;stroke-linejoin:miter;stroke:rgb(0%,0%,0%);stroke-opacity:1;stroke-miterlimit:10;" d="M 60.568528 423.912251 C 60.568528 429.712442 55.86973 434.407094 50.068912 434.407094 C 44.268094 434.407094 39.569297 429.712442 39.569297 423.912251 C 39.569297 418.112059 44.268094 413.409622 50.068912 413.409622 C 55.86973 413.409622 60.568528 418.112059 60.568528 423.912251 Z M 60.568528 423.912251 " transform="matrix(0.577774,0,0,0.501735,0.098822,0)"/>
<path style=" stroke:none;fill-rule:nonzero;fill:rgb(0%,0%,0%);fill-opacity:1;" d="M 27.738281 214.515625 L 27.253906 214.515625 L 27.253906 211.761719 C 27.113281 211.875 26.953125 211.976562 26.785156 212.058594 C 26.617188 212.144531 26.441406 212.222656 26.261719 212.285156 L 26.261719 211.863281 C 26.523438 211.757812 26.769531 211.617188 26.988281 211.449219 C 27.171875 211.320312 27.320312 211.160156 27.433594 210.980469 L 27.757812 210.980469 Z M 27.738281 214.515625 "/>
<path style=" stroke:none;fill-rule:nonzero;fill:rgb(0%,0%,0%);fill-opacity:1;" d="M 29.015625 213.59375 L 29.535156 213.558594 C 29.554688 213.75 29.652344 213.925781 29.808594 214.058594 C 29.945312 214.167969 30.128906 214.230469 30.316406 214.226562 C 30.550781 214.230469 30.773438 214.144531 30.929688 213.996094 C 31.097656 213.820312 31.1875 213.597656 31.175781 213.367188 C 31.191406 213.152344 31.101562 212.941406 30.933594 212.78125 C 30.648438 212.550781 30.222656 212.503906 29.878906 212.664062 C 29.753906 212.722656 29.644531 212.808594 29.570312 212.910156 L 29.101562 212.855469 L 29.496094 211.050781 L 31.511719 211.050781 L 31.511719 211.460938 L 29.894531 211.460938 L 29.675781 212.410156 C 29.898438 212.265625 30.167969 212.1875 30.445312 212.1875 C 30.78125 212.183594 31.101562 212.296875 31.339844 212.503906 C 31.585938 212.722656 31.714844 213.023438 31.703125 213.328125 C 31.710938 213.628906 31.601562 213.921875 31.386719 214.15625 C 30.882812 214.65625 30.015625 214.726562 29.414062 214.316406 C 29.171875 214.132812 29.027344 213.871094 29.015625 213.59375 Z M 29.015625 213.59375 "/>
<path style="fill-rule:nonzero;fill:rgb(100%,100%,100%);fill-opacity:1;stroke-width:0.81;stroke-linecap:butt;stroke-linejoin:miter;stroke:rgb(0%,0%,0%);stroke-opacity:1;stroke-miterlimit:10;" d="M 35.161216 435.419208 C 35.161216 437.427865 33.531849 439.047247 31.530634 439.047247 C 29.522659 439.047247 27.900052 437.427865 27.900052 435.419208 C 27.900052 433.418336 29.522659 431.791169 31.530634 431.791169 C 33.531849 431.791169 35.161216 433.418336 35.161216 435.419208 Z M 35.161216 435.419208 " transform="matrix(0.577774,0,0,0.501735,0.098822,0)"/>
<path style="fill-rule:nonzero;fill:rgb(100%,100%,100%);fill-opacity:1;stroke-width:0.61;stroke-linecap:butt;stroke-linejoin:miter;stroke:rgb(0%,0%,0%);stroke-opacity:1;stroke-miterlimit:10;" d="M 153.510073 499.431523 C 153.510073 505.231714 148.811275 509.926366 143.010457 509.926366 C 137.209639 509.926366 132.510841 505.231714 132.510841 499.431523 C 132.510841 493.631331 137.209639 488.928894 143.010457 488.928894 C 148.811275 488.928894 153.510073 493.631331 153.510073 499.431523 Z M 153.510073 499.431523 " transform="matrix(0.577774,0,0,0.501735,0.098822,0)"/>
<path style=" stroke:none;fill-rule:nonzero;fill:rgb(0%,0%,0%);fill-opacity:1;" d="M 81.4375 252.414062 L 80.933594 252.414062 L 80.933594 249.652344 C 80.792969 249.769531 80.636719 249.867188 80.46875 249.949219 C 80.300781 250.039062 80.125 250.113281 79.941406 250.175781 L 79.941406 249.757812 C 80.207031 249.648438 80.449219 249.507812 80.667969 249.34375 C 80.851562 249.210938 81.003906 249.050781 81.113281 248.871094 L 81.4375 248.871094 Z M 81.4375 252.414062 "/>
<path style=" stroke:none;fill-rule:nonzero;fill:rgb(0%,0%,0%);fill-opacity:1;" d="M 85.296875 249.75 L 84.800781 249.785156 C 84.777344 249.648438 84.714844 249.519531 84.617188 249.414062 C 84.488281 249.289062 84.304688 249.222656 84.113281 249.226562 C 83.964844 249.226562 83.816406 249.265625 83.695312 249.34375 C 83.53125 249.457031 83.402344 249.605469 83.328125 249.777344 C 83.222656 250.039062 83.175781 250.316406 83.1875 250.589844 C 83.296875 250.441406 83.449219 250.320312 83.628906 250.238281 C 83.796875 250.164062 83.980469 250.125 84.171875 250.125 C 84.492188 250.121094 84.800781 250.238281 85.019531 250.441406 C 85.257812 250.664062 85.382812 250.960938 85.371094 251.261719 C 85.375 251.476562 85.316406 251.691406 85.203125 251.878906 C 85.105469 252.0625 84.949219 252.210938 84.753906 252.316406 C 84.558594 252.417969 84.332031 252.472656 84.101562 252.472656 C 83.710938 252.480469 83.335938 252.332031 83.085938 252.070312 C 82.78125 251.6875 82.644531 251.226562 82.691406 250.761719 C 82.636719 250.230469 82.789062 249.703125 83.125 249.257812 C 83.371094 248.988281 83.753906 248.839844 84.148438 248.851562 C 84.433594 248.839844 84.714844 248.925781 84.933594 249.085938 C 85.148438 249.257812 85.277344 249.496094 85.296875 249.75 Z M 83.261719 251.253906 C 83.261719 251.402344 83.300781 251.546875 83.375 251.679688 C 83.4375 251.808594 83.542969 251.917969 83.679688 251.992188 C 83.800781 252.0625 83.941406 252.101562 84.089844 252.101562 C 84.300781 252.101562 84.5 252.019531 84.632812 251.878906 C 84.789062 251.710938 84.871094 251.496094 84.859375 251.277344 C 84.871094 251.070312 84.792969 250.863281 84.640625 250.703125 C 84.492188 250.5625 84.28125 250.484375 84.0625 250.492188 C 83.84375 250.484375 83.632812 250.5625 83.484375 250.703125 C 83.324219 250.855469 83.246094 251.0625 83.261719 251.269531 Z M 83.261719 251.253906 "/>
<path style="fill-rule:nonzero;fill:rgb(100%,100%,100%);fill-opacity:1;stroke-width:0.81;stroke-linecap:butt;stroke-linejoin:miter;stroke:rgb(0%,0%,0%);stroke-opacity:1;stroke-miterlimit:10;" d="M 136.973009 482.786141 C 136.973009 484.794798 135.343641 486.421966 133.342427 486.421966 C 131.334451 486.421966 129.711845 484.794798 129.711845 482.786141 C 129.711845 480.785269 131.334451 479.158102 133.342427 479.158102 C 135.343641 479.158102 136.973009 480.785269 136.973009 482.786141 Z M 136.973009 482.786141 " transform="matrix(0.577774,0,0,0.501735,0.098822,0)"/>
<path style="fill-rule:nonzero;fill:rgb(100%,100%,100%);fill-opacity:1;stroke-width:0.61;stroke-linecap:butt;stroke-linejoin:miter;stroke:rgb(0%,0%,0%);stroke-opacity:1;stroke-miterlimit:10;" d="M 186.178549 437.490149 C 186.178549 443.29034 181.479751 447.992777 175.678933 447.992777 C 169.878115 447.992777 165.179317 443.29034 165.179317 437.490149 C 165.179317 431.689957 169.878115 426.98752 175.678933 426.98752 C 181.479751 426.98752 186.178549 431.689957 186.178549 437.490149 Z M 186.178549 437.490149 " transform="matrix(0.577774,0,0,0.501735,0.098822,0)"/>
<path style=" stroke:none;fill-rule:nonzero;fill:rgb(0%,0%,0%);fill-opacity:1;" d="M 100.308594 221.335938 L 99.8125 221.335938 L 99.8125 218.574219 C 99.667969 218.691406 99.507812 218.789062 99.335938 218.871094 C 99.171875 218.960938 99 219.035156 98.816406 219.097656 L 98.816406 218.675781 C 99.082031 218.570312 99.328125 218.433594 99.546875 218.265625 C 99.726562 218.132812 99.878906 217.972656 99.988281 217.792969 L 100.308594 217.792969 Z M 100.308594 221.335938 "/>
<path style=" stroke:none;fill-rule:nonzero;fill:rgb(0%,0%,0%);fill-opacity:1;" d="M 101.621094 218.253906 L 101.621094 217.839844 L 104.25 217.839844 L 104.25 218.175781 C 103.949219 218.464844 103.691406 218.785156 103.480469 219.128906 C 103.234375 219.511719 103.042969 219.921875 102.902344 220.347656 C 102.800781 220.664062 102.734375 220.992188 102.710938 221.320312 L 102.199219 221.320312 C 102.214844 220.980469 102.277344 220.644531 102.386719 220.316406 C 102.507812 219.921875 102.679688 219.542969 102.902344 219.183594 C 103.097656 218.851562 103.339844 218.542969 103.617188 218.257812 Z M 101.621094 218.253906 "/>
<path style="fill-rule:nonzero;fill:rgb(100%,100%,100%);fill-opacity:1;stroke-width:0.81;stroke-linecap:butt;stroke-linejoin:miter;stroke:rgb(0%,0%,0%);stroke-opacity:1;stroke-miterlimit:10;" d="M 165.091426 426.006548 C 165.091426 428.015205 163.462059 429.642373 161.460844 429.642373 C 159.452869 429.642373 157.830262 428.015205 157.830262 426.006548 C 157.830262 424.005677 159.452869 422.378509 161.460844 422.378509 C 163.462059 422.378509 165.091426 424.005677 165.091426 426.006548 Z M 165.091426 426.006548 " transform="matrix(0.577774,0,0,0.501735,0.098822,0)"/>
<path style="fill-rule:nonzero;fill:rgb(100%,100%,100%);fill-opacity:1;stroke-width:0.61;stroke-linecap:butt;stroke-linejoin:miter;stroke:rgb(0%,0%,0%);stroke-opacity:1;stroke-miterlimit:10;" d="M 207.238628 369.188028 C 207.238628 374.988219 202.53983 379.690657 196.739012 379.690657 C 190.938194 379.690657 186.239397 374.988219 186.239397 369.188028 C 186.239397 363.387836 190.938194 358.693185 196.739012 358.693185 C 202.53983 358.693185 207.238628 363.387836 207.238628 369.188028 Z M 207.238628 369.188028 " transform="matrix(0.577774,0,0,0.501735,0.098822,0)"/>
<path style=" stroke:none;fill-rule:nonzero;fill:rgb(0%,0%,0%);fill-opacity:1;" d="M 112.476562 187.066406 L 111.980469 187.066406 L 111.980469 184.308594 C 111.835938 184.421875 111.675781 184.523438 111.503906 184.601562 C 111.339844 184.691406 111.164062 184.765625 110.984375 184.828125 L 110.984375 184.414062 C 111.25 184.304688 111.496094 184.164062 111.714844 183.996094 C 111.894531 183.867188 112.046875 183.707031 112.15625 183.523438 L 112.476562 183.523438 Z M 112.476562 187.066406 "/>
<path style=" stroke:none;fill-rule:nonzero;fill:rgb(0%,0%,0%);fill-opacity:1;" d="M 114.5 185.140625 C 114.316406 185.089844 114.152344 184.992188 114.035156 184.859375 C 113.9375 184.726562 113.886719 184.574219 113.890625 184.417969 C 113.882812 184.171875 114 183.9375 114.210938 183.773438 C 114.699219 183.417969 115.417969 183.417969 115.90625 183.773438 C 116.121094 183.941406 116.238281 184.179688 116.230469 184.425781 C 116.234375 184.578125 116.183594 184.730469 116.085938 184.855469 C 115.972656 184.984375 115.816406 185.082031 115.636719 185.136719 C 116.101562 185.246094 116.417969 185.621094 116.398438 186.039062 C 116.40625 186.324219 116.273438 186.601562 116.027344 186.796875 C 115.472656 187.210938 114.648438 187.210938 114.09375 186.796875 C 113.847656 186.597656 113.710938 186.316406 113.722656 186.023438 C 113.71875 185.816406 113.789062 185.617188 113.925781 185.449219 C 114.070312 185.292969 114.269531 185.183594 114.5 185.140625 Z M 114.238281 186.03125 C 114.238281 186.15625 114.273438 186.277344 114.335938 186.390625 C 114.402344 186.503906 114.507812 186.597656 114.636719 186.660156 C 114.769531 186.722656 114.917969 186.753906 115.070312 186.753906 C 115.285156 186.757812 115.492188 186.683594 115.648438 186.554688 C 115.800781 186.421875 115.882812 186.242188 115.878906 186.054688 C 115.882812 185.863281 115.796875 185.683594 115.640625 185.550781 C 115.488281 185.421875 115.28125 185.347656 115.0625 185.347656 C 114.847656 185.34375 114.640625 185.414062 114.488281 185.546875 C 114.335938 185.679688 114.253906 185.859375 114.261719 186.046875 Z M 114.398438 184.40625 C 114.390625 184.558594 114.457031 184.707031 114.585938 184.8125 C 114.855469 185.027344 115.269531 185.027344 115.539062 184.8125 C 115.660156 184.714844 115.730469 184.574219 115.722656 184.425781 C 115.726562 184.277344 115.65625 184.132812 115.53125 184.03125 C 115.40625 183.921875 115.234375 183.863281 115.058594 183.867188 C 114.882812 183.863281 114.710938 183.917969 114.585938 184.027344 C 114.464844 184.132812 114.40625 184.277344 114.421875 184.421875 Z M 114.398438 184.40625 "/>
<path style="fill-rule:nonzero;fill:rgb(100%,100%,100%);fill-opacity:1;stroke-width:0.81;stroke-linecap:butt;stroke-linejoin:miter;stroke:rgb(0%,0%,0%);stroke-opacity:1;stroke-miterlimit:10;" d="M 216.081833 377.222656 C 216.081833 379.223527 214.452466 380.850695 212.451251 380.850695 C 210.443276 380.850695 208.820669 379.223527 208.820669 377.222656 C 208.820669 375.213999 210.443276 373.586831 212.451251 373.586831 C 214.452466 373.586831 216.081833 375.213999 216.081833 377.222656 Z M 216.081833 377.222656 " transform="matrix(0.577774,0,0,0.501735,0.098822,0)"/>
<path style="fill-rule:nonzero;fill:rgb(100%,100%,100%);fill-opacity:1;stroke-width:0.61;stroke-linecap:butt;stroke-linejoin:miter;stroke:rgb(0%,0%,0%);stroke-opacity:1;stroke-miterlimit:10;" d="M 252.739217 344.508018 C 252.739217 350.30821 248.040419 355.010647 242.239601 355.010647 C 236.438783 355.010647 231.739985 350.30821 231.739985 344.508018 C 231.739985 338.707827 236.438783 334.013175 242.239601 334.013175 C 248.040419 334.013175 252.739217 338.707827 252.739217 344.508018 Z M 252.739217 344.508018 " transform="matrix(0.577774,0,0,0.501735,0.098822,0)"/>
<path style=" stroke:none;fill-rule:nonzero;fill:rgb(0%,0%,0%);fill-opacity:1;" d="M 138.765625 174.683594 L 138.261719 174.683594 L 138.261719 171.925781 C 138.121094 172.039062 137.964844 172.140625 137.792969 172.21875 C 137.625 172.308594 137.449219 172.382812 137.269531 172.445312 L 137.269531 172.03125 C 137.53125 171.921875 137.777344 171.78125 137.996094 171.613281 C 138.179688 171.484375 138.328125 171.324219 138.441406 171.140625 L 138.765625 171.140625 Z M 138.765625 174.683594 "/>
<path style=" stroke:none;fill-rule:nonzero;fill:rgb(0%,0%,0%);fill-opacity:1;" d="M 140.117188 173.867188 L 140.597656 173.832031 C 140.617188 173.992188 140.703125 174.140625 140.832031 174.253906 C 140.953125 174.34375 141.109375 174.394531 141.273438 174.386719 C 141.414062 174.390625 141.554688 174.359375 141.675781 174.292969 C 141.789062 174.230469 141.886719 174.148438 141.960938 174.050781 C 142.042969 173.921875 142.105469 173.785156 142.144531 173.640625 C 142.199219 173.464844 142.226562 173.28125 142.230469 173.097656 C 142.230469 173.097656 142.230469 173.054688 142.230469 173.011719 C 142.019531 173.300781 141.652344 173.472656 141.261719 173.476562 C 140.9375 173.476562 140.632812 173.363281 140.410156 173.160156 C 140.171875 172.933594 140.046875 172.632812 140.066406 172.324219 C 140.046875 172.003906 140.179688 171.691406 140.429688 171.457031 C 140.664062 171.242188 140.992188 171.125 141.335938 171.132812 C 141.59375 171.132812 141.847656 171.195312 142.0625 171.316406 C 142.28125 171.441406 142.453125 171.613281 142.5625 171.820312 C 142.691406 172.140625 142.75 172.480469 142.726562 172.824219 C 142.746094 173.1875 142.6875 173.550781 142.5625 173.894531 C 142.472656 174.140625 142.296875 174.355469 142.058594 174.507812 C 141.832031 174.652344 141.558594 174.726562 141.277344 174.71875 C 140.988281 174.738281 140.703125 174.65625 140.488281 174.492188 C 140.269531 174.324219 140.136719 174.089844 140.121094 173.839844 Z M 142.160156 172.3125 C 142.171875 172.09375 142.089844 171.882812 141.929688 171.71875 C 141.792969 171.578125 141.59375 171.5 141.382812 171.503906 C 141.160156 171.503906 140.945312 171.589844 140.804688 171.738281 C 140.632812 171.90625 140.542969 172.121094 140.554688 172.347656 C 140.546875 172.546875 140.632812 172.746094 140.792969 172.894531 C 140.941406 173.03125 141.152344 173.109375 141.371094 173.101562 C 141.589844 173.109375 141.800781 173.035156 141.949219 172.894531 C 142.101562 172.730469 142.179688 172.519531 142.160156 172.3125 Z M 142.160156 172.3125 "/>
<path style="fill-rule:nonzero;fill:rgb(100%,100%,100%);fill-opacity:1;stroke-width:0.81;stroke-linecap:butt;stroke-linejoin:miter;stroke:rgb(0%,0%,0%);stroke-opacity:1;stroke-miterlimit:10;" d="M 230.002444 335.671485 C 230.002444 337.672357 228.373077 339.299524 226.371862 339.299524 C 224.363887 339.299524 222.74128 337.672357 222.74128 335.671485 C 222.74128 333.662828 224.363887 332.043446 226.371862 332.043446 C 228.373077 332.043446 230.002444 333.662828 230.002444 335.671485 Z M 230.002444 335.671485 " transform="matrix(0.577774,0,0,0.501735,0.098822,0)"/>
<path style="fill-rule:nonzero;fill:rgb(100%,100%,100%);fill-opacity:1;stroke-width:0.61;stroke-linecap:butt;stroke-linejoin:miter;stroke:rgb(0%,0%,0%);stroke-opacity:1;stroke-miterlimit:10;" d="M 349.311343 274.703298 C 349.311343 280.495704 344.605785 285.198141 338.811727 285.198141 C 333.010909 285.198141 328.312112 280.495704 328.312112 274.703298 C 328.312112 268.903106 333.010909 264.200669 338.811727 264.200669 C 344.605785 264.200669 349.311343 268.903106 349.311343 274.703298 Z M 349.311343 274.703298 " transform="matrix(0.577774,0,0,0.501735,0.098822,0)"/>
<path style=" stroke:none;fill-rule:nonzero;fill:rgb(0%,0%,0%);fill-opacity:1;" d="M 195.304688 139.242188 L 195.304688 139.65625 L 192.625 139.65625 C 192.621094 139.554688 192.640625 139.453125 192.683594 139.355469 C 192.761719 139.183594 192.871094 139.023438 193.011719 138.886719 C 193.210938 138.691406 193.425781 138.515625 193.660156 138.351562 C 193.988281 138.132812 194.289062 137.882812 194.554688 137.605469 C 194.691406 137.464844 194.773438 137.289062 194.792969 137.105469 C 194.792969 136.941406 194.714844 136.785156 194.578125 136.671875 C 194.421875 136.546875 194.210938 136.480469 194 136.496094 C 193.785156 136.488281 193.578125 136.554688 193.421875 136.683594 C 193.277344 136.816406 193.195312 137 193.203125 137.183594 L 192.6875 137.140625 C 192.699219 136.847656 192.84375 136.574219 193.085938 136.375 C 193.34375 136.195312 193.671875 136.101562 194.003906 136.117188 C 194.34375 136.101562 194.675781 136.199219 194.929688 136.398438 C 195.152344 136.574219 195.277344 136.828125 195.269531 137.09375 C 195.269531 137.238281 195.234375 137.378906 195.171875 137.511719 C 195.085938 137.667969 194.976562 137.8125 194.84375 137.941406 C 194.601562 138.164062 194.34375 138.371094 194.074219 138.5625 C 193.773438 138.78125 193.582031 138.929688 193.496094 139.003906 C 193.417969 139.078125 193.347656 139.15625 193.289062 139.242188 Z M 195.304688 139.242188 "/>
<path style=" stroke:none;fill-rule:nonzero;fill:rgb(0%,0%,0%);fill-opacity:1;" d="M 195.84375 137.917969 C 195.828125 137.578125 195.878906 137.238281 195.988281 136.914062 C 196.066406 136.683594 196.21875 136.480469 196.425781 136.328125 C 196.636719 136.183594 196.898438 136.109375 197.167969 136.117188 C 197.367188 136.113281 197.566406 136.152344 197.742188 136.230469 C 197.910156 136.308594 198.050781 136.421875 198.148438 136.5625 C 198.261719 136.714844 198.347656 136.886719 198.402344 137.0625 C 198.46875 137.335938 198.5 137.617188 198.496094 137.898438 C 198.507812 138.234375 198.457031 138.574219 198.34375 138.898438 C 198.265625 139.128906 198.113281 139.332031 197.90625 139.488281 C 197.699219 139.632812 197.4375 139.707031 197.171875 139.699219 C 196.816406 139.707031 196.472656 139.570312 196.246094 139.332031 C 195.941406 138.910156 195.800781 138.414062 195.84375 137.917969 Z M 196.351562 137.917969 C 196.308594 138.3125 196.390625 138.710938 196.589844 139.070312 C 196.710938 139.25 196.929688 139.359375 197.167969 139.363281 C 197.402344 139.359375 197.621094 139.246094 197.742188 139.070312 C 198.050781 138.324219 198.050781 137.507812 197.742188 136.761719 C 197.617188 136.589844 197.402344 136.480469 197.167969 136.476562 C 196.945312 136.46875 196.734375 136.566406 196.617188 136.726562 C 196.402344 137.09375 196.3125 137.507812 196.351562 137.917969 Z M 196.351562 137.917969 "/>
<path style="fill-rule:nonzero;fill:rgb(100%,100%,100%);fill-opacity:1;stroke-width:0.81;stroke-linecap:butt;stroke-linejoin:miter;stroke:rgb(0%,0%,0%);stroke-opacity:1;stroke-miterlimit:10;" d="M 330.218674 260.821766 C 330.218674 262.822637 328.596068 264.449805 326.588092 264.449805 C 324.586878 264.449805 322.95751 262.822637 322.95751 260.821766 C 322.95751 258.813109 324.586878 257.193726 326.588092 257.193726 C 328.596068 257.193726 330.218674 258.813109 330.218674 260.821766 Z M 330.218674 260.821766 " transform="matrix(0.577774,0,0,0.501735,0.098822,0)"/>
</g>
</svg>
