<?xml version="1.0" encoding="UTF-8"?>
<svg xmlns="http://www.w3.org/2000/svg" xmlns:xlink="http://www.w3.org/1999/xlink" width="400pt" height="256pt" viewBox="0 0 400 256" version="1.1">
<g id="surface1">
<path style=" stroke:none;fill-rule:nonzero;fill:rgb(0%,0%,0%);fill-opacity:1;" d="M 19.359375 256.28125 C 14.207031 255.460938 10.152344 253.316406 6.425781 249.429688 C -1.464844 241.199219 -2.175781 227.492188 4.777344 217.628906 C 5.945312 215.96875 9.316406 212.261719 12.269531 209.382812 C 16.671875 205.09375 30.546875 191.488281 36.882812 185.242188 L 38.359375 183.789062 L 37.183594 179.664062 C 36.25 176.375 36.011719 174.566406 36.011719 170.695312 C 36.015625 164.921875 36.453125 162.984375 40.410156 151.296875 C 43.75 141.433594 53.210938 112.925781 59.882812 92.625 C 65.378906 75.898438 67.035156 72.121094 70.808594 67.695312 C 74.148438 63.777344 76.984375 61.730469 85.523438 57.085938 L 91.738281 53.703125 L 92.53125 50.375 C 93.640625 45.695312 95.15625 42.375 97.390625 39.742188 C 101.695312 34.671875 105.097656 33.113281 123.421875 27.835938 C 130.398438 25.828125 153.847656 22.183594 170.050781 20.589844 C 177.421875 19.863281 191.9375 20.226562 199.351562 21.320312 C 202.296875 21.757812 211.84375 23.539062 220.5625 25.277344 C 229.28125 27.019531 237.617188 28.671875 239.09375 28.945312 C 243.210938 29.714844 293.117188 28.464844 301.382812 27.382812 C 303.46875 27.113281 306.785156 26.320312 308.75 25.621094 C 311.765625 24.550781 328.285156 17.214844 334.203125 14.316406 C 337.292969 12.800781 362.738281 1.339844 363.671875 1.042969 C 364.164062 0.882812 366.023438 0.535156 367.800781 0.261719 C 375.105469 -0.851562 381.738281 1.636719 386.644531 7.328125 C 388.984375 10.042969 390.074219 12.015625 393.835938 20.300781 C 399.644531 33.09375 400.726562 37.523438 399.613281 43.945312 C 398.40625 50.902344 393.988281 56.445312 386.566406 60.324219 C 384.042969 61.640625 377.164062 65.253906 371.273438 68.355469 L 360.570312 73.988281 L 355.414062 79.671875 C 352.578125 82.796875 346.121094 90.152344 341.066406 96.019531 C 327.019531 112.324219 320.796875 118.421875 311.050781 125.4375 C 305.203125 129.644531 301.667969 131.609375 286.199219 139.230469 C 268.441406 147.980469 267.304688 148.5 264.554688 149.117188 C 259.386719 150.277344 253.429688 148.582031 250.027344 144.984375 L 248.457031 143.324219 L 209.390625 145.273438 C 170.4375 147.214844 165.902344 147.273438 161.320312 145.914062 C 160.53125 145.683594 160.113281 146.027344 159.113281 147.734375 L 157.875 149.84375 L 161.585938 165.605469 C 167.261719 189.71875 167.078125 188.683594 167.097656 196.636719 C 167.117188 204.730469 166.632812 207.601562 163.597656 217.488281 C 160.832031 226.488281 156.582031 235.78125 153.296875 240.003906 C 148.835938 245.738281 144.3125 248.433594 137.296875 249.535156 C 133.566406 250.121094 132.71875 250.035156 115.183594 247.253906 C 98.972656 244.683594 94.90625 244.34375 89.285156 245.09375 C 86.949219 245.402344 71.78125 248.023438 55.570312 250.914062 C 22.847656 256.753906 22.570312 256.792969 19.359375 256.28125 Z M 50.519531 239.320312 C 95.652344 231.074219 92.726562 231.265625 116.296875 234.996094 C 133.171875 237.664062 136.160156 237.800781 139.75 236.058594 C 143.445312 234.265625 146.304688 230.121094 149.761719 221.550781 C 154.042969 210.929688 155.5 204.65625 155.484375 196.878906 C 155.472656 190.628906 155.265625 189.527344 150.1875 168.515625 C 145.699219 149.941406 145.511719 148.652344 146.863281 145.769531 C 148.714844 141.832031 155.023438 131.101562 155.640625 130.84375 C 155.984375 130.703125 158.121094 131.40625 160.390625 132.40625 C 164.035156 134.007812 165.078125 134.25 169.210938 134.4375 C 173.121094 134.613281 235.019531 131.890625 249.8125 130.890625 L 254.277344 130.589844 L 255.277344 132.828125 C 255.847656 134.101562 256.902344 135.476562 257.730469 136.027344 C 260.34375 137.757812 262.273438 137.355469 270.25 133.410156 C 274.234375 131.4375 282.410156 127.394531 288.421875 124.421875 C 307.570312 114.949219 314.246094 109.066406 340.1875 78.804688 C 347.753906 69.980469 350.511719 67.046875 353.851562 64.277344 C 355.078125 63.257812 362.109375 59.308594 369.480469 55.496094 C 376.847656 51.683594 383.617188 48.003906 384.523438 47.320312 C 386.390625 45.910156 387.792969 43.496094 388.230469 40.953125 C 388.621094 38.652344 387.511719 35.179688 383.394531 25.828125 C 379.976562 18.0625 377.9375 14.984375 375.316406 13.632812 C 373.464844 12.679688 368.804688 12.613281 366.089844 13.5 C 364.164062 14.132812 353.480469 18.980469 329.347656 30.179688 C 310.277344 39.03125 307.824219 39.757812 294.601562 40.476562 C 281.082031 41.210938 244.390625 42.109375 240.902344 41.789062 C 239.171875 41.628906 230.019531 39.972656 220.5625 38.109375 C 198.300781 33.722656 194.773438 33.207031 184.746094 32.882812 C 175.402344 32.578125 171.019531 32.929688 152.691406 35.4375 C 134.210938 37.964844 130.128906 38.777344 119.480469 42.03125 C 105.816406 46.207031 104.445312 47.386719 102.894531 56.28125 C 102.523438 58.402344 101.859375 60.667969 101.417969 61.316406 C 100.976562 61.96875 96.429688 64.925781 91.289062 67.902344 C 81.433594 73.613281 78.820312 75.644531 77.007812 78.996094 C 75.957031 80.949219 70.316406 97.351562 62.484375 121.234375 C 60.5625 127.101562 57.167969 137.308594 54.941406 143.914062 C 52.71875 150.519531 50.089844 158.5 49.105469 161.644531 C 46.714844 169.269531 46.71875 171.496094 49.121094 180.167969 C 50.113281 183.757812 50.820312 187.160156 50.6875 187.726562 C 50.554688 188.296875 47.683594 191.460938 44.304688 194.761719 C 14.265625 224.097656 14.105469 224.261719 12.597656 227.429688 C 8.859375 235.289062 13.761719 244.054688 21.941406 244.140625 C 23.09375 244.152344 35.953125 241.984375 50.519531 239.320312 Z M 19.382812 235.210938 C 17.023438 232.648438 17.96875 230.871094 25.65625 223.378906 C 55.628906 194.15625 56.863281 192.863281 57.589844 189.855469 C 58.273438 187.03125 57.996094 185.125 55.785156 177.484375 C 54.539062 173.183594 54.039062 170.703125 54.214844 169.679688 C 54.546875 167.726562 57.9375 157.390625 77.027344 100.136719 C 79.652344 92.269531 82.265625 84.824219 82.839844 83.589844 C 84.125 80.832031 85.566406 79.761719 95.605469 74.136719 C 105.339844 68.679688 107.667969 66.53125 108.886719 61.902344 C 109.355469 60.128906 109.964844 57.441406 110.25 55.933594 C 110.886719 52.519531 110.882812 52.523438 121.917969 49.203125 C 128.550781 47.207031 132.734375 46.320312 143.535156 44.621094 C 164.398438 41.347656 173.445312 40.324219 181.488281 40.332031 C 190.398438 40.34375 195.75 41.09375 217.210938 45.332031 C 226.542969 47.171875 235.953125 48.933594 238.121094 49.242188 C 244.425781 50.148438 298.484375 48.558594 306.371094 47.242188 C 311.140625 46.441406 317.230469 44.140625 329.066406 38.65625 C 368.660156 20.320312 368.210938 20.515625 370.996094 20.710938 L 373.050781 20.855469 L 376.988281 29.488281 C 379.15625 34.234375 380.960938 38.707031 381.007812 39.429688 C 381.097656 40.90625 380.914062 41.019531 361.664062 51.074219 C 349.230469 57.570312 347.871094 58.714844 335.441406 73.136719 C 320.839844 90.078125 313.585938 97.96875 308.527344 102.40625 C 299.339844 110.46875 296.957031 111.875 271.359375 124.390625 L 261.652344 129.136719 L 260.660156 127.222656 C 259.632812 125.238281 257.820312 123.757812 255.769531 123.238281 C 255.117188 123.070312 236.542969 123.804688 214.488281 124.871094 C 192.4375 125.9375 172.730469 126.808594 170.691406 126.808594 C 167.433594 126.808594 166.40625 126.570312 162.183594 124.820312 C 156.3125 122.394531 153.699219 122.355469 151.070312 124.667969 C 149.40625 126.132812 141.023438 140.722656 139.601562 144.640625 C 138.464844 147.769531 138.675781 150.6875 140.640625 158.867188 C 148.300781 190.792969 148.996094 194.644531 148.238281 200.921875 C 147.277344 208.871094 142.15625 223.125 138.714844 227.425781 L 137.164062 229.367188 L 133.207031 229.351562 C 130.832031 229.339844 123.53125 228.398438 114.960938 226.996094 C 101.03125 224.71875 100.476562 224.667969 92.855469 224.902344 C 85.460938 225.128906 83.402344 225.441406 54.402344 230.769531 C 37.554688 233.867188 23.027344 236.398438 22.121094 236.398438 C 20.972656 236.398438 20.148438 236.039062 19.382812 235.207031 Z M 65.394531 216.066406 C 86.078125 212.238281 88.207031 211.988281 97.65625 212.28125 C 105.121094 212.511719 109.871094 213.148438 128.914062 216.453125 C 130.503906 216.730469 131.386719 216.6875 131.664062 216.324219 C 132.464844 215.265625 135.355469 207.117188 136.199219 203.539062 C 137.726562 197.042969 137.535156 195.511719 132.371094 173.199219 C 126.308594 146.992188 126.265625 145.460938 131.246094 135.261719 C 138.144531 121.132812 143.429688 113.921875 148.5 111.726562 C 150.691406 110.78125 151.945312 110.589844 156.039062 110.585938 C 160.710938 110.578125 161.160156 110.667969 165.191406 112.441406 L 169.433594 114.304688 L 176.355469 114.027344 C 180.164062 113.875 199.453125 112.960938 219.222656 112 C 257.941406 110.113281 257.535156 110.105469 262.472656 112.511719 L 265.003906 113.746094 L 274.824219 108.957031 C 286.617188 103.199219 290.042969 101.371094 293.570312 98.933594 C 300.675781 94.027344 307.011719 87.800781 318.675781 74.257812 C 338.234375 51.546875 341.710938 48.066406 349.042969 43.875 C 351.0625 42.71875 352.640625 41.6875 352.546875 41.585938 C 352.453125 41.484375 349.089844 42.917969 345.074219 44.777344 C 330.449219 51.554688 321.1875 55.695312 318.128906 56.824219 C 313.046875 58.703125 306.96875 59.835938 299.136719 60.355469 C 289.996094 60.964844 259.507812 61.832031 247.195312 61.832031 C 237.019531 61.832031 235.324219 61.585938 210.660156 56.519531 C 190.226562 52.324219 182.621094 51.8125 167.507812 53.613281 C 147.851562 55.960938 131.074219 59.082031 121.808594 62.113281 C 121.34375 62.265625 120.707031 63.628906 120.125 65.710938 C 118.902344 70.085938 116.050781 74.546875 112.472656 77.691406 C 110.871094 79.101562 105.90625 82.3125 101.230469 84.964844 L 92.859375 89.714844 L 91.921875 92.382812 C 91.40625 93.847656 89.519531 99.519531 87.726562 104.988281 C 84.15625 115.871094 75.25 142.675781 69.550781 159.691406 L 65.925781 170.511719 L 67.671875 176.421875 C 69.234375 181.726562 69.410156 182.832031 69.386719 187.183594 C 69.339844 196.007812 67.421875 199.316406 55.738281 210.742188 C 51.105469 215.277344 47.3125 219.101562 47.3125 219.246094 C 47.3125 219.390625 47.863281 219.382812 48.539062 219.234375 C 49.214844 219.085938 56.800781 217.660156 65.394531 216.070312 Z M 269.453125 23.667969 C 268.964844 23.539062 262.535156 22.03125 255.164062 20.308594 C 247.796875 18.589844 241.46875 17.050781 241.101562 16.890625 C 240.203125 16.5 241.664062 16.167969 256.730469 13.335938 C 263.726562 12.019531 270.105469 10.816406 270.90625 10.664062 L 272.355469 10.386719 L 272.355469 17.199219 C 272.355469 24.699219 272.472656 24.441406 269.453125 23.667969 Z M 269.453125 23.667969 "/>
</g>
</svg>
