<?xml version="1.0" encoding="UTF-8"?>
<svg xmlns="http://www.w3.org/2000/svg" xmlns:xlink="http://www.w3.org/1999/xlink" width="400pt" height="256pt" viewBox="0 0 400 256" version="1.1">
<g id="surface1">
<path style=" stroke:none;fill-rule:nonzero;fill:rgb(0%,0%,0%);fill-opacity:1;" d="M 71.121094 254.820312 C 53.59375 250.898438 36.386719 236.695312 27.253906 218.609375 C 21.21875 206.652344 19.96875 200.6875 19.703125 182.589844 L 19.457031 165.902344 L 15.171875 163.179688 C 5.152344 156.8125 0.0351562 147.734375 0.00390625 136.265625 C -0.015625 129.652344 0.386719 127.976562 3.453125 121.925781 C 7.8125 113.316406 17.8125 103.0625 29.230469 95.5 C 33.863281 92.429688 73.503906 70.632812 117.3125 47.066406 L 196.964844 4.214844 L 204.558594 3.402344 C 220.804688 1.664062 259.203125 0.171875 289.984375 0.0859375 L 322.207031 -0.0078125 L 328.945312 2.84375 C 337.421875 6.429688 351.757812 15.347656 356.738281 20.136719 C 361.359375 24.578125 374.105469 41.6875 380.972656 52.660156 C 387.679688 63.378906 395.261719 78.703125 398.054688 87.179688 C 400.152344 93.542969 400.277344 95.171875 399.714844 108.992188 C 399.03125 125.777344 397.292969 135.289062 393.488281 143.066406 C 389.179688 151.867188 377.945312 158.609375 365.800781 159.675781 C 357.617188 160.394531 346.042969 157.675781 319.980469 148.917969 L 303.914062 143.515625 L 308.347656 148.449219 C 322.117188 163.765625 328.789062 197.167969 323.117188 222.386719 C 318.960938 240.871094 309.445312 250.558594 292.015625 254.050781 C 281.121094 256.234375 80.5625 256.933594 71.117188 254.820312 Z M 274.617188 240.414062 C 283.339844 239.90625 292.257812 238.980469 294.433594 238.355469 C 299.558594 236.886719 304.132812 231.957031 306.996094 224.8125 C 309.070312 219.636719 309.285156 217.523438 309.300781 202.25 C 309.3125 189.144531 308.925781 183.957031 307.554688 178.949219 C 303.621094 164.546875 296.742188 155.664062 284.386719 149.023438 C 280.648438 147.015625 267.628906 141.992188 255.453125 137.859375 C 233.320312 130.347656 204.011719 117.953125 185.4375 108.253906 C 177.125 103.910156 175.269531 102.492188 173.605469 99.21875 C 170.921875 93.933594 171.085938 84.84375 174.027344 75.691406 L 176.304688 68.609375 L 185.308594 64.378906 C 193.839844 60.363281 216.015625 52.03125 221.753906 50.679688 L 224.417969 50.054688 L 221.011719 60.164062 C 216.03125 74.960938 216.621094 82.992188 223.144531 89.039062 C 226.503906 92.15625 233.519531 93.808594 238.921875 92.761719 C 253.664062 89.90625 257.5 86.539062 266.167969 68.855469 L 272.632812 55.660156 L 279.601562 51.492188 C 286.945312 47.097656 302.167969 39.152344 303.234375 39.152344 C 304.792969 39.152344 303.386719 42.519531 296.796875 54.527344 C 292.910156 61.613281 288.003906 70.566406 285.898438 74.425781 C 283.789062 78.28125 281.609375 83.839844 281.054688 86.773438 C 278.394531 100.804688 287.769531 119.257812 300.957031 125.941406 C 311.03125 131.042969 356.441406 145.246094 362.652344 145.234375 C 371.644531 145.21875 379.097656 140.226562 381.597656 132.550781 C 383.59375 126.410156 385.167969 113.148438 385.144531 102.632812 C 385.128906 95.304688 384.679688 93.085938 381.746094 85.972656 C 376.320312 72.800781 366.019531 55.796875 353.25 38.945312 C 346.648438 30.230469 339.140625 24.421875 326.695312 18.40625 L 318.34375 14.367188 L 300.941406 14.375 C 280.046875 14.382812 235.667969 15.941406 215.226562 17.382812 L 200.453125 18.429688 L 121.035156 61.652344 C 77.355469 85.421875 38.945312 106.761719 35.671875 109.070312 C 24.039062 117.285156 14.394531 130.089844 14.367188 137.359375 C 14.359375 138.753906 15.632812 141.90625 17.195312 144.367188 C 19.457031 147.933594 21.65625 149.6875 28.058594 153.015625 C 32.476562 155.3125 36.316406 157.566406 36.597656 158.019531 C 36.878906 158.476562 36.410156 162.144531 35.550781 166.171875 C 33.238281 177.054688 34.140625 194.925781 37.492188 204.605469 C 41.898438 217.339844 50.769531 228.355469 62.105469 235.175781 C 72.554688 241.460938 69.316406 241.273438 168.527344 241.308594 C 218.152344 241.320312 265.890625 240.917969 274.617188 240.410156 Z M 75.554688 229.097656 C 65.660156 226.4375 54.34375 216.054688 49.535156 205.222656 C 44.851562 194.675781 43.78125 180.21875 46.753906 167.546875 C 49.1875 157.171875 48.953125 154.675781 45.1875 150.792969 C 43.414062 148.960938 38.746094 145.894531 34.8125 143.976562 C 25.625 139.492188 24.605469 138.316406 26.324219 134.164062 C 27.859375 130.460938 36.195312 121.878906 42.28125 117.742188 C 44.644531 116.136719 81.828125 95.585938 124.90625 72.078125 L 203.234375 29.335938 L 217.074219 28.304688 C 224.6875 27.738281 249.769531 26.742188 272.8125 26.09375 L 314.707031 24.914062 L 322.941406 28.992188 C 335.058594 35 339.597656 38.953125 348.558594 51.320312 C 364.894531 73.867188 374.21875 92.488281 374.234375 102.605469 C 374.246094 109.769531 372.5 125.078125 371.21875 129.023438 C 369.492188 134.355469 365.722656 135.148438 355.085938 132.421875 C 342.078125 129.09375 311.769531 118.988281 305.984375 116.058594 C 297.429688 111.722656 291.332031 100.378906 292.164062 90.351562 C 292.515625 86.085938 294.296875 82.09375 302.320312 67.589844 C 316.945312 41.144531 317.964844 37.234375 311.824219 31.089844 C 308.542969 27.8125 303.730469 27.332031 297.214844 29.628906 C 292.234375 31.386719 276.421875 40.207031 268.75 45.507812 C 263.136719 49.382812 262.609375 50.128906 256.734375 62.449219 C 253.351562 69.539062 249.523438 76.28125 248.226562 77.433594 C 243.46875 81.652344 233.09375 83.246094 230.074219 80.226562 C 227.726562 77.878906 228.164062 73.804688 231.984375 62.382812 C 235.855469 50.816406 236.128906 48.285156 233.957031 44.085938 C 230.320312 37.058594 223.351562 37.480469 200.210938 46.136719 C 188.960938 50.347656 172.691406 57.875 169.914062 60.15625 C 163.003906 65.84375 158.722656 89.664062 162.625 100.746094 C 165.773438 109.695312 168.28125 112.003906 182.792969 119.347656 C 204.789062 130.476562 228.761719 140.601562 248.839844 147.242188 C 259.203125 150.671875 270.800781 154.90625 274.621094 156.65625 C 293.261719 165.207031 298.414062 175.1875 298.414062 202.746094 C 298.414062 215.457031 298.164062 217.667969 296.238281 221.835938 C 294.785156 224.980469 293.136719 226.914062 291.28125 227.652344 C 286.601562 229.507812 244.695312 230.382812 160.601562 230.378906 C 98.328125 230.371094 79.226562 230.085938 75.558594 229.097656 Z M 255.070312 214.980469 C 269.851562 214.621094 282.507812 213.980469 283.1875 213.558594 C 284.71875 212.613281 284.605469 198.367188 282.988281 188.632812 C 280.832031 175.675781 276.171875 172.296875 246.980469 162.527344 C 212.261719 150.90625 166.195312 129.617188 157.96875 121.386719 C 149.152344 112.574219 144.480469 98.734375 145.675781 85.007812 C 146.023438 81.054688 146.117188 77.820312 145.890625 77.820312 C 144.929688 77.820312 52.757812 128.519531 49.96875 130.585938 L 46.910156 132.847656 L 50.214844 135.324219 C 58.28125 141.375 61.328125 146 63.925781 156.144531 L 65.574219 162.589844 L 63.019531 166.484375 C 60.640625 170.105469 60.460938 171.175781 60.472656 181.851562 C 60.480469 192.289062 60.722656 193.816406 63.152344 198.777344 C 66.425781 205.453125 73.238281 212.328125 78.414062 214.171875 C 81.566406 215.292969 95.621094 215.554688 155.234375 215.589844 C 195.359375 215.613281 240.289062 215.339844 255.074219 214.980469 Z M 358.742188 112.273438 C 359.085938 109.410156 359.371094 105.367188 359.375 103.285156 C 359.382812 99.175781 354.886719 88.601562 348.839844 78.515625 C 343.765625 70.046875 329.527344 50.058594 328.574219 50.058594 C 328.140625 50.058594 327.488281 51.0625 327.117188 52.289062 C 326.746094 53.519531 322.03125 62.589844 316.640625 72.449219 C 311.246094 82.308594 306.839844 91.453125 306.839844 92.773438 C 306.84375 95.8125 310.015625 101.070312 312.984375 102.957031 C 315.824219 104.765625 353.722656 117.203125 357.011719 117.410156 C 357.617188 117.449219 358.394531 115.136719 358.738281 112.273438 Z M 279.15625 126.757812 C 274.171875 121.097656 268.730469 110.425781 267.09375 103.121094 C 265.816406 97.417969 265.199219 96.742188 263.316406 99.007812 C 261.441406 101.269531 250.785156 105.59375 243.1875 107.175781 C 221.808594 111.632812 202.734375 97.492188 202.734375 77.1875 L 202.734375 72.949219 L 196.039062 75.78125 C 188.464844 78.988281 186.90625 81.039062 186.882812 87.816406 L 186.871094 92.363281 L 203.476562 100.363281 C 227.777344 112.070312 236.550781 115.695312 260.238281 123.808594 C 271.960938 127.824219 281.925781 131.167969 282.382812 131.234375 C 282.835938 131.304688 281.386719 129.289062 279.15625 126.753906 Z M 74.570312 43.746094 C 82.074219 37 88.664062 31.375 89.207031 31.242188 C 89.753906 31.109375 91.84375 33.6875 93.855469 36.976562 C 97.050781 42.199219 97.300781 43.039062 95.839844 43.609375 C 89.828125 45.957031 62.011719 56.007812 61.523438 56.007812 C 61.191406 56.007812 67.066406 50.492188 74.570312 43.746094 Z M 74.570312 43.746094 "/>
</g>
</svg>
