<?xml version="1.0" encoding="UTF-8"?>
<svg xmlns="http://www.w3.org/2000/svg" xmlns:xlink="http://www.w3.org/1999/xlink" width="400pt" height="256pt" viewBox="0 0 400 256" version="1.1">
<g id="surface1">
<path style=" stroke:none;fill-rule:nonzero;fill:rgb(0%,0%,0%);fill-opacity:1;" d="M 4.726562 2.140625 C 4.023438 2.972656 4.335938 5.988281 5.195312 6.503906 C 6.09375 7.097656 7.1875 6.382812 7.34375 5.035156 C 7.421875 4.320312 7.265625 3.964844 6.679688 3.765625 C 6.210938 3.648438 5.664062 3.648438 5.429688 3.808594 C 5.15625 3.964844 5.039062 3.765625 5.15625 3.332031 C 5.273438 2.777344 5.585938 2.617188 6.367188 2.695312 C 7.5 2.816406 7.8125 2.21875 6.796875 1.824219 C 5.820312 1.425781 5.195312 1.546875 4.726562 2.140625 Z M 6.484375 4.796875 C 6.875 5.472656 5.976562 6.226562 5.429688 5.671875 C 4.960938 5.195312 5.273438 4.363281 5.859375 4.363281 C 6.054688 4.363281 6.328125 4.558594 6.484375 4.796875 Z M 6.484375 4.796875 "/>
<path style=" stroke:none;fill-rule:nonzero;fill:rgb(0%,0%,0%);fill-opacity:1;" d="M 14.023438 7.535156 C 11.171875 9.039062 10.390625 10.46875 6.992188 19.945312 C 4.6875 26.371094 4.414062 28.429688 5.78125 29.820312 C 6.71875 30.808594 8.046875 30.890625 18.75 30.53125 C 22.34375 30.414062 23.046875 30.492188 24.492188 31.246094 C 25.390625 31.722656 26.601562 32.753906 27.226562 33.585938 C 28.203125 34.855469 28.320312 35.371094 28.320312 37.828125 C 28.28125 39.375 28.125 41.992188 27.96875 43.617188 C 27.421875 48.535156 28.007812 49.210938 37.5 54.917969 C 45.703125 59.875 52.070312 63.246094 58.007812 65.824219 C 60.585938 66.933594 64.140625 68.640625 65.898438 69.589844 C 72.1875 72.960938 82.421875 80.933594 90.078125 88.386719 C 95.859375 94.015625 97.734375 95.445312 104.101562 99.210938 C 111.601562 103.652344 112.382812 103.96875 115.3125 104.207031 C 118.90625 104.445312 120.898438 103.652344 126.210938 99.6875 C 131.992188 95.40625 133.671875 94.53125 135.3125 95.046875 C 137.226562 95.644531 154.804688 109.085938 190.234375 137 C 198.28125 143.347656 206.015625 149.414062 207.421875 150.523438 C 208.828125 151.59375 213.046875 154.925781 216.796875 157.859375 C 220.546875 160.792969 223.945312 163.332031 224.375 163.488281 C 224.765625 163.648438 225.351562 163.570312 225.625 163.332031 C 225.9375 163.09375 226.171875 162.933594 226.210938 163.011719 C 226.25 163.09375 226.328125 163.847656 226.367188 164.640625 C 226.484375 165.789062 226.367188 166.144531 225.898438 166.144531 C 225.46875 166.144531 225.351562 165.910156 225.546875 165.15625 C 225.742188 164.441406 225.625 164.164062 225.234375 164.164062 C 224.921875 164.164062 224.53125 164.363281 224.414062 164.558594 C 224.21875 164.878906 223.984375 164.835938 223.59375 164.519531 C 222.96875 164.003906 222.617188 164.601562 222.773438 165.949219 C 222.8125 166.503906 222.65625 166.703125 222.1875 166.621094 C 221.445312 166.503906 220.9375 167.136719 221.289062 167.730469 C 221.484375 168.050781 221.71875 168.011719 222.070312 167.730469 C 222.8125 167.097656 223.398438 167.574219 223.164062 168.527344 C 223.007812 169.082031 223.164062 169.320312 223.59375 169.320312 C 224.0625 169.320312 224.21875 169.039062 224.140625 168.207031 C 224.0625 167.496094 224.179688 167.175781 224.570312 167.257812 C 224.84375 167.296875 225.3125 167.175781 225.625 166.898438 C 226.25 166.34375 226.992188 166.78125 226.71875 167.535156 C 226.601562 167.851562 226.132812 168.050781 225.664062 168.011719 C 224.960938 167.929688 224.804688 168.128906 224.804688 169.238281 C 224.804688 170.707031 225.234375 171.222656 225.859375 170.585938 C 226.171875 170.269531 226.132812 169.953125 225.78125 169.554688 C 225.390625 169.039062 225.390625 168.882812 225.859375 168.722656 C 226.171875 168.605469 226.679688 168.527344 226.992188 168.605469 C 227.34375 168.683594 227.539062 168.367188 227.578125 167.730469 C 227.65625 166.027344 227.734375 165.910156 228.4375 166.78125 C 228.789062 167.257812 233.867188 171.339844 239.648438 175.859375 C 245.46875 180.421875 254.921875 187.835938 260.703125 192.398438 C 267.070312 197.433594 271.757812 200.804688 272.65625 201.082031 C 273.90625 201.476562 274.375 201.4375 275.664062 200.804688 C 278.203125 199.535156 278.515625 198.34375 278.515625 190.292969 C 278.515625 183.472656 278.554688 183.277344 279.609375 181.175781 C 282.03125 176.296875 289.0625 173.957031 294.804688 176.097656 C 296.757812 176.851562 297.773438 177.683594 301.992188 181.96875 C 304.6875 184.703125 307.96875 187.757812 309.296875 188.75 C 315.585938 193.347656 321.914062 195.648438 331.25 196.679688 C 339.921875 197.628906 350.546875 195.488281 357.617188 191.285156 C 364.53125 187.164062 365.273438 186.964844 368.203125 188.3125 C 372.890625 190.492188 373.945312 198.382812 370.390625 204.6875 C 369.804688 205.71875 366.953125 209.765625 364.023438 213.609375 C 353.007812 228.203125 350.429688 232.605469 350.078125 237.441406 C 349.84375 240.773438 350.351562 242.398438 352.34375 245.09375 C 357.734375 252.390625 368.320312 254.96875 376.5625 250.925781 C 379.726562 249.378906 383.28125 245.769531 385.078125 242.359375 C 387.382812 237.996094 387.460938 236.925781 387.578125 211.152344 C 387.695312 189.542969 387.65625 187.558594 386.992188 185.179688 C 385.46875 179.589844 381.640625 173.164062 377.65625 169.476562 C 373.75 165.828125 370.351562 164.363281 331.054688 149.292969 C 326.328125 147.46875 320.898438 145.367188 318.945312 144.613281 C 317.03125 143.820312 311.132812 141.5625 305.859375 139.539062 C 300.585938 137.515625 293.554688 134.820312 290.234375 133.550781 C 286.914062 132.242188 282.304688 130.5 280 129.664062 C 273.75 127.367188 273.75 127.367188 258.710938 116.460938 C 251.210938 111.066406 250.742188 110.59375 248.125 105.992188 C 246.210938 102.660156 245.117188 101.710938 242.34375 100.878906 C 240.390625 100.320312 240.15625 100.320312 238.59375 101.035156 C 237.65625 101.472656 234.921875 103.414062 232.5 105.4375 C 230.078125 107.421875 227.929688 109.046875 227.734375 109.046875 C 227.5 109.046875 223.59375 107.578125 219.0625 105.792969 C 214.492188 104.011719 208.828125 101.828125 206.445312 100.917969 C 204.101562 100.003906 193.789062 96 183.59375 91.996094 C 173.398438 88.03125 158.203125 82.082031 149.804688 78.832031 C 141.445312 75.578125 133.242188 72.40625 131.640625 71.773438 C 130.039062 71.136719 126.601562 69.789062 124.023438 68.757812 C 121.445312 67.765625 118.007812 66.417969 116.40625 65.785156 C 106.71875 62.058594 86.5625 54.207031 83.398438 52.9375 C 82.109375 52.421875 77.539062 50.636719 73.242188 48.972656 C 68.945312 47.304688 63.515625 45.164062 61.132812 44.253906 C 58.789062 43.300781 55.15625 41.914062 53.125 41.082031 C 47.070312 38.703125 45.703125 37.789062 44.453125 35.292969 C 43.867188 34.101562 43.007812 31.960938 42.539062 30.53125 C 41.40625 27.121094 38.984375 22.285156 36.679688 18.796875 C 33.554688 14.117188 27.34375 8.84375 23.164062 7.296875 C 20.898438 6.503906 15.742188 6.621094 14.023438 7.535156 Z M 24.257812 11.023438 C 30.859375 14.871094 36.289062 21.730469 39.296875 29.9375 C 42.226562 37.988281 43.046875 39.375 45.9375 41 C 47.734375 42.03125 53.007812 44.253906 60.15625 46.988281 C 61.992188 47.664062 67.265625 49.726562 71.875 51.507812 C 76.484375 53.332031 83.710938 56.148438 87.890625 57.773438 C 92.070312 59.398438 96.640625 61.183594 98.046875 61.738281 C 99.453125 62.292969 101.640625 63.167969 102.929688 63.683594 C 106.953125 65.230469 123.828125 71.8125 128.320312 73.554688 C 130.703125 74.46875 137.109375 76.964844 142.578125 79.109375 C 148.046875 81.25 154.492188 83.746094 156.835938 84.660156 C 162.65625 86.917969 179.335938 93.421875 182.226562 94.574219 C 204.140625 103.257812 226.679688 111.820312 227.539062 111.820312 C 229.023438 111.820312 230.234375 111.066406 234.765625 107.300781 C 237.03125 105.398438 239.257812 103.773438 239.765625 103.613281 C 240.273438 103.496094 241.40625 103.613281 242.265625 103.851562 C 243.476562 104.246094 244.0625 104.722656 244.84375 106.113281 C 248.085938 111.664062 249.0625 112.851562 252.5 115.46875 C 258.789062 120.269531 269.921875 128.117188 272.382812 129.46875 C 273.710938 130.179688 278.59375 132.203125 283.203125 133.949219 C 316.210938 146.4375 367.734375 166.582031 370.78125 168.207031 C 377.34375 171.65625 383.007812 179.429688 384.414062 186.925781 C 385 190.175781 384.84375 232.40625 384.21875 236.015625 C 383.242188 241.40625 379.804688 246.125 375.195312 248.464844 C 373.242188 249.417969 372.265625 249.65625 369.296875 249.734375 C 363.164062 249.972656 358.75 248.226562 355.195312 244.105469 C 353.125 241.726562 352.578125 240.058594 352.929688 237.242188 C 353.4375 233.199219 355.742188 229.351562 366.171875 215.515625 C 368.945312 211.785156 371.835938 207.78125 372.539062 206.59375 C 378.710938 196.320312 373.984375 183.753906 364.414062 184.902344 C 362.5 185.140625 360.703125 185.972656 356.09375 188.867188 C 353.90625 190.253906 348.945312 192.078125 344.53125 193.191406 C 343.164062 193.507812 339.921875 193.707031 335.742188 193.707031 C 327.851562 193.707031 322.851562 192.792969 317.695312 190.335938 C 312.695312 187.957031 310.390625 186.210938 304.101562 179.984375 C 298.59375 174.550781 298.046875 174.15625 295.546875 173.285156 C 287.734375 170.667969 278.632812 174.472656 276.289062 181.332031 C 275.742188 183 275.585938 184.78125 275.585938 190.492188 C 275.546875 196.835938 275.46875 197.628906 274.804688 198.105469 C 274.21875 198.542969 273.90625 198.542969 272.890625 197.988281 C 270.859375 196.917969 255.15625 184.425781 254.921875 183.671875 C 254.804688 183.316406 254.335938 181.136719 253.90625 178.835938 C 252.96875 174.234375 252.226562 172.6875 250.078125 170.984375 C 249.023438 170.113281 238.75 163.609375 233.90625 160.714844 C 233.710938 160.632812 233.59375 160.714844 233.59375 160.910156 C 233.59375 161.109375 235.3125 162.339844 237.421875 163.570312 C 245.507812 168.445312 250.351562 171.738281 251.289062 173.007812 C 252.34375 174.433594 253.28125 177.566406 253.75 181.175781 L 254.023438 183.355469 L 252.695312 182.402344 C 251.953125 181.847656 246.640625 177.726562 240.898438 173.164062 C 232.734375 166.742188 230.273438 164.996094 229.882812 165.351562 C 229.257812 165.867188 228.710938 165.234375 229.0625 164.363281 C 229.335938 163.609375 228.59375 163.210938 227.929688 163.765625 C 227.34375 164.242188 226.71875 163.648438 227.148438 162.972656 C 227.578125 162.300781 226.953125 161.707031 226.367188 162.179688 C 225.703125 162.734375 224.960938 162.339844 225.234375 161.625 C 225.429688 161.070312 224.140625 160 197.148438 138.785156 C 190.117188 133.273438 184.453125 128.675781 184.53125 128.59375 C 184.726562 128.398438 192.382812 133.628906 205.46875 142.949219 C 210.742188 146.714844 217.890625 151.515625 221.40625 153.695312 C 226.328125 156.75 227.734375 157.78125 227.578125 158.292969 C 227.5 158.691406 227.539062 159.089844 227.734375 159.207031 C 227.890625 159.324219 228.007812 160.117188 227.96875 161.03125 C 227.890625 162.777344 228.242188 163.292969 229.101562 162.578125 C 229.6875 162.0625 230.273438 162.695312 229.84375 163.410156 C 229.726562 163.648438 229.84375 164.003906 230.117188 164.203125 C 230.78125 164.601562 231.328125 163.765625 230.820312 163.09375 C 230.234375 162.417969 230.78125 161.707031 231.640625 161.984375 C 232.5 162.261719 233.125 161.425781 232.421875 160.992188 C 231.71875 160.554688 232.34375 159.722656 233.203125 160 C 234.101562 160.277344 234.609375 159.5625 233.984375 158.808594 C 233.671875 158.453125 233.671875 158.214844 233.984375 158.015625 C 234.726562 157.542969 233.945312 157.027344 232.929688 157.265625 C 232.03125 157.5 231.953125 157.421875 232.148438 156.667969 C 232.382812 155.71875 231.875 155.242188 231.171875 155.71875 C 230.898438 155.875 230.390625 156.035156 230.078125 156.035156 C 229.6875 156.035156 229.53125 156.390625 229.609375 157.105469 C 229.726562 158.253906 228.789062 158.730469 228.398438 157.699219 C 228.320312 157.421875 225.351562 155.441406 221.835938 153.257812 C 218.320312 151.117188 211.640625 146.636719 207.03125 143.347656 C 195.546875 135.136719 187.460938 129.546875 181.523438 125.738281 C 178.789062 123.996094 172.8125 119.632812 168.242188 116.0625 C 154.492188 105.320312 138.203125 93.105469 136.835938 92.550781 C 133.867188 91.28125 131.328125 92.234375 124.960938 97.070312 C 119.921875 100.878906 119.0625 101.273438 116.015625 101.3125 C 113.203125 101.3125 113.75 101.550781 103.789062 95.644531 C 99.6875 93.222656 97.929688 91.835938 93.828125 87.910156 C 88.203125 82.519531 83.828125 78.75 78.242188 74.429688 C 71.171875 68.996094 67.148438 66.65625 57.03125 62.175781 C 51.5625 59.757812 49.023438 58.371094 38.359375 52.023438 C 34.53125 49.765625 31.640625 47.742188 31.132812 47.027344 C 30.390625 45.957031 30.351562 45.679688 30.78125 43.140625 C 31.445312 39.375 31.367188 35.527344 30.625 33.785156 C 29.84375 31.800781 27.96875 29.898438 25.585938 28.628906 C 23.710938 27.597656 23.4375 27.558594 18.554688 27.679688 C 6.953125 27.996094 8.007812 28.074219 7.890625 27.003906 C 7.734375 25.972656 12.226562 13.441406 13.320312 11.855469 C 14.53125 10.113281 16.25 9.476562 19.375 9.636719 C 21.601562 9.753906 22.578125 10.03125 24.257812 11.023438 Z M 231.445312 156.988281 C 231.71875 157.460938 230.976562 157.9375 230.46875 157.621094 C 230.039062 157.34375 230.3125 156.628906 230.859375 156.628906 C 231.054688 156.628906 231.289062 156.789062 231.445312 156.988281 Z M 233.007812 159.007812 C 232.8125 159.324219 232.578125 159.324219 232.34375 159.089844 C 232.109375 158.851562 232.070312 158.453125 232.226562 158.214844 C 232.421875 157.898438 232.65625 157.898438 232.890625 158.136719 C 233.125 158.375 233.164062 158.769531 233.007812 159.007812 Z M 231.523438 159.921875 C 231.5625 160.992188 231.445312 161.386719 231.015625 161.386719 C 230.585938 161.386719 230.507812 161.148438 230.664062 160.632812 C 230.78125 160.199219 230.703125 159.761719 230.507812 159.644531 C 230 159.324219 230.429688 158.136719 230.976562 158.335938 C 231.210938 158.414062 231.445312 159.128906 231.523438 159.921875 Z M 229.6875 159.167969 C 229.6875 159.484375 229.53125 159.839844 229.335938 160 C 228.867188 160.277344 228.398438 159.523438 228.710938 159.007812 C 229.0625 158.414062 229.6875 158.53125 229.6875 159.167969 Z M 230.078125 160.953125 C 230.078125 161.507812 229.375 161.863281 228.90625 161.585938 C 228.671875 161.425781 228.59375 161.148438 228.710938 160.953125 C 229.023438 160.476562 230.078125 160.476562 230.078125 160.953125 Z M 228.320312 164.917969 C 228.59375 165.394531 227.851562 165.867188 227.34375 165.550781 C 226.914062 165.273438 227.1875 164.558594 227.734375 164.558594 C 227.929688 164.558594 228.164062 164.71875 228.320312 164.917969 Z M 224.726562 166.1875 C 224.0625 166.859375 223.28125 166.226562 223.867188 165.511719 C 224.179688 165.117188 224.453125 165.035156 224.765625 165.351562 C 225.039062 165.628906 225.039062 165.867188 224.726562 166.1875 Z M 224.726562 166.1875 "/>
<path style=" stroke:none;fill-rule:nonzero;fill:rgb(0%,0%,0%);fill-opacity:1;" d="M 226.328125 160.355469 C 226.015625 161.230469 226.445312 161.664062 227.03125 161.070312 C 227.382812 160.714844 227.382812 160.476562 227.03125 160.117188 C 226.679688 159.761719 226.523438 159.839844 226.328125 160.355469 Z M 226.328125 160.355469 "/>
<path style=" stroke:none;fill-rule:nonzero;fill:rgb(0%,0%,0%);fill-opacity:1;" d="M 359.6875 175.027344 C 358.828125 175.664062 358.789062 176.058594 359.570312 176.058594 C 360 176.058594 360.15625 176.535156 360.15625 177.84375 C 360.15625 178.835938 360.351562 179.628906 360.546875 179.628906 C 360.78125 179.628906 360.9375 178.519531 360.9375 177.050781 C 360.9375 174.355469 360.820312 174.15625 359.6875 175.027344 Z M 359.6875 175.027344 "/>
<path style=" stroke:none;fill-rule:nonzero;fill:rgb(0%,0%,0%);fill-opacity:1;" d="M 363.007812 174.75 C 362.421875 174.949219 362.304688 176.457031 362.851562 176.457031 C 363.046875 176.457031 363.28125 176.179688 363.4375 175.859375 C 363.554688 175.542969 363.828125 175.265625 364.0625 175.265625 C 364.765625 175.265625 364.492188 176.695312 363.632812 177.488281 C 363.203125 177.882812 362.65625 178.558594 362.460938 178.914062 C 362.109375 179.550781 362.265625 179.628906 363.867188 179.628906 C 364.84375 179.628906 365.625 179.429688 365.625 179.230469 C 365.625 178.992188 365.15625 178.835938 364.609375 178.835938 L 363.554688 178.835938 L 364.609375 177.84375 C 366.523438 176.019531 365.351562 173.757812 363.007812 174.75 Z M 363.007812 174.75 "/>
<path style=" stroke:none;fill-rule:nonzero;fill:rgb(0%,0%,0%);fill-opacity:1;" d="M 49.21875 28.152344 C 49.21875 28.351562 49.648438 28.550781 50.195312 28.550781 C 51.328125 28.550781 51.328125 28.511719 50.625 29.976562 C 49.609375 32.078125 49.492188 32.910156 50.15625 32.910156 C 50.507812 32.910156 50.78125 32.59375 50.78125 32.199219 C 50.78125 31.800781 51.132812 30.808594 51.5625 29.9375 C 51.992188 29.066406 52.34375 28.234375 52.34375 28.074219 C 52.34375 27.914062 51.640625 27.757812 50.78125 27.757812 C 49.921875 27.757812 49.21875 27.914062 49.21875 28.152344 Z M 49.21875 28.152344 "/>
<path style=" stroke:none;fill-rule:nonzero;fill:rgb(0%,0%,0%);fill-opacity:1;" d="M 18.164062 35.011719 C 17.617188 35.964844 17.1875 36.878906 17.1875 36.996094 C 17.1875 37.15625 17.734375 37.273438 18.359375 37.273438 C 19.140625 37.273438 19.53125 37.472656 19.53125 37.867188 C 19.53125 38.703125 20.195312 38.621094 20.390625 37.75 C 20.46875 37.394531 20.46875 36.242188 20.390625 35.171875 C 20.195312 32.792969 19.492188 32.753906 18.164062 35.011719 Z M 19.53125 35.6875 C 19.53125 36.125 19.257812 36.480469 18.945312 36.480469 C 18.242188 36.480469 18.203125 36.003906 18.828125 35.371094 C 19.453125 34.734375 19.53125 34.777344 19.53125 35.6875 Z M 19.53125 35.6875 "/>
<path style=" stroke:none;fill-rule:nonzero;fill:rgb(0%,0%,0%);fill-opacity:1;" d="M 2.96875 35.132812 C 2.851562 35.488281 2.734375 36.085938 2.734375 36.519531 C 2.734375 37.15625 2.929688 37.234375 3.710938 37.035156 C 4.414062 36.878906 4.765625 36.996094 4.921875 37.472656 C 5.273438 38.382812 4.453125 39.175781 3.828125 38.542969 C 3.203125 37.910156 2.734375 37.949219 2.734375 38.660156 C 2.734375 39.453125 4.53125 39.851562 5.273438 39.257812 C 6.484375 38.265625 5.742188 36.085938 4.21875 36.085938 C 3.828125 36.085938 3.515625 35.886719 3.515625 35.6875 C 3.515625 35.449219 4.0625 35.292969 4.6875 35.292969 C 5.351562 35.292969 5.859375 35.09375 5.859375 34.894531 C 5.859375 34.21875 3.242188 34.417969 2.96875 35.132812 Z M 2.96875 35.132812 "/>
<path style=" stroke:none;fill-rule:nonzero;fill:rgb(0%,0%,0%);fill-opacity:1;" d="M 19.257812 48.652344 C 18.671875 48.851562 18.554688 49.960938 19.101562 49.960938 C 19.335938 49.960938 19.609375 49.765625 19.726562 49.566406 C 19.84375 49.328125 20.117188 49.167969 20.351562 49.167969 C 20.898438 49.167969 20.78125 50.28125 20.234375 50.476562 C 19.882812 50.597656 19.960938 50.835938 20.46875 51.230469 C 20.859375 51.550781 21.09375 52.023438 20.9375 52.261719 C 20.585938 52.859375 19.53125 52.898438 19.53125 52.34375 C 19.53125 52.105469 19.375 51.945312 19.140625 51.945312 C 18.320312 51.945312 18.789062 53.136719 19.726562 53.371094 C 21.210938 53.730469 21.914062 52.9375 21.757812 50.992188 C 21.601562 48.574219 20.9375 47.941406 19.257812 48.652344 Z M 19.257812 48.652344 "/>
<path style=" stroke:none;fill-rule:nonzero;fill:rgb(0%,0%,0%);fill-opacity:1;" d="M 241.09375 91.679688 C 240.3125 92.472656 240.507812 94.292969 241.40625 94.574219 C 241.835938 94.691406 242.382812 94.691406 242.617188 94.53125 C 242.890625 94.375 243.007812 94.492188 242.890625 94.808594 C 242.773438 95.128906 242.265625 95.324219 241.640625 95.246094 C 240.351562 95.089844 240.3125 95.882812 241.601562 96.199219 C 243.007812 96.554688 243.75 95.761719 243.75 93.820312 C 243.75 92.074219 243.242188 91.203125 242.1875 91.203125 C 241.835938 91.203125 241.367188 91.398438 241.09375 91.679688 Z M 242.851562 92.628906 C 243.164062 93.460938 242.34375 94.292969 241.757812 93.699219 C 241.25 93.183594 241.5625 91.996094 242.1875 91.996094 C 242.421875 91.996094 242.695312 92.273438 242.851562 92.628906 Z M 242.851562 92.628906 "/>
<path style=" stroke:none;fill-rule:nonzero;fill:rgb(0%,0%,0%);fill-opacity:1;" d="M 84.453125 94.058594 C 83.945312 94.574219 83.828125 95.5625 84.21875 95.5625 C 84.375 95.5625 84.6875 95.285156 84.960938 94.890625 C 85.429688 94.253906 86.328125 94.453125 86.328125 95.207031 C 86.328125 95.40625 85.820312 96.039062 85.15625 96.632812 C 83.515625 98.101562 83.632812 98.734375 85.546875 98.734375 C 86.40625 98.734375 87.109375 98.539062 87.109375 98.339844 C 87.109375 98.101562 86.640625 97.941406 86.054688 97.941406 L 84.960938 97.902344 L 86.054688 97.109375 C 87.617188 95.882812 87.304688 93.582031 85.546875 93.582031 C 85.195312 93.582031 84.726562 93.78125 84.453125 94.058594 Z M 84.453125 94.058594 "/>
<path style=" stroke:none;fill-rule:nonzero;fill:rgb(0%,0%,0%);fill-opacity:1;" d="M 223.554688 97.625 C 223.359375 97.902344 223.164062 98.972656 223.125 100.003906 C 223.085938 101.710938 223.164062 101.910156 224.023438 102.144531 C 225.46875 102.503906 226.132812 101.710938 226.09375 99.808594 C 226.015625 97.902344 225.585938 97.148438 224.609375 97.148438 C 224.21875 97.148438 223.75 97.386719 223.554688 97.625 Z M 225.195312 98.300781 C 225.46875 98.777344 224.726562 99.25 224.21875 98.933594 C 223.789062 98.65625 224.0625 97.941406 224.609375 97.941406 C 224.804688 97.941406 225.039062 98.101562 225.195312 98.300781 Z M 225.234375 100.363281 C 225.625 101.035156 224.726562 101.789062 224.179688 101.234375 C 223.710938 100.757812 224.023438 99.925781 224.609375 99.925781 C 224.804688 99.925781 225.078125 100.125 225.234375 100.363281 Z M 225.234375 100.363281 "/>
<path style=" stroke:none;fill-rule:nonzero;fill:rgb(0%,0%,0%);fill-opacity:1;" d="M 133.320312 102.464844 C 132.304688 102.9375 132.148438 103.496094 133.007812 103.496094 C 133.4375 103.496094 133.59375 103.96875 133.59375 105.277344 C 133.59375 106.585938 133.75 107.0625 134.179688 107.0625 C 134.648438 107.0625 134.765625 106.507812 134.765625 104.484375 C 134.765625 101.789062 134.726562 101.75 133.320312 102.464844 Z M 133.320312 102.464844 "/>
<path style=" stroke:none;fill-rule:nonzero;fill:rgb(0%,0%,0%);fill-opacity:1;" d="M 387.03125 169.082031 C 386.171875 169.714844 386.132812 170.113281 386.914062 170.113281 C 387.34375 170.113281 387.5 170.585938 387.5 171.894531 C 387.5 172.886719 387.695312 173.679688 387.890625 173.679688 C 388.125 173.679688 388.28125 172.570312 388.28125 171.101562 C 388.28125 168.40625 388.164062 168.207031 387.03125 169.082031 Z M 387.03125 169.082031 "/>
<path style=" stroke:none;fill-rule:nonzero;fill:rgb(0%,0%,0%);fill-opacity:1;" d="M 390.390625 168.84375 C 389.726562 169.277344 389.375 170.785156 389.648438 172.09375 C 389.960938 173.601562 391.640625 174.195312 392.460938 173.085938 C 393.085938 172.214844 393.125 170.347656 392.578125 169.277344 C 392.148438 168.527344 391.171875 168.289062 390.390625 168.84375 Z M 391.914062 170.191406 C 392.226562 171.378906 391.835938 172.964844 391.25 172.769531 C 390.78125 172.609375 390.46875 170.746094 390.78125 169.875 C 391.09375 169.039062 391.679688 169.199219 391.914062 170.191406 Z M 391.914062 170.191406 "/>
<path style=" stroke:none;fill-rule:nonzero;fill:rgb(0%,0%,0%);fill-opacity:1;" d="M 214.84375 170.347656 C 214.84375 170.46875 216.445312 172.648438 218.4375 175.148438 L 222.03125 179.707031 L 223.671875 177.804688 C 224.570312 176.734375 225.234375 175.703125 225.117188 175.542969 C 224.882812 175.109375 214.84375 170.03125 214.84375 170.347656 Z M 214.84375 170.347656 "/>
<path style=" stroke:none;fill-rule:nonzero;fill:rgb(0%,0%,0%);fill-opacity:1;" d="M 285.078125 181.371094 C 284.21875 182.007812 284.179688 182.402344 284.960938 182.402344 C 285.390625 182.402344 285.546875 182.878906 285.546875 184.1875 C 285.546875 185.179688 285.742188 185.972656 285.9375 185.972656 C 286.171875 185.972656 286.328125 184.863281 286.328125 183.394531 C 286.328125 180.699219 286.210938 180.5 285.078125 181.371094 Z M 285.078125 181.371094 "/>
<path style=" stroke:none;fill-rule:nonzero;fill:rgb(0%,0%,0%);fill-opacity:1;" d="M 288.476562 182.402344 C 287.265625 184.386719 287.265625 184.78125 288.476562 184.78125 C 289.101562 184.78125 289.453125 185.019531 289.453125 185.378906 C 289.453125 186.210938 290.507812 186.132812 290.703125 185.257812 C 290.78125 184.902344 290.78125 183.753906 290.703125 182.679688 C 290.507812 180.34375 289.804688 180.261719 288.476562 182.402344 Z M 289.296875 183.871094 C 288.867188 184.308594 288.632812 183.710938 288.945312 182.960938 C 289.21875 182.246094 289.257812 182.246094 289.375 182.917969 C 289.453125 183.316406 289.414062 183.753906 289.296875 183.871094 Z M 289.296875 183.871094 "/>
<path style=" stroke:none;fill-rule:nonzero;fill:rgb(0%,0%,0%);fill-opacity:1;" d="M 325.3125 201.199219 C 324.453125 201.832031 324.414062 202.230469 325.195312 202.230469 C 325.625 202.230469 325.78125 202.707031 325.78125 204.015625 C 325.78125 205.007812 325.976562 205.800781 326.171875 205.800781 C 326.40625 205.800781 326.5625 204.6875 326.5625 203.222656 C 326.5625 200.527344 326.445312 200.328125 325.3125 201.199219 Z M 325.3125 201.199219 "/>
<path style=" stroke:none;fill-rule:nonzero;fill:rgb(0%,0%,0%);fill-opacity:1;" d="M 328.242188 201.238281 C 328.125 201.597656 328.164062 201.992188 328.320312 202.152344 C 328.476562 202.308594 328.710938 202.191406 328.789062 201.914062 C 329.023438 201.238281 330.078125 201.320312 330.078125 201.992188 C 330.078125 202.308594 329.84375 202.667969 329.609375 202.785156 C 329.21875 202.984375 329.21875 203.0625 329.609375 203.261719 C 330.273438 203.578125 330.195312 205.007812 329.492188 205.007812 C 329.179688 205.007812 328.90625 204.808594 328.90625 204.609375 C 328.90625 204.371094 328.632812 204.214844 328.320312 204.214844 C 327.617188 204.214844 327.578125 204.6875 328.203125 205.324219 C 328.828125 205.957031 330.273438 205.917969 330.78125 205.285156 C 331.25 204.769531 331.210938 201.914062 330.742188 201.121094 C 330.3125 200.445312 328.554688 200.527344 328.242188 201.238281 Z M 328.242188 201.238281 "/>
<path style=" stroke:none;fill-rule:nonzero;fill:rgb(0%,0%,0%);fill-opacity:1;" d="M 269.84375 205.164062 C 268.984375 205.800781 268.945312 206.195312 269.726562 206.195312 C 270.15625 206.195312 270.3125 206.671875 270.3125 207.980469 C 270.3125 208.972656 270.507812 209.765625 270.703125 209.765625 C 270.9375 209.765625 271.09375 208.652344 271.09375 207.1875 C 271.09375 204.492188 270.976562 204.292969 269.84375 205.164062 Z M 269.84375 205.164062 "/>
<path style=" stroke:none;fill-rule:nonzero;fill:rgb(0%,0%,0%);fill-opacity:1;" d="M 272.65625 205.996094 C 272.65625 207.304688 272.734375 207.386719 273.632812 207.148438 C 274.492188 206.949219 274.609375 207.027344 274.609375 207.941406 C 274.609375 208.574219 274.375 208.972656 274.023438 208.972656 C 273.710938 208.972656 273.4375 208.773438 273.4375 208.574219 C 273.4375 208.335938 273.164062 208.179688 272.851562 208.179688 C 272.34375 208.179688 272.304688 208.335938 272.65625 208.972656 C 273.125 209.84375 274.570312 210.042969 275.3125 209.289062 C 276.367188 208.21875 275.585938 206.195312 274.140625 206.195312 C 273.75 206.195312 273.4375 205.996094 273.4375 205.800781 C 273.4375 205.5625 273.867188 205.402344 274.414062 205.402344 C 274.960938 205.402344 275.390625 205.203125 275.390625 205.007812 C 275.390625 204.769531 274.765625 204.609375 274.023438 204.609375 C 272.734375 204.609375 272.65625 204.6875 272.65625 205.996094 Z M 272.65625 205.996094 "/>
<path style=" stroke:none;fill-rule:nonzero;fill:rgb(0%,0%,0%);fill-opacity:1;" d="M 339.765625 246.800781 C 338.90625 247.433594 338.867188 247.832031 339.648438 247.832031 C 340.078125 247.832031 340.234375 248.308594 340.234375 249.617188 C 340.234375 250.605469 340.429688 251.398438 340.625 251.398438 C 340.859375 251.398438 341.015625 250.289062 341.015625 248.824219 C 341.015625 246.125 340.898438 245.929688 339.765625 246.800781 Z M 339.765625 246.800781 "/>
<path style=" stroke:none;fill-rule:nonzero;fill:rgb(0%,0%,0%);fill-opacity:1;" d="M 343.28125 246.800781 C 342.421875 247.433594 342.382812 247.832031 343.164062 247.832031 C 343.59375 247.832031 343.75 248.308594 343.75 249.617188 C 343.75 250.605469 343.945312 251.398438 344.140625 251.398438 C 344.375 251.398438 344.53125 250.289062 344.53125 248.824219 C 344.53125 246.125 344.414062 245.929688 343.28125 246.800781 Z M 343.28125 246.800781 "/>
</g>
</svg>
