<?xml version="1.0" encoding="UTF-8"?>
<svg xmlns="http://www.w3.org/2000/svg" xmlns:xlink="http://www.w3.org/1999/xlink" width="400pt" height="256pt" viewBox="0 0 400 256" version="1.1">
<g id="surface1">
<path style="fill:none;stroke-width:2.5;stroke-linecap:butt;stroke-linejoin:round;stroke:rgb(54.901961%,54.901961%,54.901961%);stroke-opacity:1;stroke-miterlimit:4;" d="M 32.32565 136.984905 L 13.604596 188.005336 L 15.442828 209.661144 L 14.707535 242.322658 C 14.707535 242.322658 13.678951 268.438609 15.203238 285.393184 C 16.727525 302.353786 24.377877 335.618022 24.377877 335.618022 C 24.377877 335.618022 25.472555 339.348872 28.52526 341.982768 C 31.577965 344.622691 37.051354 343.176158 37.051354 343.176158 " transform="matrix(0.945626,0,0,0.648101,18.615603,14.524597)"/>
<path style="fill:none;stroke-width:7;stroke-linecap:round;stroke-linejoin:round;stroke:rgb(66.666667%,66.666667%,66.666667%);stroke-opacity:1;stroke-miterlimit:4;" d="M 61.50191 134.049648 L 57.833707 117.715877 L 39.298541 128.546794 " transform="matrix(0.945626,0,0,0.648101,18.615603,14.524597)"/>
<path style="fill:none;stroke-width:7;stroke-linecap:round;stroke-linejoin:miter;stroke:rgb(66.666667%,66.666667%,66.666667%);stroke-opacity:1;stroke-miterlimit:4;" d="M 62.786607 94.04095 L 90.868189 87.067455 " transform="matrix(0.945626,0,0,0.648101,18.615603,14.524597)"/>
<path style="fill:none;stroke-width:7;stroke-linecap:butt;stroke-linejoin:round;stroke:rgb(66.666667%,66.666667%,66.666667%);stroke-opacity:1;stroke-miterlimit:4;" d="M 281.908043 22.467693 L 309.068443 15.31338 L 306.866695 6.869243 " transform="matrix(0.945626,0,0,0.648101,18.615603,14.524597)"/>
<path style="fill:none;stroke-width:6;stroke-linecap:round;stroke-linejoin:miter;stroke:rgb(66.666667%,66.666667%,66.666667%);stroke-opacity:1;stroke-miterlimit:4;" d="M 277.322789 71.836665 C 277.322789 71.836665 281.168619 66.755718 282.507018 63.579372 C 283.841285 60.403026 284.138707 56.629985 285.489498 53.483775 C 286.836158 50.337566 289.384898 46.576579 292.185621 44.678005 C 294.986344 42.773402 297.80359 42.49615 301.087623 42.200816 C 304.371656 41.899455 307.812662 43.297771 311.592398 43.159145 C 315.372135 43.026546 323.56776 41.188243 323.56776 41.188243 " transform="matrix(0.945626,0,0,0.648101,18.615603,14.524597)"/>
<path style="fill:none;stroke-width:6;stroke-linecap:butt;stroke-linejoin:round;stroke:rgb(66.666667%,66.666667%,66.666667%);stroke-opacity:1;stroke-miterlimit:4;" d="M 297.873814 42.104381 L 295.672066 32.930949 L 275.302799 38.252986 L 272.365758 25.408977 L 281.908043 22.835353 L 279.338648 13.661922 L 278.971002 13.661922 " transform="matrix(0.945626,0,0,0.648101,18.615603,14.524597)"/>
<path style="fill:none;stroke-width:7;stroke-linecap:round;stroke-linejoin:round;stroke:rgb(66.666667%,66.666667%,66.666667%);stroke-opacity:1;stroke-miterlimit:4;" d="M 256.218229 78.997005 C 256.218229 78.997005 262.695416 71.450923 263.372877 68.352931 C 264.050338 65.248912 262.364947 62.205165 262.364947 62.205165 L 254.747643 46.51028 C 254.747643 46.51028 262.154273 30.966075 260.989371 27.976573 C 259.824469 24.981044 237.497174 23.570674 237.497174 23.570674 " transform="matrix(0.945626,0,0,0.648101,18.615603,14.524597)"/>
<path style="fill:none;stroke-width:6;stroke-linecap:round;stroke-linejoin:miter;stroke:rgb(66.666667%,66.666667%,66.666667%);stroke-opacity:1;stroke-miterlimit:4;" d="M 231.259576 25.041316 C 231.259576 25.041316 225.711832 29.302562 223.852945 32.551234 C 221.994059 35.799907 219.470104 41.929591 217.094859 44.66595 C 214.719615 47.396281 212.811158 49.614299 208.502672 50.729335 C 204.194186 51.850398 200.488805 51.573146 196.432301 50.301402 C 192.379928 49.029659 188.323424 45.823177 183.54402 44.491161 C 178.760484 43.159145 169.230592 42.291225 169.230592 42.291225 " transform="matrix(0.945626,0,0,0.648101,18.615603,14.524597)"/>
<path style="fill-rule:nonzero;fill:rgb(30.196078%,30.196078%,30.196078%);fill-opacity:1;stroke-width:7;stroke-linecap:round;stroke-linejoin:miter;stroke:rgb(66.666667%,66.666667%,66.666667%);stroke-opacity:1;stroke-miterlimit:4;" d="M 341.921168 24.119151 L 370.733912 -0.104253 " transform="matrix(0.945626,0,0,0.648101,18.615603,14.524597)"/>
<path style="fill:none;stroke-width:2.7;stroke-linecap:round;stroke-linejoin:round;stroke:rgb(0%,0%,0%);stroke-opacity:1;stroke-miterlimit:4;" d="M 78.934137 104.305309 C 78.934137 104.305309 90.426187 88.483852 101.178814 100.773357 L 175.108805 182.683299 L 182.973961 194.128993 C 182.973961 194.128993 191.194371 201.560558 196.134879 190.856212 " transform="matrix(0.945626,0,0,0.648101,18.615603,14.524597)"/>
<path style="fill:none;stroke-width:3;stroke-linecap:round;stroke-linejoin:round;stroke:rgb(0%,0%,0%);stroke-opacity:1;stroke-miterlimit:4;" d="M 235.328473 103.762859 C 235.328473 103.762859 232.246852 120.83195 232.858219 131.771358 C 233.465455 142.710765 235.113668 150.528072 219.313131 165.71667 C 196.502525 185.841563 196.395123 189.560359 196.395123 189.560359 " transform="matrix(0.945626,0,0,0.648101,18.615603,14.524597)"/>
<path style="fill:none;stroke-width:7.3;stroke-linecap:round;stroke-linejoin:round;stroke:rgb(0%,0%,0%);stroke-opacity:1;stroke-miterlimit:4;" d="M 47.485904 337.377971 C 51.298687 335.822948 55.726969 340.186656 58.395504 343.495601 C 59.874352 345.321849 62.501578 345.683482 65.000748 343.971751 C 71.560553 339.46339 83.734195 331.019252 85.659176 329.084514 C 88.32358 326.426509 93.648258 322.876476 88.61274 317.518276 C 83.089781 311.647762 45.978141 269.330638 44.251441 267.064403 C 42.520611 264.798167 39.534 260.69363 39.331588 258.270686 C 39.129176 255.841716 38.885455 236.819804 38.790445 230.870937 C 38.699566 224.922069 39.240709 223.005412 41.231783 221.197246 C 43.222857 219.389079 56.615104 206.593288 60.287437 204.085964 C 63.963902 201.566585 67.185973 206.924785 74.799146 215.59193 C 82.416451 224.265102 84.097711 223.55389 86.836471 222.25201 C 89.5711 220.956157 103.364039 210.938915 108.015387 208.10612 C 112.666734 205.273326 112.774137 201.753429 111.869479 199.716228 C 110.960689 197.685054 104.388492 184.274486 104.388492 184.274486 C 104.388492 184.274486 70.746773 147.219127 66.665484 142.807201 C 62.580064 138.395274 61.241666 134.754833 62.99315 131.699031 C 64.748766 128.64323 78.533443 100.851711 78.533443 100.851711 C 78.533443 100.851711 80.049469 96.542247 84.535582 92.184566 C 91.797633 85.355724 95.672379 85.271343 99.286881 89.249309 C 102.897252 93.233302 180.9044 180.748561 187.538561 187.655757 C 194.172721 194.56898 198.749713 194.086803 202.103971 190.597041 C 205.462359 187.10728 227.876402 166.494182 235.766344 159.544795 C 243.656285 152.595409 244.660084 146.959956 243.743033 142.849391 C 242.834244 138.744853 239.000807 124.038432 237.497174 118.873103 C 235.997672 113.707774 236.584254 100.206798 240.252457 94.480937 C 248.592662 80.184367 253.760367 80.232585 274.212252 73.879894 C 285.320133 70.426296 300.211881 62.572826 306.267721 56.883128 C 312.31943 51.193431 344.358375 21.828807 344.358375 21.828807 C 344.358375 21.828807 341.859205 16.904567 340.752135 12.444423 C 339.645064 7.984279 343.280221 6.646236 343.280221 6.646236 L 367.805133 0.552715 C 367.805133 0.552715 375.666158 -1.074635 374.125348 -7.13802 C 372.584537 -13.201405 365.454674 -10.242039 365.454674 -10.242039 L 141.87191 48.107494 L 110.010592 59.709895 L 55.569996 74.633296 C 51.748951 76.031612 47.432203 77.839778 50.100738 80.967906 C 52.769273 84.090007 55.908727 87.646068 57.36692 89.833949 C 58.820982 92.021831 62.423092 93.926433 58.560738 98.16357 C 54.694254 102.400707 46.097936 112.990535 40.376695 123.809398 C 32.813092 137.195857 23.064264 165.975841 21.188854 216.399577 C 20.048736 232.124599 20.251148 261.899074 20.35442 277.190135 C 20.457691 292.481197 28.103912 329.000133 31.350768 338.330272 C 33.432721 344.303249 42.268629 339.499553 47.485904 337.377971 Z M 47.485904 337.377971 " transform="matrix(0.945626,0,0,0.648101,18.615603,14.524597)"/>
<path style=" stroke:none;fill-rule:nonzero;fill:rgb(82.352941%,13.72549%,16.470588%);fill-opacity:1;" d="M 141.28125 79.859375 L 134.835938 83.796875 L 149.425781 90.570312 Z M 141.28125 79.859375 "/>
<path style=" stroke:none;fill-rule:nonzero;fill:rgb(82.352941%,13.72549%,16.470588%);fill-opacity:1;" d="M 221.027344 21.621094 L 206.832031 28.777344 L 224.28125 27.101562 Z M 221.027344 21.621094 "/>
<path style=" stroke:none;fill-rule:nonzero;fill:rgb(82.352941%,13.72549%,16.470588%);fill-opacity:1;" d="M 104.164062 205.539062 L 88.867188 199.542969 L 98.171875 209.796875 Z M 104.164062 205.539062 "/>
<path style=" stroke:none;fill-rule:nonzero;fill:rgb(100%,100%,100%);fill-opacity:1;" d="M 338.679688 19.308594 C 338.265625 20.320312 339.121094 21.371094 340.589844 21.65625 C 342.066406 21.941406 343.597656 21.355469 344.011719 20.34375 C 344.429688 19.335938 343.574219 18.285156 342.101562 18 C 340.628906 17.714844 339.097656 18.300781 338.679688 19.308594 Z M 338.679688 19.308594 "/>
<path style=" stroke:none;fill-rule:nonzero;fill:rgb(100%,100%,100%);fill-opacity:1;" d="M 345.097656 30.003906 C 345.097656 31.054688 343.855469 31.90625 342.324219 31.90625 C 340.792969 31.90625 339.550781 31.054688 339.550781 30.003906 C 339.550781 28.957031 340.792969 28.105469 342.324219 28.105469 C 343.855469 28.105469 345.097656 28.957031 345.097656 30.003906 Z M 345.097656 30.003906 "/>
<path style=" stroke:none;fill-rule:nonzero;fill:rgb(100%,100%,100%);fill-opacity:1;" d="M 248.851562 75.484375 C 248.851562 76.53125 247.609375 77.382812 246.078125 77.382812 C 244.546875 77.382812 243.308594 76.53125 243.308594 75.484375 C 243.308594 74.433594 244.546875 73.585938 246.078125 73.585938 C 247.609375 73.585938 248.851562 74.433594 248.851562 75.484375 Z M 248.851562 75.484375 "/>
<path style=" stroke:none;fill-rule:nonzero;fill:rgb(100%,100%,100%);fill-opacity:1;" d="M 286.453125 61.007812 C 286.453125 62.054688 285.210938 62.90625 283.679688 62.90625 C 282.152344 62.90625 280.910156 62.054688 280.910156 61.007812 C 280.910156 59.957031 282.152344 59.105469 283.679688 59.105469 C 285.210938 59.105469 286.453125 59.957031 286.453125 61.007812 Z M 286.453125 61.007812 "/>
<path style=" stroke:none;fill-rule:nonzero;fill:rgb(100%,100%,100%);fill-opacity:1;" d="M 111.429688 70.660156 C 111.429688 71.707031 110.1875 72.558594 108.65625 72.558594 C 107.125 72.558594 105.886719 71.707031 105.886719 70.660156 C 105.886719 69.609375 107.125 68.757812 108.65625 68.757812 C 110.1875 68.757812 111.429688 69.609375 111.429688 70.660156 Z M 111.429688 70.660156 "/>
<path style=" stroke:none;fill-rule:nonzero;fill:rgb(100%,100%,100%);fill-opacity:1;" d="M 80.195312 102.191406 C 80.195312 103.242188 78.953125 104.09375 77.425781 104.09375 C 75.894531 104.09375 74.652344 103.242188 74.652344 102.191406 C 74.652344 101.144531 75.894531 100.292969 77.425781 100.292969 C 78.953125 100.292969 80.195312 101.144531 80.195312 102.191406 Z M 80.195312 102.191406 "/>
<path style=" stroke:none;fill-rule:nonzero;fill:rgb(100%,100%,100%);fill-opacity:1;" d="M 78.144531 76.035156 C 78.144531 77.082031 76.902344 77.933594 75.371094 77.933594 C 73.839844 77.933594 72.597656 77.082031 72.597656 76.035156 C 72.597656 74.984375 73.839844 74.132812 75.371094 74.132812 C 76.902344 74.132812 78.144531 74.984375 78.144531 76.035156 Z M 78.144531 76.035156 "/>
<path style=" stroke:none;fill-rule:nonzero;fill:rgb(100%,100%,100%);fill-opacity:1;" d="M 58.882812 95.050781 C 58.882812 96.101562 57.644531 96.949219 56.113281 96.949219 C 54.582031 96.949219 53.339844 96.101562 53.339844 95.050781 C 53.339844 94.003906 54.582031 93.152344 56.113281 93.152344 C 57.644531 93.152344 58.882812 94.003906 58.882812 95.050781 Z M 58.882812 95.050781 "/>
<path style=" stroke:none;fill-rule:nonzero;fill:rgb(100%,100%,100%);fill-opacity:1;" d="M 5.546875 197.480469 C 5.546875 198.53125 4.304688 199.382812 2.773438 199.382812 C 1.242188 199.382812 0 198.53125 0 197.480469 C 0 196.429688 1.242188 195.578125 2.773438 195.578125 C 4.304688 195.578125 5.546875 196.429688 5.546875 197.480469 Z M 5.546875 197.480469 "/>
<path style=" stroke:none;fill-rule:nonzero;fill:rgb(100%,100%,100%);fill-opacity:1;" d="M 53.386719 235.582031 C 53.386719 236.632812 52.144531 237.484375 50.613281 237.484375 C 49.082031 237.484375 47.839844 236.632812 47.839844 235.582031 C 47.839844 234.535156 49.082031 233.683594 50.613281 233.683594 C 52.144531 233.683594 53.386719 234.535156 53.386719 235.582031 Z M 53.386719 235.582031 "/>
<path style=" stroke:none;fill-rule:nonzero;fill:rgb(100%,100%,100%);fill-opacity:1;" d="M 68.214844 232.894531 C 68.214844 233.941406 66.976562 234.792969 65.445312 234.792969 C 63.914062 234.792969 62.671875 233.941406 62.671875 232.894531 C 62.671875 231.84375 63.914062 230.992188 65.445312 230.992188 C 66.976562 230.992188 68.214844 231.84375 68.214844 232.894531 Z M 68.214844 232.894531 "/>
<path style=" stroke:none;fill-rule:nonzero;fill:rgb(100%,100%,100%);fill-opacity:1;" d="M 106.898438 223.335938 C 106.898438 224.386719 105.660156 225.234375 104.128906 225.234375 C 102.597656 225.234375 101.355469 224.386719 101.355469 223.335938 C 101.355469 222.285156 102.597656 221.4375 104.128906 221.4375 C 105.660156 221.4375 106.898438 222.285156 106.898438 223.335938 Z M 106.898438 223.335938 "/>
<path style=" stroke:none;fill-rule:nonzero;fill:rgb(100%,100%,100%);fill-opacity:1;" d="M 79.539062 238.136719 C 79.539062 239.1875 78.296875 240.039062 76.765625 240.039062 C 75.234375 240.039062 73.992188 239.1875 73.992188 238.136719 C 73.992188 237.085938 75.234375 236.238281 76.765625 236.238281 C 78.296875 236.238281 79.539062 237.085938 79.539062 238.136719 Z M 79.539062 238.136719 "/>
<path style=" stroke:none;fill-rule:nonzero;fill:rgb(100%,100%,100%);fill-opacity:1;" d="M 68.09375 65.542969 C 68.09375 66.589844 66.851562 67.441406 65.320312 67.441406 C 63.789062 67.441406 62.546875 66.589844 62.546875 65.542969 C 62.546875 64.492188 63.789062 63.640625 65.320312 63.640625 C 66.851562 63.640625 68.09375 64.492188 68.09375 65.542969 Z M 68.09375 65.542969 "/>
<path style=" stroke:none;fill-rule:nonzero;fill:rgb(100%,100%,100%);fill-opacity:1;" d="M 127.332031 146.421875 C 127.332031 147.472656 126.089844 148.320312 124.558594 148.320312 C 123.027344 148.320312 121.789062 147.472656 121.789062 146.421875 C 121.789062 145.371094 123.027344 144.523438 124.558594 144.523438 C 126.089844 144.523438 127.332031 145.371094 127.332031 146.421875 Z M 127.332031 146.421875 "/>
<path style=" stroke:none;fill-rule:nonzero;fill:rgb(100%,100%,100%);fill-opacity:1;" d="M 100.210938 159.167969 C 100.210938 160.21875 98.96875 161.070312 97.4375 161.070312 C 95.90625 161.070312 94.667969 160.21875 94.667969 159.167969 C 94.667969 158.121094 95.90625 157.269531 97.4375 157.269531 C 98.96875 157.269531 100.210938 158.121094 100.210938 159.167969 Z M 100.210938 159.167969 "/>
<path style=" stroke:none;fill-rule:nonzero;fill:rgb(100%,100%,100%);fill-opacity:1;" d="M 80.1875 146.351562 C 80.1875 147.398438 78.949219 148.25 77.417969 148.25 C 75.886719 148.25 74.644531 147.398438 74.644531 146.351562 C 74.644531 145.300781 75.886719 144.449219 77.417969 144.449219 C 78.949219 144.449219 80.1875 145.300781 80.1875 146.351562 Z M 80.1875 146.351562 "/>
<path style=" stroke:none;fill-rule:nonzero;fill:rgb(100%,100%,100%);fill-opacity:1;" d="M 58.695312 159.398438 C 58.695312 160.449219 57.453125 161.300781 55.921875 161.300781 C 54.390625 161.300781 53.148438 160.449219 53.148438 159.398438 C 53.148438 158.351562 54.390625 157.5 55.921875 157.5 C 57.453125 157.5 58.695312 158.351562 58.695312 159.398438 Z M 58.695312 159.398438 "/>
<path style=" stroke:none;fill-rule:nonzero;fill:rgb(100%,100%,100%);fill-opacity:1;" d="M 58.683594 182.660156 C 58.683594 183.710938 57.441406 184.5625 55.910156 184.5625 C 54.378906 184.5625 53.136719 183.710938 53.136719 182.660156 C 53.136719 181.613281 54.378906 180.761719 55.910156 180.761719 C 57.441406 180.761719 58.683594 181.613281 58.683594 182.660156 Z M 58.683594 182.660156 "/>
<path style=" stroke:none;fill-rule:nonzero;fill:rgb(100%,100%,100%);fill-opacity:1;" d="M 154.023438 93.394531 L 152 94.617188 L 150.21875 93.230469 L 152.246094 92.011719 Z M 154.023438 93.394531 "/>
<path style=" stroke:none;fill-rule:nonzero;fill:rgb(0%,0%,0%);fill-opacity:1;" d="M 151.988281 94.632812 L 149.960938 95.855469 L 148.179688 94.46875 L 150.207031 93.246094 Z M 151.988281 94.632812 "/>
<path style=" stroke:none;fill-rule:nonzero;fill:rgb(100%,100%,100%);fill-opacity:1;" d="M 149.9375 95.867188 L 147.914062 97.085938 L 146.136719 95.699219 L 148.15625 94.480469 Z M 149.9375 95.867188 "/>
<path style=" stroke:none;fill-rule:nonzero;fill:rgb(0%,0%,0%);fill-opacity:1;" d="M 144.101562 96.929688 L 145.886719 98.316406 L 147.910156 97.09375 L 146.125 95.707031 Z M 144.101562 96.929688 "/>
<path style=" stroke:none;fill-rule:nonzero;fill:rgb(100%,100%,100%);fill-opacity:1;" d="M 142.0625 98.15625 L 143.84375 99.542969 L 145.867188 98.324219 L 144.085938 96.933594 Z M 142.0625 98.15625 "/>
<path style=" stroke:none;fill-rule:nonzero;fill:rgb(0%,0%,0%);fill-opacity:1;" d="M 143.828125 99.554688 L 141.800781 100.777344 L 140.019531 99.386719 L 142.046875 98.167969 Z M 143.828125 99.554688 "/>
<path style=" stroke:none;fill-rule:nonzero;fill:rgb(100%,100%,100%);fill-opacity:1;" d="M 141.773438 100.785156 L 139.75 102.003906 L 137.96875 100.617188 L 139.988281 99.398438 Z M 141.773438 100.785156 "/>
<path style=" stroke:none;fill-rule:nonzero;fill:rgb(0%,0%,0%);fill-opacity:1;" d="M 135.941406 101.851562 L 137.722656 103.234375 L 139.746094 102.019531 L 137.964844 100.628906 Z M 135.941406 101.851562 "/>
<path style=" stroke:none;fill-rule:nonzero;fill:rgb(0%,0%,0%);fill-opacity:1;" d="M 155.808594 94.796875 L 153.78125 96.019531 L 152 94.636719 L 154.027344 93.410156 Z M 155.808594 94.796875 "/>
<path style=" stroke:none;fill-rule:nonzero;fill:rgb(100%,100%,100%);fill-opacity:1;" d="M 149.980469 95.863281 L 151.757812 97.25 L 153.78125 96.03125 L 152 94.640625 Z M 149.980469 95.863281 "/>
<path style=" stroke:none;fill-rule:nonzero;fill:rgb(0%,0%,0%);fill-opacity:1;" d="M 151.730469 97.246094 L 149.703125 98.46875 L 147.925781 97.078125 L 149.949219 95.859375 Z M 151.730469 97.246094 "/>
<path style=" stroke:none;fill-rule:nonzero;fill:rgb(100%,100%,100%);fill-opacity:1;" d="M 149.710938 98.492188 L 147.6875 99.714844 L 145.90625 98.328125 L 147.929688 97.105469 Z M 149.710938 98.492188 "/>
<path style=" stroke:none;fill-rule:nonzero;fill:rgb(0%,0%,0%);fill-opacity:1;" d="M 147.664062 99.722656 L 145.640625 100.945312 L 143.855469 99.554688 L 145.882812 98.332031 Z M 147.664062 99.722656 "/>
<path style=" stroke:none;fill-rule:nonzero;fill:rgb(100%,100%,100%);fill-opacity:1;" d="M 141.820312 100.785156 L 143.597656 102.171875 L 145.621094 100.953125 L 143.84375 99.566406 Z M 141.820312 100.785156 "/>
<path style=" stroke:none;fill-rule:nonzero;fill:rgb(0%,0%,0%);fill-opacity:1;" d="M 143.585938 102.191406 L 141.5625 103.414062 L 139.777344 102.027344 L 141.800781 100.804688 Z M 143.585938 102.191406 "/>
<path style=" stroke:none;fill-rule:nonzero;fill:rgb(100%,100%,100%);fill-opacity:1;" d="M 141.535156 103.414062 L 139.511719 104.636719 L 137.730469 103.253906 L 139.75 102.027344 Z M 141.535156 103.414062 "/>
<path style=" stroke:none;fill-rule:nonzero;fill:rgb(100%,100%,100%);fill-opacity:1;" d="M 153.808594 96.03125 L 155.59375 97.417969 L 157.617188 96.195312 L 155.839844 94.808594 Z M 153.808594 96.03125 "/>
<path style=" stroke:none;fill-rule:nonzero;fill:rgb(0%,0%,0%);fill-opacity:1;" d="M 156.050781 92.1875 L 154.03125 93.40625 L 152.25 92.023438 L 154.269531 90.800781 Z M 156.050781 92.1875 "/>
<path style=" stroke:none;fill-rule:nonzero;fill:rgb(100%,100%,100%);fill-opacity:1;" d="M 157.839844 93.570312 L 155.820312 94.792969 L 154.039062 93.40625 L 156.058594 92.1875 Z M 157.839844 93.570312 "/>
<path style=" stroke:none;fill-rule:nonzero;fill:rgb(0%,0%,0%);fill-opacity:1;" d="M 159.640625 94.976562 L 157.613281 96.195312 L 155.835938 94.808594 L 157.859375 93.585938 Z M 159.640625 94.976562 "/>
<path style=" stroke:none;fill-rule:nonzero;fill:rgb(0%,0%,0%);fill-opacity:1;" d="M 155.605469 97.414062 L 153.582031 98.632812 L 151.800781 97.246094 L 153.824219 96.027344 Z M 155.605469 97.414062 "/>
<path style=" stroke:none;fill-rule:nonzero;fill:rgb(100%,100%,100%);fill-opacity:1;" d="M 153.539062 98.664062 L 151.515625 99.886719 L 149.734375 98.5 L 151.757812 97.28125 Z M 153.539062 98.664062 "/>
<path style=" stroke:none;fill-rule:nonzero;fill:rgb(0%,0%,0%);fill-opacity:1;" d="M 151.492188 99.890625 L 149.464844 101.113281 L 147.683594 99.726562 L 149.710938 98.503906 Z M 151.492188 99.890625 "/>
<path style=" stroke:none;fill-rule:nonzero;fill:rgb(100%,100%,100%);fill-opacity:1;" d="M 149.457031 101.113281 L 147.4375 102.332031 L 145.65625 100.949219 L 147.675781 99.726562 Z M 149.457031 101.113281 "/>
<path style=" stroke:none;fill-rule:nonzero;fill:rgb(0%,0%,0%);fill-opacity:1;" d="M 147.402344 102.347656 L 145.378906 103.570312 L 143.601562 102.1875 L 145.621094 100.964844 Z M 147.402344 102.347656 "/>
<path style=" stroke:none;fill-rule:nonzero;fill:rgb(100%,100%,100%);fill-opacity:1;" d="M 141.578125 103.414062 L 143.351562 104.800781 L 145.375 103.582031 L 143.59375 102.195312 Z M 141.578125 103.414062 "/>
<path style=" stroke:none;fill-rule:nonzero;fill:rgb(0%,0%,0%);fill-opacity:1;" d="M 143.332031 104.808594 L 141.308594 106.027344 L 139.527344 104.640625 L 141.554688 103.421875 Z M 143.332031 104.808594 "/>
<path style=" stroke:none;fill-rule:nonzero;fill:rgb(100%,100%,100%);fill-opacity:1;" d="M 205.550781 139.507812 C 205.550781 140.554688 204.308594 141.40625 202.777344 141.40625 C 201.246094 141.40625 200.007812 140.554688 200.007812 139.507812 C 200.007812 138.457031 201.246094 137.605469 202.777344 137.605469 C 204.308594 137.605469 205.550781 138.457031 205.550781 139.507812 Z M 205.550781 139.507812 "/>
<path style="fill-rule:nonzero;fill:rgb(100%,100%,100%);fill-opacity:1;stroke-width:1.047;stroke-linecap:butt;stroke-linejoin:miter;stroke:rgb(0%,0%,0%);stroke-opacity:1;stroke-miterlimit:4;" d="M 204.987311 212.518047 C 204.987311 218.135417 200.435104 222.691997 194.817135 222.691997 C 189.199166 222.691997 184.646959 218.135417 184.646959 212.518047 C 184.646959 206.900676 189.199166 202.350124 194.817135 202.350124 C 200.435104 202.350124 204.987311 206.900676 204.987311 212.518047 Z M 204.987311 212.518047 " transform="matrix(0.945626,0,0,0.648101,18.615603,14.524597)"/>
<path style=" stroke:none;fill-rule:nonzero;fill:rgb(0%,0%,0%);fill-opacity:1;" d="M 200.484375 154.230469 L 201.9375 154.230469 L 201.9375 149.839844 C 201.359375 149.839844 200.804688 149.863281 200.316406 149.910156 L 200.316406 149.160156 C 201.164062 149.042969 201.898438 148.875 202.503906 148.640625 L 203.574219 148.640625 L 203.574219 154.230469 L 205.027344 154.230469 L 205.027344 155.132812 L 200.484375 155.132812 Z M 200.484375 154.230469 "/>
<path style="fill-rule:nonzero;fill:rgb(100%,100%,100%);fill-opacity:1;stroke-width:1.047;stroke-linecap:butt;stroke-linejoin:miter;stroke:rgb(0%,0%,0%);stroke-opacity:1;stroke-miterlimit:4;" d="M 272.407066 148.074992 C 272.407066 153.692363 267.854859 158.248943 262.236891 158.248943 C 256.618922 158.248943 252.066715 153.692363 252.066715 148.074992 C 252.066715 142.457622 256.618922 137.901042 262.236891 137.901042 C 267.854859 137.901042 272.407066 142.457622 272.407066 148.074992 Z M 272.407066 148.074992 " transform="matrix(0.945626,0,0,0.648101,18.615603,14.524597)"/>
<path style=" stroke:none;fill-rule:nonzero;fill:rgb(0%,0%,0%);fill-opacity:1;" d="M 263.222656 112.210938 C 263.800781 111.558594 264.691406 111.0625 265.71875 110.515625 C 266.980469 109.847656 267.78125 109.421875 267.78125 108.707031 C 267.78125 108.179688 267.265625 107.851562 266.441406 107.851562 C 265.59375 107.851562 264.972656 108.242188 264.871094 108.847656 L 263.277344 108.648438 C 263.585938 107.535156 264.78125 106.875 266.507812 106.875 C 268.308594 106.875 269.480469 107.660156 269.480469 108.761719 C 269.480469 109.671875 268.65625 110.289062 267.164062 111.046875 C 266.042969 111.621094 265.207031 111.964844 264.925781 112.351562 L 269.433594 112.351562 L 269.433594 113.367188 L 263.226562 113.367188 L 263.226562 112.210938 Z M 263.222656 112.210938 "/>
<path style="fill-rule:nonzero;fill:rgb(100%,100%,100%);fill-opacity:1;stroke-width:1.047;stroke-linecap:butt;stroke-linejoin:miter;stroke:rgb(0%,0%,0%);stroke-opacity:1;stroke-miterlimit:4;" d="M 233.366314 86.850475 C 233.366314 92.467845 228.814107 97.024425 223.196139 97.024425 C 217.57817 97.024425 213.025963 92.467845 213.025963 86.850475 C 213.025963 81.233104 217.57817 76.676524 223.196139 76.676524 C 228.814107 76.676524 233.366314 81.233104 233.366314 86.850475 Z M 233.366314 86.850475 " transform="matrix(0.945626,0,0,0.648101,18.615603,14.524597)"/>
<path style=" stroke:none;fill-rule:nonzero;fill:rgb(0%,0%,0%);fill-opacity:1;" d="M 227.242188 71.964844 C 227.769531 72.527344 228.375 72.800781 229.148438 72.800781 C 230.101562 72.800781 230.757812 72.371094 230.757812 71.804688 C 230.757812 71.109375 229.949219 70.765625 228.296875 70.765625 C 228.195312 70.765625 228.089844 70.765625 227.988281 70.765625 L 227.988281 69.804688 C 228.117188 69.8125 228.246094 69.8125 228.375 69.8125 C 229.777344 69.8125 230.5 69.488281 230.5 68.914062 C 230.5 68.453125 229.984375 68.128906 229.148438 68.128906 C 228.453125 68.128906 227.859375 68.339844 227.421875 68.761719 L 226.277344 68.144531 C 226.90625 67.539062 227.949219 67.191406 229.238281 67.191406 C 231.027344 67.191406 232.132812 67.863281 232.132812 68.816406 C 232.132812 69.476562 231.667969 69.953125 230.769531 70.234375 C 231.839844 70.449219 232.429688 71.019531 232.429688 71.859375 C 232.429688 73.050781 231.222656 73.789062 229.238281 73.789062 C 227.707031 73.789062 226.585938 73.367188 225.90625 72.527344 Z M 227.242188 71.964844 "/>
<path style="fill-rule:nonzero;fill:rgb(100%,100%,100%);fill-opacity:1;stroke-width:1.047;stroke-linecap:butt;stroke-linejoin:miter;stroke:rgb(0%,0%,0%);stroke-opacity:1;stroke-miterlimit:4;" d="M 297.588785 88.188518 C 297.588785 93.805888 293.032447 98.362468 287.414479 98.362468 C 281.79651 98.362468 277.244303 93.805888 277.244303 88.188518 C 277.244303 82.571147 281.79651 78.014568 287.414479 78.014568 C 293.032447 78.014568 297.588785 82.571147 297.588785 88.188518 Z M 297.588785 88.188518 " transform="matrix(0.945626,0,0,0.648101,18.615603,14.524597)"/>
<path style=" stroke:none;fill-rule:nonzero;fill:rgb(0%,0%,0%);fill-opacity:1;" d="M 290.777344 73.089844 L 286.609375 73.089844 L 286.609375 71.941406 L 290.597656 68.140625 L 292.335938 68.140625 L 292.335938 72.160156 L 293.671875 72.160156 L 293.671875 73.089844 L 292.335938 73.089844 L 292.335938 74.605469 L 290.777344 74.605469 Z M 290.804688 72.171875 L 290.804688 69.390625 L 287.882812 72.171875 Z M 290.804688 72.171875 "/>
<path style="fill-rule:nonzero;fill:rgb(100%,100%,100%);fill-opacity:1;stroke-width:1.047;stroke-linecap:butt;stroke-linejoin:miter;stroke:rgb(0%,0%,0%);stroke-opacity:1;stroke-miterlimit:4;" d="M 336.534527 15.518306 C 336.534527 21.135677 331.978189 25.692256 326.360221 25.692256 C 320.742252 25.692256 316.190045 21.135677 316.190045 15.518306 C 316.190045 9.900935 320.742252 5.350383 326.360221 5.350383 C 331.978189 5.350383 336.534527 9.900935 336.534527 15.518306 Z M 336.534527 15.518306 " transform="matrix(0.945626,0,0,0.648101,18.615603,14.524597)"/>
<path style="fill-rule:nonzero;fill:rgb(100%,100%,100%);fill-opacity:1;stroke-width:1.047;stroke-linecap:butt;stroke-linejoin:miter;stroke:rgb(0%,0%,0%);stroke-opacity:1;stroke-miterlimit:4;" d="M 365.169645 34.70898 C 365.169645 40.32635 360.617437 44.876903 354.999469 44.876903 C 349.3815 44.876903 344.825162 40.32635 344.825162 34.70898 C 344.825162 29.085582 349.3815 24.53503 354.999469 24.53503 C 360.617437 24.53503 365.169645 29.085582 365.169645 34.70898 Z M 365.169645 34.70898 " transform="matrix(0.945626,0,0,0.648101,18.615603,14.524597)"/>
<path style=" stroke:none;fill-rule:nonzero;fill:rgb(0%,0%,0%);fill-opacity:1;" d="M 327.503906 23.730469 C 329.148438 23.730469 330.332031 24.578125 330.332031 25.757812 C 330.332031 27.125 329.109375 27.9375 327.089844 27.9375 C 324.980469 27.9375 323.796875 26.898438 323.796875 24.972656 C 323.796875 22.679688 325.339844 21.339844 327.683594 21.339844 C 328.597656 21.339844 329.421875 21.488281 330.089844 21.824219 L 329.382812 22.691406 C 328.789062 22.433594 328.273438 22.292969 327.667969 22.292969 C 326.523438 22.292969 325.582031 23.007812 325.480469 24.234375 C 326.074219 23.898438 326.730469 23.730469 327.503906 23.730469 Z M 327.144531 26.976562 C 328.042969 26.976562 328.699219 26.515625 328.699219 25.855469 C 328.699219 25.121094 328.054688 24.671875 327.132812 24.671875 C 326.332031 24.671875 325.664062 24.980469 325.429688 25.457031 C 325.496094 26.4375 326.136719 26.976562 327.144531 26.976562 Z M 327.144531 26.976562 "/>
<path style="fill-rule:nonzero;fill:rgb(100%,100%,100%);fill-opacity:1;stroke-width:1.047;stroke-linecap:butt;stroke-linejoin:miter;stroke:rgb(0%,0%,0%);stroke-opacity:1;stroke-miterlimit:4;" d="M 47.205006 61.059993 C 47.205006 66.677364 42.648668 71.233943 37.030699 71.233943 C 31.41273 71.233943 26.860523 66.677364 26.860523 61.059993 C 26.860523 55.442622 31.41273 50.89207 37.030699 50.89207 C 42.648668 50.89207 47.205006 55.442622 47.205006 61.059993 Z M 47.205006 61.059993 " transform="matrix(0.945626,0,0,0.648101,18.615603,14.524597)"/>
<path style=" stroke:none;fill-rule:nonzero;fill:rgb(0%,0%,0%);fill-opacity:1;" d="M 50.429688 52.066406 C 50.429688 51.105469 51.550781 50.480469 53.464844 50.480469 C 55.421875 50.480469 56.515625 51.113281 56.515625 52.128906 C 56.515625 52.765625 56.039062 53.257812 55.101562 53.558594 C 56.3125 53.992188 56.851562 54.511719 56.851562 55.277344 C 56.851562 56.378906 55.613281 57.078125 53.363281 57.078125 C 51.265625 57.078125 50.054688 56.386719 50.054688 55.304688 C 50.054688 54.535156 50.648438 53.992188 51.871094 53.585938 C 50.867188 53.195312 50.429688 52.746094 50.429688 52.066406 Z M 51.753906 55.261719 C 51.753906 55.773438 52.386719 56.132812 53.402344 56.132812 C 54.535156 56.132812 55.191406 55.789062 55.191406 55.253906 C 55.191406 54.785156 54.585938 54.398438 53.375 54.089844 C 52.308594 54.332031 51.753906 54.75 51.753906 55.261719 Z M 54.90625 52.113281 C 54.90625 51.660156 54.394531 51.378906 53.519531 51.378906 C 52.589844 51.378906 52.0625 51.644531 52.0625 52.066406 C 52.0625 52.5625 52.566406 52.90625 53.53125 53.0625 C 54.46875 52.859375 54.90625 52.570312 54.90625 52.113281 Z M 54.90625 52.113281 "/>
<path style="fill-rule:nonzero;fill:rgb(100%,100%,100%);fill-opacity:1;stroke-width:1.047;stroke-linecap:butt;stroke-linejoin:miter;stroke:rgb(0%,0%,0%);stroke-opacity:1;stroke-miterlimit:4;" d="M 47.989869 95.162013 C 47.989869 100.779384 43.437662 105.335964 37.819693 105.335964 C 32.201725 105.335964 27.645387 100.779384 27.645387 95.162013 C 27.645387 89.544643 32.201725 84.99409 37.819693 84.99409 C 43.437662 84.99409 47.989869 89.544643 47.989869 95.162013 Z M 47.989869 95.162013 " transform="matrix(0.945626,0,0,0.648101,18.615603,14.524597)"/>
<path style=" stroke:none;fill-rule:nonzero;fill:rgb(0%,0%,0%);fill-opacity:1;" d="M 53.644531 76.78125 C 51.996094 76.78125 50.8125 75.941406 50.8125 74.757812 C 50.8125 73.394531 52.035156 72.582031 54.054688 72.582031 C 56.128906 72.582031 57.351562 73.628906 57.351562 75.542969 C 57.351562 77.839844 55.804688 79.179688 53.460938 79.179688 C 52.511719 79.179688 51.699219 79.011719 51.070312 78.691406 L 51.765625 77.828125 C 52.355469 78.085938 52.871094 78.226562 53.476562 78.226562 C 54.621094 78.226562 55.5625 77.503906 55.664062 76.273438 C 55.074219 76.613281 54.417969 76.78125 53.644531 76.78125 Z M 54.003906 73.535156 C 53.105469 73.535156 52.449219 74 52.449219 74.664062 C 52.449219 75.394531 53.089844 75.84375 54.019531 75.84375 C 54.816406 75.84375 55.484375 75.527344 55.71875 75.050781 C 55.652344 74.070312 55.007812 73.535156 54.003906 73.535156 Z M 54.003906 73.535156 "/>
<path style="fill-rule:nonzero;fill:rgb(100%,100%,100%);fill-opacity:1;stroke-width:1.047;stroke-linecap:butt;stroke-linejoin:miter;stroke:rgb(0%,0%,0%);stroke-opacity:1;stroke-miterlimit:4;" d="M 31.462301 123.495982 C 31.462301 129.113353 26.910094 133.663905 21.292125 133.663905 C 15.674156 133.663905 11.121949 129.113353 11.121949 123.495982 C 11.121949 117.878612 15.674156 113.322032 21.292125 113.322032 C 26.910094 113.322032 31.462301 117.878612 31.462301 123.495982 Z M 31.462301 123.495982 " transform="matrix(0.945626,0,0,0.648101,18.615603,14.524597)"/>
<path style=" stroke:none;fill-rule:nonzero;fill:rgb(0%,0%,0%);fill-opacity:1;" d="M 32.816406 96.535156 L 34.269531 96.535156 L 34.269531 92.140625 C 33.691406 92.140625 33.136719 92.167969 32.648438 92.210938 L 32.648438 91.464844 C 33.5 91.347656 34.234375 91.179688 34.835938 90.941406 L 35.90625 90.941406 L 35.90625 96.535156 L 37.359375 96.535156 L 37.359375 97.433594 L 32.816406 97.433594 Z M 32.816406 96.535156 "/>
<path style=" stroke:none;fill-rule:nonzero;fill:rgb(0%,0%,0%);fill-opacity:1;" d="M 42.175781 90.941406 C 44.375 90.941406 45.53125 92.0625 45.53125 94.242188 C 45.53125 96.417969 44.375 97.539062 42.175781 97.539062 C 39.972656 97.539062 38.816406 96.417969 38.816406 94.242188 C 38.816406 92.0625 39.972656 90.941406 42.175781 90.941406 Z M 42.175781 96.550781 C 43.28125 96.550781 43.859375 95.777344 43.859375 94.242188 C 43.859375 92.707031 43.28125 91.921875 42.175781 91.921875 C 41.078125 91.921875 40.476562 92.707031 40.476562 94.242188 C 40.476562 95.777344 41.078125 96.550781 42.175781 96.550781 Z M 42.175781 96.550781 "/>
<path style="fill-rule:nonzero;fill:rgb(100%,100%,100%);fill-opacity:1;stroke-width:1.047;stroke-linecap:butt;stroke-linejoin:miter;stroke:rgb(0%,0%,0%);stroke-opacity:1;stroke-miterlimit:4;" d="M 29.520797 353.018611 C 29.520797 358.635982 24.964459 363.186534 19.34649 363.186534 C 13.728521 363.186534 9.176314 358.635982 9.176314 353.018611 C 9.176314 347.401241 13.728521 342.844661 19.34649 342.844661 C 24.964459 342.844661 29.520797 347.401241 29.520797 353.018611 Z M 29.520797 353.018611 " transform="matrix(0.945626,0,0,0.648101,18.615603,14.524597)"/>
<path style=" stroke:none;fill-rule:nonzero;fill:rgb(0%,0%,0%);fill-opacity:1;" d="M 30.976562 245.289062 L 32.429688 245.289062 L 32.429688 240.894531 C 31.851562 240.894531 31.296875 240.921875 30.808594 240.964844 L 30.808594 240.214844 C 31.660156 240.101562 32.390625 239.933594 32.996094 239.695312 L 34.066406 239.695312 L 34.066406 245.289062 L 35.519531 245.289062 L 35.519531 246.1875 L 30.976562 246.1875 Z M 30.976562 245.289062 "/>
<path style=" stroke:none;fill-rule:nonzero;fill:rgb(0%,0%,0%);fill-opacity:1;" d="M 38.132812 245.289062 L 39.585938 245.289062 L 39.585938 240.894531 C 39.007812 240.894531 38.453125 240.921875 37.964844 240.964844 L 37.964844 240.214844 C 38.8125 240.101562 39.546875 239.933594 40.152344 239.695312 L 41.222656 239.695312 L 41.222656 245.289062 L 42.675781 245.289062 L 42.675781 246.1875 L 38.132812 246.1875 Z M 38.132812 245.289062 "/>
<path style="fill-rule:nonzero;fill:rgb(100%,100%,100%);fill-opacity:1;stroke-width:1.047;stroke-linecap:butt;stroke-linejoin:miter;stroke:rgb(0%,0%,0%);stroke-opacity:1;stroke-miterlimit:4;" d="M 59.932184 319.326442 C 59.932184 324.943813 55.379977 329.494365 49.762008 329.494365 C 44.144039 329.494365 39.591832 324.943813 39.591832 319.326442 C 39.591832 313.709071 44.144039 309.152492 49.762008 309.152492 C 55.379977 309.152492 59.932184 313.709071 59.932184 319.326442 Z M 59.932184 319.326442 " transform="matrix(0.945626,0,0,0.648101,18.615603,14.524597)"/>
<path style=" stroke:none;fill-rule:nonzero;fill:rgb(0%,0%,0%);fill-opacity:1;" d="M 59.738281 223.449219 L 61.195312 223.449219 L 61.195312 219.058594 C 60.613281 219.058594 60.058594 219.085938 59.570312 219.128906 L 59.570312 218.378906 C 60.421875 218.265625 61.15625 218.09375 61.761719 217.859375 L 62.828125 217.859375 L 62.828125 223.449219 L 64.28125 223.449219 L 64.28125 224.351562 L 59.738281 224.351562 Z M 59.738281 223.449219 "/>
<path style=" stroke:none;fill-rule:nonzero;fill:rgb(0%,0%,0%);fill-opacity:1;" d="M 65.878906 223.195312 C 66.457031 222.542969 67.34375 222.046875 68.375 221.503906 C 69.636719 220.832031 70.433594 220.410156 70.433594 219.695312 C 70.433594 219.167969 69.921875 218.839844 69.097656 218.839844 C 68.246094 218.839844 67.628906 219.226562 67.523438 219.835938 L 65.929688 219.632812 C 66.238281 218.519531 67.433594 217.859375 69.160156 217.859375 C 70.960938 217.859375 72.132812 218.644531 72.132812 219.746094 C 72.132812 220.65625 71.308594 221.273438 69.816406 222.03125 C 68.695312 222.605469 67.859375 222.949219 67.578125 223.335938 L 72.082031 223.335938 L 72.082031 224.351562 L 65.878906 224.351562 Z M 65.878906 223.195312 "/>
<path style="fill-rule:nonzero;fill:rgb(100%,100%,100%);fill-opacity:1;stroke-width:1.047;stroke-linecap:butt;stroke-linejoin:miter;stroke:rgb(0%,0%,0%);stroke-opacity:1;stroke-miterlimit:4;" d="M 70.234547 258.668483 C 70.234547 264.285854 65.68234 268.842433 60.064371 268.842433 C 54.446402 268.842433 49.890064 264.285854 49.890064 258.668483 C 49.890064 253.051112 54.446402 248.50056 60.064371 248.50056 C 65.68234 248.50056 70.234547 253.051112 70.234547 258.668483 Z M 70.234547 258.668483 " transform="matrix(0.945626,0,0,0.648101,18.615603,14.524597)"/>
<path style=" stroke:none;fill-rule:nonzero;fill:rgb(0%,0%,0%);fill-opacity:1;" d="M 69.480469 184.140625 L 70.933594 184.140625 L 70.933594 179.75 C 70.355469 179.75 69.800781 179.777344 69.3125 179.820312 L 69.3125 179.070312 C 70.160156 178.957031 70.894531 178.785156 71.5 178.550781 L 72.566406 178.550781 L 72.566406 184.140625 L 74.023438 184.140625 L 74.023438 185.042969 L 69.480469 185.042969 Z M 69.480469 184.140625 "/>
<path style=" stroke:none;fill-rule:nonzero;fill:rgb(0%,0%,0%);fill-opacity:1;" d="M 77.035156 183.453125 C 77.382812 183.921875 77.949219 184.167969 78.683594 184.167969 C 79.621094 184.167969 80.339844 183.640625 80.339844 182.820312 C 80.339844 182.132812 79.710938 181.683594 78.773438 181.683594 C 78.152344 181.683594 77.652344 181.882812 77.355469 182.253906 L 76.03125 182.042969 L 76.417969 178.648438 L 81.410156 178.648438 L 81.410156 179.671875 L 77.664062 179.671875 L 77.5625 181.101562 C 77.921875 180.863281 78.425781 180.738281 79.144531 180.738281 C 80.84375 180.738281 82.042969 181.585938 82.042969 182.871094 C 82.042969 184.265625 80.765625 185.148438 78.707031 185.148438 C 77.253906 185.148438 76.1875 184.726562 75.582031 183.941406 Z M 77.035156 183.453125 "/>
<path style="fill-rule:nonzero;fill:rgb(100%,100%,100%);fill-opacity:1;stroke-width:1.047;stroke-linecap:butt;stroke-linejoin:miter;stroke:rgb(0%,0%,0%);stroke-opacity:1;stroke-miterlimit:4;" d="M 72.717193 185.962108 C 72.717193 191.579479 68.164986 196.136058 62.547018 196.136058 C 56.929049 196.136058 52.376842 191.579479 52.376842 185.962108 C 52.376842 180.344737 56.929049 175.788158 62.547018 175.788158 C 68.164986 175.788158 72.717193 180.344737 72.717193 185.962108 Z M 72.717193 185.962108 " transform="matrix(0.945626,0,0,0.648101,18.615603,14.524597)"/>
<path style=" stroke:none;fill-rule:nonzero;fill:rgb(0%,0%,0%);fill-opacity:1;" d="M 71.828125 137.019531 L 73.28125 137.019531 L 73.28125 132.628906 C 72.703125 132.628906 72.148438 132.652344 71.660156 132.699219 L 71.660156 131.949219 C 72.507812 131.832031 73.242188 131.664062 73.847656 131.425781 L 74.917969 131.425781 L 74.917969 137.019531 L 76.371094 137.019531 L 76.371094 137.921875 L 71.828125 137.921875 Z M 71.828125 137.019531 "/>
<path style=" stroke:none;fill-rule:nonzero;fill:rgb(0%,0%,0%);fill-opacity:1;" d="M 82.382812 132.574219 L 78.007812 132.574219 L 78.007812 131.523438 L 84.328125 131.523438 L 84.328125 132.230469 L 80.605469 137.972656 L 78.777344 137.972656 Z M 82.382812 132.574219 "/>
<path style="fill-rule:nonzero;fill:rgb(100%,100%,100%);fill-opacity:1;stroke-width:1.047;stroke-linecap:butt;stroke-linejoin:miter;stroke:rgb(0%,0%,0%);stroke-opacity:1;stroke-miterlimit:4;" d="M 66.223482 231.413387 C 66.223482 237.030757 61.671275 241.587337 56.053307 241.587337 C 50.435338 241.587337 45.879 237.030757 45.879 231.413387 C 45.879 225.796016 50.435338 221.245464 56.053307 221.245464 C 61.671275 221.245464 66.223482 225.796016 66.223482 231.413387 Z M 66.223482 231.413387 " transform="matrix(0.945626,0,0,0.648101,18.615603,14.524597)"/>
<path style=" stroke:none;fill-rule:nonzero;fill:rgb(0%,0%,0%);fill-opacity:1;" d="M 65.6875 166.476562 L 67.140625 166.476562 L 67.140625 162.085938 C 66.5625 162.085938 66.007812 162.109375 65.519531 162.15625 L 65.519531 161.40625 C 66.367188 161.289062 67.101562 161.121094 67.707031 160.886719 L 68.777344 160.886719 L 68.777344 166.476562 L 70.230469 166.476562 L 70.230469 167.378906 L 65.6875 167.378906 Z M 65.6875 166.476562 "/>
<path style=" stroke:none;fill-rule:nonzero;fill:rgb(0%,0%,0%);fill-opacity:1;" d="M 75.496094 163.277344 C 77.140625 163.277344 78.328125 164.125 78.328125 165.304688 C 78.328125 166.671875 77.105469 167.484375 75.082031 167.484375 C 72.972656 167.484375 71.789062 166.441406 71.789062 164.519531 C 71.789062 162.226562 73.332031 160.886719 75.675781 160.886719 C 76.589844 160.886719 77.410156 161.035156 78.082031 161.371094 L 77.375 162.234375 C 76.78125 161.980469 76.265625 161.839844 75.660156 161.839844 C 74.515625 161.839844 73.574219 162.554688 73.472656 163.78125 C 74.066406 163.441406 74.722656 163.277344 75.496094 163.277344 Z M 75.132812 166.519531 C 76.035156 166.519531 76.691406 166.0625 76.691406 165.398438 C 76.691406 164.667969 76.046875 164.21875 75.121094 164.21875 C 74.324219 164.21875 73.652344 164.527344 73.421875 165.003906 C 73.488281 165.984375 74.128906 166.519531 75.132812 166.519531 Z M 75.132812 166.519531 "/>
<path style="fill-rule:nonzero;fill:rgb(100%,100%,100%);fill-opacity:1;stroke-width:1.047;stroke-linecap:butt;stroke-linejoin:miter;stroke:rgb(0%,0%,0%);stroke-opacity:1;stroke-miterlimit:4;" d="M 101.938893 240.345729 C 101.938893 245.9631 97.382555 250.513652 91.764586 250.513652 C 86.146617 250.513652 81.59441 245.9631 81.59441 240.345729 C 81.59441 234.728359 86.146617 230.171779 91.764586 230.171779 C 97.382555 230.171779 101.938893 234.728359 101.938893 240.345729 Z M 101.938893 240.345729 " transform="matrix(0.945626,0,0,0.648101,18.615603,14.524597)"/>
<path style=" stroke:none;fill-rule:nonzero;fill:rgb(0%,0%,0%);fill-opacity:1;" d="M 99.460938 172.265625 L 100.914062 172.265625 L 100.914062 167.871094 C 100.335938 167.871094 99.78125 167.898438 99.292969 167.941406 L 99.292969 167.191406 C 100.140625 167.078125 100.875 166.910156 101.480469 166.671875 L 102.546875 166.671875 L 102.546875 172.265625 L 104.003906 172.265625 L 104.003906 173.164062 L 99.460938 173.164062 Z M 99.460938 172.265625 "/>
<path style=" stroke:none;fill-rule:nonzero;fill:rgb(0%,0%,0%);fill-opacity:1;" d="M 105.765625 168.257812 C 105.765625 167.296875 106.886719 166.671875 108.804688 166.671875 C 110.757812 166.671875 111.851562 167.304688 111.851562 168.320312 C 111.851562 168.957031 111.375 169.449219 110.4375 169.75 C 111.648438 170.183594 112.1875 170.703125 112.1875 171.46875 C 112.1875 172.570312 110.953125 173.269531 108.699219 173.269531 C 106.601562 173.269531 105.390625 172.578125 105.390625 171.496094 C 105.390625 170.726562 105.984375 170.183594 107.207031 169.777344 C 106.203125 169.386719 105.765625 168.9375 105.765625 168.257812 Z M 107.089844 171.453125 C 107.089844 171.964844 107.722656 172.328125 108.738281 172.328125 C 109.871094 172.328125 110.527344 171.980469 110.527344 171.445312 C 110.527344 170.976562 109.921875 170.589844 108.714844 170.28125 C 107.644531 170.527344 107.089844 170.941406 107.089844 171.453125 Z M 110.242188 168.300781 C 110.242188 167.855469 109.730469 167.570312 108.855469 167.570312 C 107.925781 167.570312 107.398438 167.835938 107.398438 168.257812 C 107.398438 168.753906 107.902344 169.097656 108.867188 169.253906 C 109.808594 169.054688 110.242188 168.761719 110.242188 168.300781 Z M 110.242188 168.300781 "/>
<path style="fill-rule:nonzero;fill:rgb(100%,100%,100%);fill-opacity:1;stroke-width:1.047;stroke-linecap:butt;stroke-linejoin:miter;stroke:rgb(0%,0%,0%);stroke-opacity:1;stroke-miterlimit:4;" d="M 136.807477 212.44572 C 136.807477 218.063091 132.251139 222.61967 126.63317 222.61967 C 121.015201 222.61967 116.462994 218.063091 116.462994 212.44572 C 116.462994 206.828349 121.015201 202.27177 126.63317 202.27177 C 132.251139 202.27177 136.807477 206.828349 136.807477 212.44572 Z M 136.807477 212.44572 " transform="matrix(0.945626,0,0,0.648101,18.615603,14.524597)"/>
<path style=" stroke:none;fill-rule:nonzero;fill:rgb(0%,0%,0%);fill-opacity:1;" d="M 132.429688 154.183594 L 133.882812 154.183594 L 133.882812 149.789062 C 133.304688 149.789062 132.75 149.816406 132.261719 149.859375 L 132.261719 149.109375 C 133.113281 148.996094 133.847656 148.828125 134.449219 148.589844 L 135.519531 148.589844 L 135.519531 154.183594 L 136.972656 154.183594 L 136.972656 155.082031 L 132.429688 155.082031 Z M 132.429688 154.183594 "/>
<path style=" stroke:none;fill-rule:nonzero;fill:rgb(0%,0%,0%);fill-opacity:1;" d="M 141.207031 152.789062 C 139.5625 152.789062 138.375 151.953125 138.375 150.769531 C 138.375 149.402344 139.597656 148.589844 141.621094 148.589844 C 143.691406 148.589844 144.914062 149.640625 144.914062 151.554688 C 144.914062 153.847656 143.371094 155.1875 141.027344 155.1875 C 140.074219 155.1875 139.265625 155.019531 138.632812 154.703125 L 139.328125 153.839844 C 139.921875 154.097656 140.433594 154.234375 141.039062 154.234375 C 142.183594 154.234375 143.125 153.511719 143.226562 152.285156 C 142.636719 152.621094 141.980469 152.789062 141.207031 152.789062 Z M 141.570312 149.542969 C 140.667969 149.542969 140.011719 150.011719 140.011719 150.671875 C 140.011719 151.402344 140.65625 151.851562 141.582031 151.851562 C 142.378906 151.851562 143.050781 151.535156 143.28125 151.058594 C 143.214844 150.082031 142.570312 149.542969 141.570312 149.542969 Z M 141.570312 149.542969 "/>
<path style="fill-rule:nonzero;fill:rgb(100%,100%,100%);fill-opacity:1;stroke-width:1.047;stroke-linecap:butt;stroke-linejoin:miter;stroke:rgb(0%,0%,0%);stroke-opacity:1;stroke-miterlimit:4;" d="M 91.756324 133.71815 C 91.756324 139.335521 87.204117 143.886073 81.586148 143.886073 C 75.96818 143.886073 71.415973 139.335521 71.415973 133.71815 C 71.415973 128.094753 75.96818 123.5442 81.586148 123.5442 C 87.204117 123.5442 91.756324 128.094753 91.756324 133.71815 Z M 91.756324 133.71815 " transform="matrix(0.945626,0,0,0.648101,18.615603,14.524597)"/>
<path style=" stroke:none;fill-rule:nonzero;fill:rgb(0%,0%,0%);fill-opacity:1;" d="M 88.816406 102.902344 C 89.394531 102.25 90.28125 101.753906 91.3125 101.210938 C 92.574219 100.539062 93.371094 100.113281 93.371094 99.402344 C 93.371094 98.871094 92.859375 98.546875 92.03125 98.546875 C 91.183594 98.546875 90.566406 98.933594 90.460938 99.542969 L 88.867188 99.339844 C 89.175781 98.226562 90.371094 97.566406 92.097656 97.566406 C 93.898438 97.566406 95.070312 98.351562 95.070312 99.457031 C 95.070312 100.363281 94.246094 100.980469 92.753906 101.738281 C 91.632812 102.3125 90.796875 102.65625 90.515625 103.046875 L 95.019531 103.046875 L 95.019531 104.058594 L 88.816406 104.058594 Z M 88.816406 102.902344 "/>
<path style=" stroke:none;fill-rule:nonzero;fill:rgb(0%,0%,0%);fill-opacity:1;" d="M 99.191406 97.566406 C 101.390625 97.566406 102.546875 98.6875 102.546875 100.863281 C 102.546875 103.042969 101.390625 104.164062 99.191406 104.164062 C 96.988281 104.164062 95.832031 103.042969 95.832031 100.863281 C 95.832031 98.683594 96.988281 97.566406 99.191406 97.566406 Z M 99.191406 103.175781 C 100.296875 103.175781 100.875 102.398438 100.875 100.863281 C 100.875 99.332031 100.296875 98.542969 99.191406 98.542969 C 98.09375 98.542969 97.492188 99.332031 97.492188 100.863281 C 97.492188 102.398438 98.09375 103.175781 99.191406 103.175781 Z M 99.191406 103.175781 "/>
<path style="fill-rule:nonzero;fill:rgb(100%,100%,100%);fill-opacity:1;stroke-width:1.047;stroke-linecap:butt;stroke-linejoin:miter;stroke:rgb(0%,0%,0%);stroke-opacity:1;stroke-miterlimit:4;" d="M 127.876559 80.148204 C 127.876559 85.765575 123.324352 90.316127 117.706383 90.316127 C 112.088414 90.316127 107.532076 85.765575 107.532076 80.148204 C 107.532076 74.530833 112.088414 69.974254 117.706383 69.974254 C 123.324352 69.974254 127.876559 74.530833 127.876559 80.148204 Z M 127.876559 80.148204 " transform="matrix(0.945626,0,0,0.648101,18.615603,14.524597)"/>
<path style=" stroke:none;fill-rule:nonzero;fill:rgb(0%,0%,0%);fill-opacity:1;" d="M 122.96875 68.183594 C 123.550781 67.53125 124.4375 67.039062 125.46875 66.492188 C 126.730469 65.820312 127.527344 65.398438 127.527344 64.683594 C 127.527344 64.15625 127.011719 63.828125 126.1875 63.828125 C 125.339844 63.828125 124.71875 64.214844 124.617188 64.824219 L 123.019531 64.621094 C 123.332031 63.511719 124.527344 62.847656 126.253906 62.847656 C 128.054688 62.847656 129.226562 63.632812 129.226562 64.738281 C 129.226562 65.644531 128.402344 66.261719 126.910156 67.023438 C 125.789062 67.59375 124.953125 67.941406 124.667969 68.328125 L 129.175781 68.328125 L 129.175781 69.339844 L 122.96875 69.339844 Z M 122.96875 68.183594 "/>
<path style=" stroke:none;fill-rule:nonzero;fill:rgb(0%,0%,0%);fill-opacity:1;" d="M 131.144531 68.441406 L 132.597656 68.441406 L 132.597656 64.050781 C 132.019531 64.050781 131.464844 64.074219 130.976562 64.117188 L 130.976562 63.367188 C 131.824219 63.253906 132.558594 63.085938 133.164062 62.847656 L 134.230469 62.847656 L 134.230469 68.441406 L 135.6875 68.441406 L 135.6875 69.339844 L 131.140625 69.339844 Z M 131.144531 68.441406 "/>
<path style="fill-rule:nonzero;fill:rgb(100%,100%,100%);fill-opacity:1;stroke-width:1.047;stroke-linecap:butt;stroke-linejoin:miter;stroke:rgb(0%,0%,0%);stroke-opacity:1;stroke-miterlimit:4;" d="M 79.776832 361.691783 C 79.776832 367.309154 75.224625 371.865733 69.606656 371.865733 C 63.988687 371.865733 59.43235 367.309154 59.43235 361.691783 C 59.43235 356.074413 63.988687 351.517833 69.606656 351.517833 C 75.224625 351.517833 79.776832 356.074413 79.776832 361.691783 Z M 79.776832 361.691783 " transform="matrix(0.945626,0,0,0.648101,18.615603,14.524597)"/>
<path style=" stroke:none;fill-rule:nonzero;fill:rgb(0%,0%,0%);fill-opacity:1;" d="M 78.503906 250.910156 L 79.957031 250.910156 L 79.957031 246.519531 C 79.378906 246.519531 78.824219 246.542969 78.335938 246.589844 L 78.335938 245.839844 C 79.183594 245.722656 79.917969 245.554688 80.523438 245.316406 L 81.589844 245.316406 L 81.589844 250.910156 L 83.046875 250.910156 L 83.046875 251.8125 L 78.503906 251.8125 Z M 78.503906 250.910156 "/>
<path style=" stroke:none;fill-rule:nonzero;fill:rgb(0%,0%,0%);fill-opacity:1;" d="M 85.582031 250.089844 C 86.109375 250.65625 86.714844 250.929688 87.488281 250.929688 C 88.441406 250.929688 89.097656 250.496094 89.097656 249.933594 C 89.097656 249.234375 88.285156 248.894531 86.636719 248.894531 C 86.535156 248.894531 86.433594 248.894531 86.328125 248.894531 L 86.328125 247.933594 C 86.457031 247.941406 86.585938 247.941406 86.714844 247.941406 C 88.117188 247.941406 88.839844 247.613281 88.839844 247.039062 C 88.839844 246.582031 88.324219 246.253906 87.488281 246.253906 C 86.792969 246.253906 86.199219 246.46875 85.761719 246.890625 L 84.617188 246.273438 C 85.25 245.664062 86.289062 245.320312 87.578125 245.320312 C 89.367188 245.320312 90.472656 245.988281 90.472656 246.941406 C 90.472656 247.605469 90.007812 248.082031 89.109375 248.363281 C 90.175781 248.574219 90.769531 249.148438 90.769531 249.984375 C 90.769531 251.175781 89.558594 251.914062 87.578125 251.914062 C 86.046875 251.914062 84.925781 251.492188 84.242188 250.65625 Z M 85.582031 250.089844 "/>
<path style="fill-rule:nonzero;fill:rgb(100%,100%,100%);fill-opacity:1;stroke-width:1.047;stroke-linecap:butt;stroke-linejoin:miter;stroke:rgb(0%,0%,0%);stroke-opacity:1;stroke-miterlimit:4;" d="M 117.318082 325.763515 C 117.318082 331.380885 112.765875 335.931438 107.147906 335.931438 C 101.529937 335.931438 96.9736 331.380885 96.9736 325.763515 C 96.9736 320.146144 101.529937 315.589565 107.147906 315.589565 C 112.765875 315.589565 117.318082 320.146144 117.318082 325.763515 Z M 117.318082 325.763515 " transform="matrix(0.945626,0,0,0.648101,18.615603,14.524597)"/>
<path style=" stroke:none;fill-rule:nonzero;fill:rgb(0%,0%,0%);fill-opacity:1;" d="M 114.003906 227.625 L 115.457031 227.625 L 115.457031 223.230469 C 114.878906 223.230469 114.324219 223.257812 113.835938 223.300781 L 113.835938 222.550781 C 114.683594 222.4375 115.417969 222.269531 116.023438 222.03125 L 117.09375 222.03125 L 117.09375 227.625 L 118.546875 227.625 L 118.546875 228.523438 L 114.003906 228.523438 Z M 114.003906 227.625 "/>
<path style=" stroke:none;fill-rule:nonzero;fill:rgb(0%,0%,0%);fill-opacity:1;" d="M 123.886719 227.058594 L 119.71875 227.058594 L 119.71875 225.914062 L 123.707031 222.109375 L 125.445312 222.109375 L 125.445312 226.132812 L 126.785156 226.132812 L 126.785156 227.058594 L 125.445312 227.058594 L 125.445312 228.578125 L 123.886719 228.578125 Z M 123.914062 226.140625 L 123.914062 223.363281 L 120.992188 226.140625 Z M 123.914062 226.140625 "/>
<path style=" stroke:none;fill-rule:nonzero;fill:rgb(100%,100%,100%);fill-opacity:1;" d="M 251.851562 110.5 C 251.851562 111.550781 250.609375 112.398438 249.078125 112.398438 C 247.546875 112.398438 246.304688 111.550781 246.304688 110.5 C 246.304688 109.449219 247.546875 108.597656 249.078125 108.597656 C 250.609375 108.597656 251.851562 109.449219 251.851562 110.5 Z M 251.851562 110.5 "/>
<path style=" stroke:none;fill-rule:nonzero;fill:rgb(100%,100%,100%);fill-opacity:1;" d="M 375.027344 9.523438 C 375.027344 10.574219 373.785156 11.421875 372.253906 11.421875 C 370.722656 11.421875 369.484375 10.574219 369.484375 9.523438 C 369.484375 8.472656 370.722656 7.621094 372.253906 7.621094 C 373.785156 7.621094 375.027344 8.472656 375.027344 9.523438 Z M 375.027344 9.523438 "/>
<path style="fill-rule:nonzero;fill:rgb(100%,100%,100%);fill-opacity:1;stroke-width:1.047;stroke-linecap:butt;stroke-linejoin:miter;stroke:rgb(0%,0%,0%);stroke-opacity:1;stroke-miterlimit:4;" d="M 402.334986 -11.712682 C 402.334986 -6.095311 397.782779 -1.544759 392.164811 -1.544759 C 386.546842 -1.544759 381.990504 -6.095311 381.990504 -11.712682 C 381.990504 -17.336079 386.546842 -21.886632 392.164811 -21.886632 C 397.782779 -21.886632 402.334986 -17.336079 402.334986 -11.712682 Z M 402.334986 -11.712682 " transform="matrix(0.945626,0,0,0.648101,18.615603,14.524597)"/>
<path style=" stroke:none;fill-rule:nonzero;fill:rgb(0%,0%,0%);fill-opacity:1;" d="M 390.5 4.457031 L 386.121094 4.457031 L 386.121094 3.40625 L 392.441406 3.40625 L 392.441406 4.113281 L 388.722656 9.855469 L 386.894531 9.855469 Z M 390.5 4.457031 "/>
<path style=" stroke:none;fill-rule:nonzero;fill:rgb(0%,0%,0%);fill-opacity:1;" d="M 352.292969 38.714844 C 352.640625 39.183594 353.207031 39.429688 353.941406 39.429688 C 354.878906 39.429688 355.601562 38.902344 355.601562 38.082031 C 355.601562 37.390625 354.972656 36.941406 354.03125 36.941406 C 353.414062 36.941406 352.910156 37.144531 352.617188 37.515625 L 351.292969 37.304688 L 351.675781 33.910156 L 356.671875 33.910156 L 356.671875 34.933594 L 352.925781 34.933594 L 352.824219 36.363281 C 353.183594 36.121094 353.683594 36 354.40625 36 C 356.105469 36 357.304688 36.847656 357.304688 38.132812 C 357.304688 39.527344 356.027344 40.410156 353.972656 40.410156 C 352.515625 40.410156 351.449219 39.988281 350.839844 39.203125 Z M 352.292969 38.714844 "/>
</g>
</svg>
