<?xml version="1.0" encoding="UTF-8"?>
<svg xmlns="http://www.w3.org/2000/svg" xmlns:xlink="http://www.w3.org/1999/xlink" width="400pt" height="256pt" viewBox="0 0 400 256" version="1.1">
<g id="surface1">
<path style=" stroke:none;fill-rule:nonzero;fill:rgb(0%,0%,0%);fill-opacity:1;" d="M 155.714844 4.890625 C 156 5.214844 156.855469 5.433594 157.617188 5.433594 C 159.90625 5.433594 162.855469 8.203125 162.855469 10.324219 C 162.855469 11.953125 162.285156 12.714844 159.90625 13.800781 C 158.285156 14.558594 155.808594 15.265625 154.476562 15.265625 C 152.285156 15.375 152.191406 15.375 154 15.59375 C 156.570312 15.863281 161.523438 14.453125 162.855469 13.09375 C 163.332031 12.496094 163.808594 11.082031 163.808594 9.941406 C 163.808594 8.3125 163.144531 7.496094 161.238281 6.410156 C 158.476562 5 154.667969 3.910156 155.714844 4.890625 Z M 155.714844 4.890625 "/>
<path style=" stroke:none;fill-rule:nonzero;fill:rgb(0%,0%,0%);fill-opacity:1;" d="M 148.09375 5.976562 C 147.144531 6.574219 146.667969 7.226562 146.953125 7.441406 C 147.332031 7.605469 147.617188 7.496094 147.617188 7.171875 C 147.617188 6.84375 148.761719 6.195312 150.285156 5.757812 C 151.808594 5.269531 152.285156 4.945312 151.332031 4.890625 C 150.476562 4.890625 149.046875 5.378906 148.09375 5.976562 Z M 148.09375 5.976562 "/>
<path style=" stroke:none;fill-rule:nonzero;fill:rgb(0%,0%,0%);fill-opacity:1;" d="M 153.523438 7.714844 C 152.191406 8.476562 152 9.453125 153.238281 8.964844 C 153.714844 8.800781 154.382812 9.453125 154.570312 10.429688 C 154.855469 11.84375 154.953125 11.625 155.046875 9.617188 C 155.238281 6.84375 155.238281 6.738281 153.523438 7.714844 Z M 153.523438 7.714844 "/>
<path style=" stroke:none;fill-rule:nonzero;fill:rgb(0%,0%,0%);fill-opacity:1;" d="M 144.855469 10.429688 C 144.761719 11.246094 145.714844 12.441406 146.953125 13.148438 C 148.09375 13.855469 148.476562 14.015625 147.714844 13.472656 C 147.046875 12.984375 146.09375 11.734375 145.714844 10.757812 C 145.046875 9.074219 144.953125 9.074219 144.855469 10.429688 Z M 144.855469 10.429688 "/>
<path style=" stroke:none;fill-rule:nonzero;fill:rgb(0%,0%,0%);fill-opacity:1;" d="M 143.238281 18.960938 C 141.046875 19.558594 138.476562 20.753906 137.332031 21.839844 C 136.191406 22.871094 124.191406 40.3125 110.570312 60.632812 C 96.855469 80.894531 85.332031 97.574219 84.761719 97.683594 C 83.523438 97.957031 83.523438 99.421875 84.667969 99.421875 C 85.238281 99.421875 85.90625 99.152344 86.191406 98.878906 C 87.144531 97.957031 88.570312 98.28125 88.570312 99.421875 C 88.570312 100.019531 89.046875 100.507812 89.523438 100.507812 C 90.09375 100.507812 90.476562 100.890625 90.476562 101.324219 C 90.476562 101.757812 90.953125 102.140625 91.429688 102.140625 C 92.667969 102.140625 92.667969 101.214844 91.429688 100.78125 C 90.855469 100.5625 90.761719 100.074219 91.332031 99.53125 C 91.808594 99.042969 100.191406 86.601562 110 71.988281 C 119.808594 57.316406 128.285156 45.09375 128.761719 44.820312 C 129.429688 44.441406 129.617188 45.363281 129.238281 47.539062 C 128.855469 49.710938 126.761719 53.625 122.855469 59.21875 C 119.617188 63.835938 114.667969 71.171875 111.714844 75.519531 C 102.285156 89.804688 95.90625 98.609375 94.476562 99.585938 C 93.332031 100.292969 93.238281 100.671875 94.09375 101.160156 C 95.714844 102.085938 95.523438 102.683594 93.714844 102.683594 C 92.855469 102.683594 91.332031 103.226562 90.285156 103.878906 L 88.476562 105.128906 L 88.855469 103.605469 C 89.332031 101.976562 87.90625 101.050781 86.570312 102.195312 C 85.808594 102.953125 84.285156 102.464844 84.285156 101.433594 C 84.285156 101.160156 83.714844 100.78125 83.144531 100.617188 C 82.382812 100.507812 81.90625 100.945312 81.90625 101.8125 C 81.90625 102.574219 74.855469 113.765625 66.191406 126.585938 C 45.617188 157.230469 47.144531 154.402344 47.238281 162.171875 C 47.332031 167.714844 47.714844 169.289062 49.808594 172.660156 C 52.761719 177.546875 58.855469 182.980469 64.570312 185.804688 C 69.144531 188.144531 70.476562 188.414062 70.476562 187.164062 C 70.476562 186.785156 71.144531 186.1875 72.09375 185.914062 C 73.429688 185.480469 72.855469 184.9375 68.476562 182.492188 C 61.808594 178.742188 57.617188 174.558594 55.238281 169.183594 C 51.617188 161.195312 52.570312 157.664062 62 143.59375 C 65.808594 137.941406 69.046875 133.050781 69.238281 132.671875 C 69.523438 132.292969 68.953125 132.019531 67.714844 132.019531 C 65.046875 132.019531 64.09375 130.554688 65.90625 129.46875 C 67.046875 128.871094 67.808594 128.816406 69.332031 129.25 C 71.046875 129.792969 71.617188 129.140625 78.09375 119.46875 C 85.046875 109.257812 85.144531 109.148438 89.808594 107.246094 C 92.953125 105.941406 94.285156 105.074219 93.90625 104.476562 C 93.523438 103.988281 94 103.550781 95.238281 103.390625 C 97.429688 103.0625 97.617188 102.628906 96 101.703125 C 95.046875 101.160156 95.238281 100.945312 96.855469 100.726562 C 98.191406 100.507812 99.429688 99.53125 100.476562 97.902344 C 101.429688 96.488281 102.761719 94.585938 103.429688 93.71875 C 104.667969 92.144531 120.476562 68.835938 129.238281 55.6875 L 133.523438 49.167969 L 132.855469 44.0625 L 132.191406 38.953125 L 137.238281 31.347656 C 142.855469 22.980469 144.761719 21.730469 151.523438 21.730469 C 159.90625 21.730469 169.523438 25.371094 169.523438 28.523438 C 169.523438 29.285156 165.808594 35.421875 161.238281 42.214844 C 156.761719 49.003906 152.855469 55.6875 152.570312 57.101562 C 152.285156 58.949219 152.953125 60.742188 155.238281 64.433594 C 158.667969 69.867188 159.714844 73.289062 158.285156 74.8125 C 157.714844 75.410156 148.761719 78.667969 138.382812 82.089844 C 117.90625 88.828125 114.382812 90.296875 112 93.121094 C 110.09375 95.457031 110 99.53125 112 101.703125 C 113.429688 103.335938 113.523438 103.335938 114.855469 102.195312 C 115.714844 101.488281 116.855469 101.214844 117.808594 101.433594 C 119.046875 101.703125 119.238281 101.597656 118.570312 100.726562 C 118.09375 100.183594 117.617188 98.664062 117.332031 97.359375 C 116.953125 95.183594 117.238281 94.859375 120.761719 93.011719 C 122.761719 91.925781 131.617188 88.664062 140.382812 85.839844 C 161.714844 78.941406 162.09375 78.777344 164 76.605469 C 166.761719 73.5625 166.191406 69.703125 162.382812 64.109375 C 160.570312 61.445312 159.046875 58.621094 159.046875 57.804688 C 159.046875 57.046875 160.761719 53.894531 162.855469 50.851562 C 172.285156 37.050781 176.191406 30.480469 176.191406 28.414062 C 176.191406 25.589844 173.238281 23.089844 167.144531 20.753906 L 162.382812 18.90625 L 161.90625 20.210938 C 161.238281 21.730469 157.617188 22.222656 156.761719 20.863281 C 156.476562 20.375 156.570312 19.667969 157.144531 19.285156 C 157.617188 18.960938 157.808594 18.472656 157.429688 18.308594 C 156.191406 17.546875 147.046875 17.984375 143.238281 18.960938 Z M 143.238281 18.960938 "/>
<path style=" stroke:none;fill-rule:nonzero;fill:rgb(0%,0%,0%);fill-opacity:1;" d="M 340.761719 68.347656 C 339.238281 68.835938 338.09375 69.488281 338.09375 69.757812 C 338.09375 70.03125 338.953125 69.8125 339.90625 69.324219 C 340.855469 68.835938 342.953125 68.183594 344.382812 67.910156 C 346.382812 67.585938 346.570312 67.476562 345.238281 67.421875 C 344.191406 67.421875 342.191406 67.804688 340.761719 68.347656 Z M 340.761719 68.347656 "/>
<path style=" stroke:none;fill-rule:nonzero;fill:rgb(0%,0%,0%);fill-opacity:1;" d="M 351.238281 69.050781 C 352.476562 69.867188 353.808594 71.171875 354.285156 72.039062 C 355.046875 73.5625 355.046875 73.5625 355.144531 72.257812 C 355.144531 70.792969 354 69.757812 350.953125 68.453125 C 349.429688 67.804688 349.429688 67.964844 351.238281 69.050781 Z M 351.238281 69.050781 "/>
<path style=" stroke:none;fill-rule:nonzero;fill:rgb(0%,0%,0%);fill-opacity:1;" d="M 343.332031 71.117188 C 342.570312 72.476562 343.429688 73.34375 345.332031 73.34375 C 346.09375 73.34375 346.667969 73.617188 346.667969 73.941406 C 346.667969 74.269531 346 74.375 345.144531 74.214844 C 344.191406 73.996094 343.808594 74.160156 344 74.539062 C 344.285156 74.921875 345.046875 75.246094 345.808594 75.246094 C 347.90625 75.246094 347.617188 70.410156 345.523438 70.195312 C 344.667969 70.085938 343.714844 70.464844 343.332031 71.117188 Z M 346.667969 71.660156 C 346.667969 71.988281 346.285156 72.367188 345.714844 72.53125 C 345.238281 72.691406 344.761719 72.476562 344.761719 72.039062 C 344.761719 71.550781 345.238281 71.171875 345.714844 71.171875 C 346.285156 71.171875 346.667969 71.390625 346.667969 71.660156 Z M 346.667969 71.660156 "/>
<path style=" stroke:none;fill-rule:nonzero;fill:rgb(0%,0%,0%);fill-opacity:1;" d="M 275.617188 72.039062 C 273.90625 72.855469 273.90625 72.855469 275.90625 72.3125 C 281.046875 70.84375 287.808594 72.636719 288.855469 75.679688 C 289.238281 76.820312 289.238281 76.820312 289.429688 75.625 C 289.617188 73.671875 284.667969 71.171875 280.761719 71.171875 C 278.953125 71.171875 276.667969 71.550781 275.617188 72.039062 Z M 275.617188 72.039062 "/>
<path style=" stroke:none;fill-rule:nonzero;fill:rgb(0%,0%,0%);fill-opacity:1;" d="M 336.285156 73.183594 C 336.191406 74.269531 337.046875 75.464844 338.570312 76.496094 C 339.90625 77.417969 340.953125 78.34375 340.953125 78.667969 C 340.953125 79.375 334.855469 88.449219 334 88.882812 C 333.714844 89.046875 329.046875 88.449219 323.617188 87.523438 C 305.714844 84.480469 293.046875 83.503906 283.90625 84.535156 C 281.046875 84.863281 280.953125 84.972656 282.476562 85.894531 C 283.332031 86.4375 283.808594 87.199219 283.523438 87.578125 C 283.144531 88.175781 285.144531 88.339844 292.761719 88.285156 C 302.953125 88.285156 307.046875 88.773438 326.285156 92.144531 C 346.570312 95.726562 352.855469 97.847656 356.855469 102.683594 C 358.285156 104.367188 359.046875 104.691406 361.429688 104.636719 C 363.617188 104.585938 364.382812 104.855469 364.570312 105.726562 C 364.953125 107.082031 362.285156 107.898438 360.476562 107.027344 C 359.617188 106.59375 359.144531 107.027344 358.855469 108.875 C 358.476562 110.613281 356.761719 112.679688 352.191406 116.644531 C 337.046875 129.792969 324.761719 144.515625 322.476562 152.230469 C 321.90625 154.1875 321.144531 155.980469 320.761719 156.195312 C 319.90625 156.742188 305.046875 154.566406 296.855469 152.71875 C 278.09375 148.429688 261.238281 142.558594 254.570312 137.886719 C 252.855469 136.691406 251.429688 135.988281 251.429688 136.3125 C 251.429688 137.128906 248.285156 137.074219 246.855469 136.257812 C 244.667969 135.007812 245.617188 137.183594 248.191406 139.410156 C 253.332031 143.808594 264.667969 148.429688 281.144531 152.882812 C 293.332031 156.195312 308.761719 159.402344 315.332031 159.945312 C 322.09375 160.488281 328.191406 159.292969 322.761719 158.480469 C 321.523438 158.261719 320.855469 157.828125 321.144531 157.175781 C 321.523438 155.871094 324.855469 155.597656 326.285156 156.742188 C 327.808594 157.882812 328.191406 157.390625 328.953125 153.644531 C 330.382812 147.015625 343.046875 131.640625 357.617188 118.925781 C 364.855469 112.570312 366.09375 110.613281 365.523438 106.269531 C 364.476562 99.367188 356.855469 94.152344 343.523438 91.273438 C 338.953125 90.296875 335.238281 89.425781 335.238281 89.371094 C 335.238281 88.773438 342.191406 78.941406 343.046875 78.398438 C 343.808594 77.855469 343.714844 77.691406 342.667969 77.691406 C 340.476562 77.691406 337.90625 75.734375 337.144531 73.453125 C 336.382812 71.441406 336.382812 71.441406 336.285156 73.183594 Z M 336.285156 73.183594 "/>
<path style=" stroke:none;fill-rule:nonzero;fill:rgb(0%,0%,0%);fill-opacity:1;" d="M 278.761719 74.269531 C 277.523438 74.921875 278.09375 76.605469 279.523438 76.605469 C 280.285156 76.605469 280.953125 76.984375 280.953125 77.472656 C 280.953125 78.015625 280.382812 78.234375 279.523438 78.015625 C 277.90625 77.691406 277.523438 78.507812 279.046875 79.050781 C 280.285156 79.484375 282.855469 78.34375 282.855469 77.363281 C 282.855469 76.984375 282.191406 76.277344 281.332031 75.84375 C 280.570312 75.355469 280.285156 74.972656 280.855469 74.972656 C 281.429688 74.972656 281.90625 74.703125 281.90625 74.429688 C 281.90625 73.832031 279.714844 73.671875 278.761719 74.269531 Z M 278.761719 74.269531 "/>
<path style=" stroke:none;fill-rule:nonzero;fill:rgb(0%,0%,0%);fill-opacity:1;" d="M 352.570312 75.953125 L 350.382812 77.960938 L 352.855469 76.441406 C 354.191406 75.625 355.238281 74.703125 355.238281 74.375 C 355.238281 73.617188 354.953125 73.777344 352.570312 75.953125 Z M 352.570312 75.953125 "/>
<path style=" stroke:none;fill-rule:nonzero;fill:rgb(0%,0%,0%);fill-opacity:1;" d="M 170.191406 75.734375 C 163.617188 79.210938 167.808594 85.296875 176.953125 85.296875 C 179.714844 85.296875 184.761719 83.503906 184.761719 82.582031 C 184.761719 82.308594 183.714844 82.6875 182.382812 83.394531 C 177.523438 86.222656 169.046875 84.429688 168 80.351562 C 167.238281 77.691406 170.953125 75.136719 176 74.8125 L 179.523438 74.59375 L 176.09375 74.539062 C 173.617188 74.429688 172 74.8125 170.191406 75.734375 Z M 170.191406 75.734375 "/>
<path style=" stroke:none;fill-rule:nonzero;fill:rgb(0%,0%,0%);fill-opacity:1;" d="M 181.238281 75.570312 C 183.523438 76.332031 185.90625 79.484375 185.144531 80.789062 C 184.761719 81.601562 184.761719 81.601562 185.523438 80.949219 C 187.429688 79.265625 183.90625 74.921875 180.667969 74.972656 C 180 74.972656 180.285156 75.246094 181.238281 75.570312 Z M 181.238281 75.570312 "/>
<path style=" stroke:none;fill-rule:nonzero;fill:rgb(0%,0%,0%);fill-opacity:1;" d="M 270.953125 77.417969 C 271.238281 78.941406 272.09375 79.917969 274 80.789062 C 275.429688 81.492188 277.144531 82.039062 277.617188 82.039062 C 278.191406 82.039062 277.429688 81.601562 276 81.113281 C 273.523438 80.246094 272.285156 78.941406 271.046875 76.332031 C 270.761719 75.734375 270.761719 76.222656 270.953125 77.417969 Z M 270.953125 77.417969 "/>
<path style=" stroke:none;fill-rule:nonzero;fill:rgb(0%,0%,0%);fill-opacity:1;" d="M 174.285156 77.417969 C 174.285156 77.910156 174.855469 78.070312 175.714844 77.910156 C 177.617188 77.472656 177.523438 78.070312 175.144531 79.917969 L 173.238281 81.492188 L 175.90625 81.492188 C 177.523438 81.492188 178.09375 81.332031 177.429688 81.058594 C 176.667969 80.789062 176.570312 80.351562 177.144531 79.863281 C 178.761719 78.398438 178.285156 76.605469 176.191406 76.605469 C 175.144531 76.605469 174.285156 76.984375 174.285156 77.417969 Z M 174.285156 77.417969 "/>
<path style=" stroke:none;fill-rule:nonzero;fill:rgb(0%,0%,0%);fill-opacity:1;" d="M 288.191406 78.507812 C 287.332031 79.917969 287.523438 80.246094 288.667969 79.15625 C 289.238281 78.613281 289.523438 78.015625 289.238281 77.910156 C 289.046875 77.746094 288.570312 78.015625 288.191406 78.507812 Z M 288.191406 78.507812 "/>
<path style=" stroke:none;fill-rule:nonzero;fill:rgb(0%,0%,0%);fill-opacity:1;" d="M 346.191406 78.234375 C 345.429688 78.941406 346.667969 78.941406 348.570312 78.234375 C 349.808594 77.800781 349.808594 77.691406 348.382812 77.691406 C 347.523438 77.691406 346.476562 77.910156 346.191406 78.234375 Z M 346.191406 78.234375 "/>
<path style=" stroke:none;fill-rule:nonzero;fill:rgb(0%,0%,0%);fill-opacity:1;" d="M 285.429688 80.734375 C 285.144531 80.949219 283.429688 81.277344 281.714844 81.492188 C 278.953125 81.875 278.855469 81.929688 281.046875 81.984375 C 282.382812 82.039062 284.285156 81.65625 285.332031 81.222656 C 286.285156 80.789062 286.855469 80.40625 286.570312 80.40625 C 286.285156 80.40625 285.808594 80.570312 285.429688 80.734375 Z M 285.429688 80.734375 "/>
<path style=" stroke:none;fill-rule:nonzero;fill:rgb(0%,0%,0%);fill-opacity:1;" d="M 272.285156 87.6875 C 262.667969 91.546875 248.667969 96.433594 241.332031 98.554688 C 227.90625 102.410156 224.476562 102.738281 210.476562 101.324219 C 206 100.890625 198.382812 100.507812 193.429688 100.507812 C 185.617188 100.507812 184.667969 100.617188 185.714844 101.324219 C 186.382812 101.757812 186.667969 102.628906 186.382812 103.226562 C 185.90625 104.257812 186.382812 104.3125 193.808594 104.3125 C 198.191406 104.3125 205.144531 104.691406 209.238281 105.128906 C 218.953125 106.214844 224.476562 106.214844 222.953125 105.183594 C 221.332031 104.09375 222.761719 102.574219 225.144531 102.792969 C 226.382812 102.898438 227.238281 103.441406 227.429688 104.148438 C 227.714844 105.074219 228.382812 105.398438 230.09375 105.398438 C 233.617188 105.398438 254.953125 98.933594 268.855469 93.664062 C 279.617188 89.535156 280.855469 88.9375 279.429688 88.339844 C 278.382812 87.851562 278 87.199219 278.382812 86.4375 C 278.667969 85.839844 278.761719 85.296875 278.570312 85.296875 C 278.476562 85.296875 275.617188 86.382812 272.285156 87.6875 Z M 272.285156 87.6875 "/>
<path style=" stroke:none;fill-rule:nonzero;fill:rgb(0%,0%,0%);fill-opacity:1;" d="M 219.617188 89.261719 C 216 89.96875 213.238281 93.445312 214.382812 95.835938 C 215.238281 97.574219 218.382812 99.476562 220.382812 99.367188 C 220.953125 99.367188 220.476562 99.097656 219.429688 98.769531 C 212.761719 96.976562 214.285156 90.402344 221.523438 89.589844 C 228 88.882812 233.144531 91.707031 232 95.347656 C 231.238281 97.46875 229.238281 98.609375 224.761719 99.367188 L 221.429688 99.964844 L 224.761719 99.695312 C 230.953125 99.152344 234.667969 95.566406 232.476562 92.25 C 230.761719 89.589844 224.855469 88.230469 219.617188 89.261719 Z M 219.617188 89.261719 "/>
<path style=" stroke:none;fill-rule:nonzero;fill:rgb(0%,0%,0%);fill-opacity:1;" d="M 222.476562 92.632812 C 222.191406 93.066406 222.191406 93.882812 222.476562 94.371094 C 222.855469 95.128906 222.761719 95.183594 222.09375 94.640625 C 221.429688 94.042969 221.046875 94.097656 220.570312 94.859375 C 219.808594 96 220 96.109375 222.953125 96.273438 C 224.285156 96.378906 225.238281 96.164062 225.144531 95.726562 C 225.046875 95.402344 224.953125 94.316406 224.953125 93.445312 C 224.761719 91.707031 223.429688 91.273438 222.476562 92.632812 Z M 222.476562 92.632812 "/>
<path style=" stroke:none;fill-rule:nonzero;fill:rgb(0%,0%,0%);fill-opacity:1;" d="M 78.761719 97.03125 C 78 97.46875 78.855469 98.335938 80.09375 98.335938 C 80.570312 98.335938 80.953125 97.957031 80.953125 97.519531 C 80.953125 96.707031 79.808594 96.433594 78.761719 97.03125 Z M 78.761719 97.03125 "/>
<path style=" stroke:none;fill-rule:nonzero;fill:rgb(0%,0%,0%);fill-opacity:1;" d="M 325.808594 101.757812 C 324 104.476562 321.90625 107.570312 321.238281 108.496094 L 320 110.289062 L 315.90625 108.660156 C 309.523438 106.050781 300.570312 105.234375 282.382812 105.5625 C 244.855469 106.269531 209.808594 111.703125 187.523438 120.285156 C 183.144531 121.96875 176.191406 124.6875 172.09375 126.316406 C 168 127.945312 164.382812 129.304688 164 129.304688 C 163.617188 129.304688 162.191406 128.273438 160.761719 126.96875 C 159.332031 125.71875 156.667969 123.871094 154.855469 122.839844 C 152 121.261719 150.570312 120.9375 146.191406 120.71875 C 141.714844 120.503906 140.382812 120.664062 137.238281 121.859375 C 132.382812 123.707031 129.332031 127.347656 129.429688 131.097656 C 129.429688 133.597656 134.09375 147.339844 142.855469 170.867188 C 147.429688 183.144531 146.667969 186.023438 137.90625 187.871094 C 131.714844 189.175781 125.714844 189.664062 111.429688 189.828125 C 97.332031 190.042969 88.761719 189.390625 81.332031 187.4375 C 77.144531 186.351562 75.523438 186.132812 75.90625 186.675781 C 76.191406 187.109375 75.617188 187.980469 74.761719 188.523438 C 73.144531 189.554688 73.144531 189.609375 77.714844 190.75 C 86 192.871094 91.714844 193.46875 104.285156 193.683594 C 118.09375 193.847656 130.382812 193.25 137.617188 192.054688 C 145.429688 190.804688 152.761719 187.4375 147.808594 187.4375 C 145.332031 187.4375 144.285156 185.859375 146 184.828125 C 147.144531 184.230469 147.808594 184.230469 149.429688 184.664062 C 151.046875 185.207031 151.523438 185.15625 152 184.449219 C 153.332031 182.546875 151.332031 174.886719 145.808594 159.726562 C 142.570312 150.925781 139.046875 141.257812 138 138.269531 C 136.761719 134.792969 136.191406 131.75 136.476562 129.738281 C 136.855469 127.023438 136.761719 126.640625 135.046875 126.425781 C 133.90625 126.207031 133.332031 125.773438 133.523438 125.121094 C 133.90625 123.871094 137.90625 123.492188 138.667969 124.632812 C 139.144531 125.285156 139.714844 125.335938 140.953125 124.957031 C 143.714844 124.089844 148 124.304688 150.09375 125.390625 C 151.046875 125.933594 153.617188 127.78125 155.617188 129.46875 C 159.046875 132.347656 161.523438 133.542969 160.382812 131.855469 C 159.714844 130.878906 162.476562 129.628906 164.382812 130.066406 C 165.429688 130.28125 165.808594 130.824219 165.523438 131.75 C 165.238281 132.507812 165.332031 133.105469 165.617188 133.105469 C 166.667969 133.105469 174.761719 130.117188 184.855469 125.988281 C 206.382812 117.1875 231.238281 112.351562 266.191406 110.015625 C 288.855469 108.496094 304.761719 109.09375 311.714844 111.703125 C 314.476562 112.734375 315.714844 112.894531 316.570312 112.460938 C 317.332031 112.191406 318.570312 112.027344 319.429688 112.246094 C 320.476562 112.460938 320.953125 112.246094 320.953125 111.484375 C 320.953125 110.832031 323.046875 107.300781 325.617188 103.550781 C 328.191406 99.804688 330 96.707031 329.617188 96.707031 C 329.332031 96.707031 327.617188 98.988281 325.808594 101.757812 Z M 325.808594 101.757812 "/>
<path style=" stroke:none;fill-rule:nonzero;fill:rgb(0%,0%,0%);fill-opacity:1;" d="M 374.382812 98.664062 C 373.144531 99.152344 371.617188 100.402344 370.855469 101.378906 C 369.714844 102.953125 369.714844 103.496094 370.855469 105.074219 C 373.332031 108.386719 378.953125 109.582031 384.667969 107.898438 C 387.332031 107.082031 389.523438 105.019531 389.523438 103.171875 C 389.523438 101.597656 387.046875 99.042969 385.046875 98.664062 C 383.523438 98.390625 383.523438 98.390625 384.855469 98.988281 C 389.332031 101 389.714844 104.3125 385.808594 106.539062 C 381.046875 109.203125 374.285156 108.550781 371.808594 105.074219 C 370.667969 103.496094 370.667969 102.953125 371.808594 101.378906 C 373.332031 99.257812 374.382812 98.824219 379.046875 98.28125 C 382.285156 97.902344 382.285156 97.902344 379.523438 97.847656 C 377.90625 97.847656 375.617188 98.171875 374.382812 98.664062 Z M 374.382812 98.664062 "/>
<path style=" stroke:none;fill-rule:nonzero;fill:rgb(0%,0%,0%);fill-opacity:1;" d="M 80 99.421875 C 80 99.695312 80.667969 99.964844 81.429688 99.964844 C 82.191406 99.964844 82.855469 99.695312 82.855469 99.421875 C 82.855469 99.097656 82.191406 98.878906 81.429688 98.878906 C 80.667969 98.878906 80 99.097656 80 99.421875 Z M 80 99.421875 "/>
<path style=" stroke:none;fill-rule:nonzero;fill:rgb(0%,0%,0%);fill-opacity:1;" d="M 76.855469 99.75 C 76.09375 100.183594 76.953125 101.050781 78.191406 101.050781 C 78.667969 101.050781 79.046875 100.671875 79.046875 100.238281 C 79.046875 99.421875 77.90625 99.152344 76.855469 99.75 Z M 76.855469 99.75 "/>
<path style=" stroke:none;fill-rule:nonzero;fill:rgb(0%,0%,0%);fill-opacity:1;" d="M 85.332031 99.804688 C 84.285156 100.402344 84.761719 101.050781 86.191406 101.050781 C 86.953125 101.050781 87.617188 100.835938 87.617188 100.5625 C 87.617188 99.855469 86.09375 99.367188 85.332031 99.804688 Z M 85.332031 99.804688 "/>
<path style=" stroke:none;fill-rule:nonzero;fill:rgb(0%,0%,0%);fill-opacity:1;" d="M 171.617188 101.050781 C 162 101.542969 160.953125 101.597656 139.808594 103.007812 C 126.761719 103.878906 125.714844 103.878906 123.429688 103.0625 C 120.476562 101.921875 120 101.921875 120 102.953125 C 120 103.390625 119.046875 103.988281 118 104.367188 C 116 104.964844 116 105.019531 119.144531 106.105469 C 123.238281 107.625 130.761719 107.679688 148.855469 106.324219 C 156.09375 105.832031 166.570312 105.234375 172 105.019531 C 177.523438 104.855469 182.191406 104.476562 182.476562 104.203125 C 182.761719 103.988281 182.476562 103.769531 182 103.769531 C 180.476562 103.769531 180.761719 102.355469 182.476562 101.378906 C 183.808594 100.5625 183.808594 100.507812 182.191406 100.5625 C 181.238281 100.617188 176.476562 100.835938 171.617188 101.050781 Z M 171.617188 101.050781 "/>
<path style=" stroke:none;fill-rule:nonzero;fill:rgb(0%,0%,0%);fill-opacity:1;" d="M 378.476562 101.269531 C 378.191406 101.703125 378.09375 102.84375 378.285156 103.878906 C 378.667969 106.105469 381.332031 106.375 381.714844 104.148438 C 381.90625 103.117188 381.617188 102.683594 380.570312 102.683594 C 379.714844 102.683594 379.046875 102.410156 379.046875 102.140625 C 379.046875 101.8125 379.714844 101.597656 380.570312 101.597656 C 381.332031 101.597656 381.714844 101.324219 381.429688 101.050781 C 380.570312 100.292969 379.046875 100.402344 378.476562 101.269531 Z M 380.953125 104.039062 C 380.953125 104.476562 380.570312 104.855469 380 104.855469 C 379.523438 104.855469 379.046875 104.476562 379.046875 104.039062 C 379.046875 103.605469 379.523438 103.226562 380 103.226562 C 380.570312 103.226562 380.953125 103.605469 380.953125 104.039062 Z M 380.953125 104.039062 "/>
<path style=" stroke:none;fill-rule:nonzero;fill:rgb(0%,0%,0%);fill-opacity:1;" d="M 98.285156 101.648438 C 98.476562 101.976562 99.046875 102.195312 99.523438 102.195312 C 100 102.195312 100.570312 101.976562 100.761719 101.648438 C 100.953125 101.324219 100.382812 101.050781 99.523438 101.050781 C 98.667969 101.050781 98.09375 101.324219 98.285156 101.648438 Z M 98.285156 101.648438 "/>
<path style=" stroke:none;fill-rule:nonzero;fill:rgb(0%,0%,0%);fill-opacity:1;" d="M 70.570312 105.398438 L 66.570312 108.605469 L 70.09375 109.472656 C 72 109.910156 73.714844 110.289062 73.808594 110.289062 C 74.285156 110.289062 75.429688 102.628906 75.046875 102.355469 C 74.761719 102.246094 72.761719 103.605469 70.570312 105.398438 Z M 70.570312 105.398438 "/>
<path style=" stroke:none;fill-rule:nonzero;fill:rgb(0%,0%,0%);fill-opacity:1;" d="M 96.382812 104.421875 C 96.953125 105.398438 99.046875 105.5625 99.046875 104.636719 C 99.046875 104.148438 98.382812 103.769531 97.523438 103.769531 C 96.667969 103.769531 96.191406 104.039062 96.382812 104.421875 Z M 96.382812 104.421875 "/>
<path style=" stroke:none;fill-rule:nonzero;fill:rgb(0%,0%,0%);fill-opacity:1;" d="M 106.09375 106.160156 C 95.714844 108.765625 99.808594 117.785156 110.855469 116.589844 C 114 116.265625 118.09375 114.472656 118.09375 113.492188 C 118.09375 113.167969 117.046875 113.601562 115.808594 114.472656 C 114 115.667969 112.761719 115.992188 109.523438 115.992188 C 100 115.992188 97.523438 108.820312 106.285156 106.703125 C 109.046875 106.050781 110 106.050781 112.761719 106.703125 C 116.476562 107.570312 117.238281 108.167969 118.191406 110.832031 C 118.855469 112.679688 118.855469 112.679688 118.953125 111.105469 C 119.046875 108.984375 116.761719 107.082031 112.761719 106.160156 C 109.046875 105.289062 109.714844 105.289062 106.09375 106.160156 Z M 106.09375 106.160156 "/>
<path style=" stroke:none;fill-rule:nonzero;fill:rgb(0%,0%,0%);fill-opacity:1;" d="M 107.617188 109.417969 C 107.617188 109.960938 108.191406 110.125 109.332031 109.910156 C 110.761719 109.582031 110.761719 109.636719 109.617188 110.453125 C 108.761719 111.050781 108.667969 111.375 109.429688 111.375 C 110 111.375 110.476562 111.753906 110.476562 112.246094 C 110.476562 112.84375 110 113.003906 108.953125 112.789062 C 108 112.570312 107.617188 112.734375 107.808594 113.113281 C 108.09375 113.492188 108.855469 113.820312 109.617188 113.820312 C 111.808594 113.820312 111.429688 108.984375 109.332031 108.765625 C 108.285156 108.660156 107.617188 108.929688 107.617188 109.417969 Z M 107.617188 109.417969 "/>
<path style=" stroke:none;fill-rule:nonzero;fill:rgb(0%,0%,0%);fill-opacity:1;" d="M 320.667969 114.308594 C 320.191406 115.015625 319.332031 115.179688 317.808594 114.960938 C 316.09375 114.742188 315.429688 115.015625 314.382812 116.320312 C 310.953125 120.773438 293.332031 124.742188 274.761719 125.230469 C 263.523438 125.554688 258.09375 126.804688 251.046875 130.664062 C 246.382812 133.269531 245.429688 134.464844 248.476562 133.921875 C 249.714844 133.703125 250.667969 133.921875 251.238281 134.574219 C 252.09375 135.390625 252.761719 135.226562 256.855469 133.050781 C 262.476562 130.011719 265.523438 129.414062 276.667969 129.085938 C 290.953125 128.597656 307.714844 125.5 315.046875 121.96875 C 318.953125 120.121094 322.09375 116.644531 321.714844 114.742188 C 321.429688 113.492188 321.332031 113.441406 320.667969 114.308594 Z M 320.667969 114.308594 "/>
<path style=" stroke:none;fill-rule:nonzero;fill:rgb(0%,0%,0%);fill-opacity:1;" d="M 220.761719 119.6875 C 217.714844 120.609375 215.238281 121.535156 215.238281 121.699219 C 215.238281 121.96875 228.761719 121.753906 229.238281 121.480469 C 229.808594 121.207031 227.90625 118.222656 227.046875 118.058594 C 226.570312 118.003906 223.714844 118.710938 220.761719 119.6875 Z M 220.761719 119.6875 "/>
<path style=" stroke:none;fill-rule:nonzero;fill:rgb(0%,0%,0%);fill-opacity:1;" d="M 114.761719 119.632812 C 108.382812 121.699219 107.617188 126.695312 113.238281 129.140625 C 116.09375 130.390625 116.09375 129.847656 113.238281 128.273438 C 107.90625 125.230469 110.667969 120.394531 118.191406 119.742188 C 122.476562 119.308594 126.476562 121.101562 127.617188 123.871094 C 128.382812 125.773438 128.382812 125.773438 128.476562 124.144531 C 128.570312 120.503906 120.382812 117.785156 114.761719 119.632812 Z M 114.761719 119.632812 "/>
<path style=" stroke:none;fill-rule:nonzero;fill:rgb(0%,0%,0%);fill-opacity:1;" d="M 115.429688 122.351562 C 114.09375 123.109375 113.90625 124.089844 115.144531 123.597656 C 115.617188 123.4375 116.285156 124.089844 116.476562 125.066406 C 116.761719 126.480469 116.855469 126.261719 116.953125 124.25 C 117.144531 121.480469 117.144531 121.371094 115.429688 122.351562 Z M 115.429688 122.351562 "/>
<path style=" stroke:none;fill-rule:nonzero;fill:rgb(0%,0%,0%);fill-opacity:1;" d="M 121.144531 122.351562 C 119.808594 123.109375 119.617188 124.089844 120.855469 123.597656 C 121.332031 123.4375 122 124.089844 122.191406 125.066406 C 122.476562 126.480469 122.570312 126.261719 122.667969 124.25 C 122.855469 121.480469 122.855469 121.371094 121.144531 122.351562 Z M 121.144531 122.351562 "/>
<path style=" stroke:none;fill-rule:nonzero;fill:rgb(0%,0%,0%);fill-opacity:1;" d="M 52.382812 127.457031 C 52.382812 129.847656 52.476562 129.902344 55.046875 129.738281 C 57.238281 129.574219 57.714844 129.304688 57.90625 127.726562 C 58.285156 125.828125 57.046875 124.957031 54.09375 124.957031 C 52.667969 124.957031 52.382812 125.445312 52.382812 127.457031 Z M 56.953125 127.511719 C 56.761719 128.433594 56 129.085938 55.046875 129.195312 C 53.714844 129.359375 53.332031 129.03125 53.332031 127.726562 C 53.332031 126.371094 53.714844 126.042969 55.332031 126.042969 C 56.855469 126.042969 57.238281 126.316406 56.953125 127.511719 Z M 56.953125 127.511719 "/>
<path style=" stroke:none;fill-rule:nonzero;fill:rgb(0%,0%,0%);fill-opacity:1;" d="M 121.90625 129.085938 C 119.523438 129.792969 118 130.335938 118.382812 130.390625 C 119.808594 130.390625 125.523438 128.871094 126.09375 128.273438 C 126.476562 127.945312 126.667969 127.726562 126.476562 127.726562 C 126.285156 127.78125 124.285156 128.378906 121.90625 129.085938 Z M 121.90625 129.085938 "/>
<path style=" stroke:none;fill-rule:nonzero;fill:rgb(0%,0%,0%);fill-opacity:1;" d="M 226.761719 134.519531 C 225.144531 135.28125 223.808594 136.3125 223.808594 136.800781 C 223.90625 137.453125 224.285156 137.289062 225.238281 136.367188 C 226.667969 134.84375 229.523438 133.8125 233.332031 133.488281 C 235.332031 133.269531 235.238281 133.214844 232.667969 133.160156 C 230.667969 133.105469 228.667969 133.597656 226.761719 134.519531 Z M 226.761719 134.519531 "/>
<path style=" stroke:none;fill-rule:nonzero;fill:rgb(0%,0%,0%);fill-opacity:1;" d="M 239.90625 135.605469 C 241.046875 136.421875 242 137.671875 242 138.484375 C 242.09375 139.570312 242.191406 139.679688 242.570312 138.8125 C 243.144531 137.671875 240.285156 134.195312 238.855469 134.195312 C 238.382812 134.195312 238.855469 134.84375 239.90625 135.605469 Z M 239.90625 135.605469 "/>
<path style=" stroke:none;fill-rule:nonzero;fill:rgb(0%,0%,0%);fill-opacity:1;" d="M 160.855469 136.3125 C 158.761719 137.5625 158.09375 138.429688 158.09375 140.007812 C 158.09375 141.148438 158.761719 142.507812 159.429688 142.996094 C 161.429688 144.515625 162 144.136719 160.191406 142.398438 C 157.808594 140.007812 159.429688 136.910156 163.808594 135.714844 C 165.90625 135.117188 166.476562 134.738281 165.429688 134.738281 C 164.476562 134.738281 162.382812 135.441406 160.855469 136.3125 Z M 160.855469 136.3125 "/>
<path style=" stroke:none;fill-rule:nonzero;fill:rgb(0%,0%,0%);fill-opacity:1;" d="M 173.332031 136.257812 C 174.476562 136.800781 175.808594 138.214844 176.191406 139.410156 C 176.855469 141.363281 176.953125 141.417969 177.046875 139.84375 C 177.144531 138.160156 174.09375 135.28125 172.191406 135.28125 C 171.617188 135.28125 172.191406 135.714844 173.332031 136.257812 Z M 173.332031 136.257812 "/>
<path style=" stroke:none;fill-rule:nonzero;fill:rgb(0%,0%,0%);fill-opacity:1;" d="M 231.046875 136.476562 C 230.09375 138.105469 230.953125 140.984375 232.382812 140.984375 C 234.191406 140.984375 234.476562 136.3125 232.667969 135.933594 C 232 135.824219 231.238281 136.039062 231.046875 136.476562 Z M 233.332031 139.355469 C 233.332031 139.789062 232.953125 140.167969 232.382812 140.167969 C 231.90625 140.167969 231.429688 139.789062 231.429688 139.355469 C 231.429688 138.921875 231.90625 138.539062 232.382812 138.539062 C 232.953125 138.539062 233.332031 138.921875 233.332031 139.355469 Z M 233.332031 139.355469 "/>
<path style=" stroke:none;fill-rule:nonzero;fill:rgb(0%,0%,0%);fill-opacity:1;" d="M 164 138.105469 C 162.667969 138.867188 162.476562 139.84375 163.714844 139.355469 C 164.191406 139.191406 164.855469 139.84375 165.046875 140.820312 C 165.332031 142.234375 165.429688 142.015625 165.523438 140.007812 C 165.714844 137.234375 165.714844 137.128906 164 138.105469 Z M 164 138.105469 "/>
<path style=" stroke:none;fill-rule:nonzero;fill:rgb(0%,0%,0%);fill-opacity:1;" d="M 168.953125 138.160156 C 168 139.679688 168.953125 142.613281 170.476562 142.613281 C 171.523438 142.613281 171.90625 141.960938 171.90625 140.222656 C 171.90625 137.832031 170.09375 136.53125 168.953125 138.160156 Z M 171.429688 140.167969 C 171.429688 141.039062 171.046875 141.800781 170.476562 141.800781 C 170 141.800781 169.523438 141.039062 169.523438 140.167969 C 169.523438 139.246094 170 138.539062 170.476562 138.539062 C 171.046875 138.539062 171.429688 139.246094 171.429688 140.167969 Z M 171.429688 140.167969 "/>
<path style=" stroke:none;fill-rule:nonzero;fill:rgb(0%,0%,0%);fill-opacity:1;" d="M 223.523438 138.921875 C 222.761719 139.625 224.476562 141.472656 226.761719 142.613281 L 229.046875 143.703125 L 226.855469 142.289062 C 225.617188 141.472656 224.570312 140.332031 224.476562 139.679688 C 224.382812 138.429688 224.191406 138.324219 223.523438 138.921875 Z M 223.523438 138.921875 "/>
<path style=" stroke:none;fill-rule:nonzero;fill:rgb(0%,0%,0%);fill-opacity:1;" d="M 173.046875 143.539062 C 170.570312 145.058594 170 145.167969 165.90625 144.894531 C 162.953125 144.679688 162.09375 144.734375 163.332031 145.058594 C 166.953125 145.984375 171.046875 145.65625 173.714844 144.246094 C 175.046875 143.539062 176.191406 142.667969 176.191406 142.34375 C 176.191406 141.636719 176.191406 141.636719 173.046875 143.539062 Z M 173.046875 143.539062 "/>
<path style=" stroke:none;fill-rule:nonzero;fill:rgb(0%,0%,0%);fill-opacity:1;" d="M 237.617188 142.886719 C 237.332031 143.15625 237.523438 143.429688 238 143.429688 C 238.570312 143.429688 239.046875 143.15625 239.046875 142.886719 C 239.046875 142.558594 238.855469 142.34375 238.667969 142.34375 C 238.382812 142.34375 237.90625 142.558594 237.617188 142.886719 Z M 237.617188 142.886719 "/>
<path style=" stroke:none;fill-rule:nonzero;fill:rgb(0%,0%,0%);fill-opacity:1;" d="M 233.144531 143.808594 C 233.714844 143.917969 234.855469 143.917969 235.523438 143.808594 C 236.09375 143.648438 235.617188 143.539062 234.285156 143.539062 C 232.953125 143.539062 232.476562 143.648438 233.144531 143.808594 Z M 233.144531 143.808594 "/>
<path style=" stroke:none;fill-rule:nonzero;fill:rgb(0%,0%,0%);fill-opacity:1;" d="M 334.570312 155.382812 C 332.476562 155.871094 328.855469 158.480469 329.714844 158.914062 C 330 159.078125 330.667969 158.585938 331.332031 157.882812 C 332.761719 156.414062 336.09375 155.382812 339.617188 155.382812 C 342.855469 155.382812 347.617188 158.152344 347.714844 160.109375 C 347.808594 161.085938 348 161.304688 348.285156 160.652344 C 349.90625 157.066406 341.429688 153.804688 334.570312 155.382812 Z M 334.570312 155.382812 "/>
<path style=" stroke:none;fill-rule:nonzero;fill:rgb(0%,0%,0%);fill-opacity:1;" d="M 337.144531 158.097656 C 337.144531 158.371094 337.523438 158.640625 338 158.640625 C 338.570312 158.640625 338.761719 159.566406 338.476562 160.652344 L 338.09375 162.714844 L 339.429688 160.816406 C 341.332031 158.207031 341.238281 157.554688 339.046875 157.554688 C 338 157.554688 337.144531 157.773438 337.144531 158.097656 Z M 337.144531 158.097656 "/>
<path style=" stroke:none;fill-rule:nonzero;fill:rgb(0%,0%,0%);fill-opacity:1;" d="M 329.617188 161.140625 C 329.523438 162.769531 333.238281 165.703125 335.429688 165.703125 C 335.90625 165.703125 335.144531 165.160156 333.808594 164.453125 C 332.382812 163.804688 330.953125 162.390625 330.476562 161.359375 L 329.714844 159.457031 Z M 329.617188 161.140625 "/>
<path style=" stroke:none;fill-rule:nonzero;fill:rgb(0%,0%,0%);fill-opacity:1;" d="M 345.714844 163.367188 C 345.714844 164.183594 340 165.648438 338.191406 165.324219 C 336.953125 165.105469 336.953125 165.160156 338 165.597656 C 340.382812 166.574219 348.191406 164.238281 346.285156 163.152344 C 346 162.988281 345.714844 163.042969 345.714844 163.367188 Z M 345.714844 163.367188 "/>
<path style=" stroke:none;fill-rule:nonzero;fill:rgb(0%,0%,0%);fill-opacity:1;" d="M 76.761719 176.894531 C 75.429688 177.710938 74.285156 178.527344 74.285156 178.796875 C 74.285156 179.015625 75.523438 178.472656 77.046875 177.601562 C 81.046875 175.320312 86.476562 175.375 89.90625 177.710938 C 91.238281 178.636719 92.382812 179.882812 92.382812 180.480469 C 92.382812 181.132812 92.667969 181.515625 92.953125 181.296875 C 94.09375 180.644531 92.285156 178.089844 89.808594 176.789062 C 86.285156 174.941406 80.191406 174.996094 76.761719 176.894531 Z M 76.761719 176.894531 "/>
<path style=" stroke:none;fill-rule:nonzero;fill:rgb(0%,0%,0%);fill-opacity:1;" d="M 79.238281 178.851562 C 77.90625 179.613281 77.714844 180.589844 78.953125 180.101562 C 79.429688 179.9375 80.09375 180.589844 80.285156 181.570312 C 80.570312 182.980469 80.667969 182.765625 80.761719 180.753906 C 80.953125 177.984375 80.953125 177.875 79.238281 178.851562 Z M 79.238281 178.851562 "/>
<path style=" stroke:none;fill-rule:nonzero;fill:rgb(0%,0%,0%);fill-opacity:1;" d="M 83.808594 178.960938 C 83.808594 179.503906 84.382812 179.667969 85.523438 179.449219 C 86.953125 179.125 86.953125 179.179688 85.808594 179.992188 C 84.953125 180.589844 84.855469 180.917969 85.617188 180.917969 C 86.191406 180.917969 86.667969 181.296875 86.667969 181.785156 C 86.667969 182.382812 86.191406 182.546875 85.144531 182.328125 C 84.191406 182.113281 83.808594 182.273438 84 182.65625 C 84.285156 183.035156 85.046875 183.363281 85.808594 183.363281 C 88 183.363281 87.617188 178.527344 85.523438 178.308594 C 84.476562 178.199219 83.808594 178.472656 83.808594 178.960938 Z M 83.808594 178.960938 "/>
<path style=" stroke:none;fill-rule:nonzero;fill:rgb(0%,0%,0%);fill-opacity:1;" d="M 74 182.273438 C 74.285156 182.980469 75.617188 184.121094 76.953125 184.828125 L 79.429688 186.078125 L 77.332031 184.503906 C 76.191406 183.632812 75.238281 182.601562 75.238281 182.222656 C 75.238281 181.839844 74.855469 181.40625 74.382812 181.242188 C 74 181.078125 73.808594 181.515625 74 182.273438 Z M 74 182.273438 "/>
<path style=" stroke:none;fill-rule:nonzero;fill:rgb(0%,0%,0%);fill-opacity:1;" d="M 89.332031 184.558594 C 88.382812 185.046875 85.808594 185.644531 83.617188 185.859375 L 79.523438 186.1875 L 83.046875 186.296875 C 85.523438 186.351562 87.332031 185.96875 89.238281 184.992188 C 90.667969 184.285156 91.714844 183.632812 91.429688 183.632812 C 91.144531 183.632812 90.191406 184.066406 89.332031 184.558594 Z M 89.332031 184.558594 "/>
<path style=" stroke:none;fill-rule:nonzero;fill:rgb(0%,0%,0%);fill-opacity:1;" d="M 159.332031 184.011719 C 156.285156 184.339844 152.382812 187.21875 152.382812 189.066406 C 152.382812 192.433594 156.855469 195.042969 162.570312 195.042969 C 169.617188 195.042969 174.09375 189.445312 169.523438 186.1875 C 168.382812 185.371094 167.144531 184.71875 166.667969 184.71875 C 166.191406 184.71875 166.855469 185.316406 168.09375 186.078125 C 173.238281 188.957031 169.144531 194.5 161.90625 194.5 C 155.714844 194.5 151.332031 190.042969 154.382812 186.785156 C 155.617188 185.480469 161.144531 184.066406 163.523438 184.503906 C 164.953125 184.773438 165.046875 184.71875 163.808594 184.230469 C 163.046875 183.90625 162.191406 183.6875 161.90625 183.742188 C 161.617188 183.742188 160.476562 183.90625 159.332031 184.011719 Z M 159.332031 184.011719 "/>
<path style=" stroke:none;fill-rule:nonzero;fill:rgb(0%,0%,0%);fill-opacity:1;" d="M 158.285156 187.546875 C 156.953125 188.304688 156.761719 189.285156 158 188.792969 C 158.476562 188.632812 159.144531 189.285156 159.332031 190.261719 C 159.617188 191.675781 159.714844 191.457031 159.808594 189.445312 C 160 186.675781 160 186.566406 158.285156 187.546875 Z M 158.285156 187.546875 "/>
<path style=" stroke:none;fill-rule:nonzero;fill:rgb(0%,0%,0%);fill-opacity:1;" d="M 162.855469 187.707031 C 162.855469 188.195312 163.429688 188.359375 164.285156 188.195312 C 166.191406 187.761719 166.09375 188.359375 163.714844 190.207031 L 161.808594 191.78125 L 164.476562 191.78125 C 166.09375 191.78125 166.667969 191.621094 166 191.347656 C 165.238281 191.078125 165.144531 190.640625 165.714844 190.152344 C 167.332031 188.6875 166.855469 186.894531 164.761719 186.894531 C 163.714844 186.894531 162.855469 187.273438 162.855469 187.707031 Z M 162.855469 187.707031 "/>
<path style=" stroke:none;fill-rule:nonzero;fill:rgb(0%,0%,0%);fill-opacity:1;" d="M 15.332031 196.347656 C 12.382812 198.355469 16.382812 202.214844 19.617188 200.421875 C 20.667969 199.824219 20.761719 199.390625 20.09375 199.171875 C 19.523438 198.953125 19.046875 199.0625 19.046875 199.335938 C 19.046875 200.257812 16.476562 200.039062 15.808594 199.0625 C 15.523438 198.628906 15.714844 197.757812 16.285156 197.160156 C 17.144531 196.238281 17.523438 196.183594 18.761719 196.78125 C 20.09375 197.378906 20.191406 197.378906 19.808594 196.671875 C 19.144531 195.53125 16.761719 195.367188 15.332031 196.347656 Z M 15.332031 196.347656 "/>
<path style=" stroke:none;fill-rule:nonzero;fill:rgb(0%,0%,0%);fill-opacity:1;" d="M 155.238281 237.203125 C 155.238281 239.59375 155.332031 239.648438 157.90625 239.484375 C 160 239.375 160.476562 239.050781 160.570312 237.691406 C 160.761719 235.734375 159.523438 234.703125 157.046875 234.703125 C 155.523438 234.703125 155.238281 235.136719 155.238281 237.203125 Z M 159.046875 236.332031 C 159.046875 236.605469 158.382812 236.875 157.617188 236.875 C 156.855469 236.875 156.191406 236.605469 156.191406 236.332031 C 156.191406 236.007812 156.855469 235.789062 157.617188 235.789062 C 158.382812 235.789062 159.046875 236.007812 159.046875 236.332031 Z M 158.855469 238.398438 C 159.046875 238.777344 158.570312 239.050781 157.714844 239.050781 C 156.855469 239.050781 156.191406 238.667969 156.191406 238.179688 C 156.191406 237.257812 158.285156 237.417969 158.855469 238.398438 Z M 158.855469 238.398438 "/>
<path style=" stroke:none;fill-rule:nonzero;fill:rgb(0%,0%,0%);fill-opacity:1;" d="M 270.191406 241.492188 C 269.332031 242.851562 269.046875 243.9375 269.523438 243.9375 C 269.90625 243.9375 270.476562 243.613281 270.761719 243.234375 C 271.046875 242.742188 271.617188 242.742188 273.238281 243.285156 C 274.285156 243.667969 275.238281 243.777344 275.238281 243.613281 C 275.238281 242.636719 272.953125 239.050781 272.285156 239.050781 C 271.90625 239.050781 270.953125 240.136719 270.191406 241.492188 Z M 273.332031 241.765625 C 273.332031 242.039062 272.953125 242.308594 272.382812 242.308594 C 271.90625 242.308594 271.429688 242.039062 271.429688 241.765625 C 271.429688 241.441406 271.90625 241.222656 272.382812 241.222656 C 272.953125 241.222656 273.332031 241.441406 273.332031 241.765625 Z M 273.332031 241.765625 "/>
</g>
</svg>
